<?xml version="1.0" standalone="no"?>
<!DOCTYPE svg PUBLIC "-//W3C//DTD SVG 20010904//EN"
 "http://www.w3.org/TR/2001/REC-SVG-20010904/DTD/svg10.dtd">
<svg version="1.0" xmlns="http://www.w3.org/2000/svg"
 width="1071.000000pt" height="612.000000pt" viewBox="0 0 1071.000000 612.000000"
 preserveAspectRatio="xMidYMid meet">

<g transform="translate(0.000000,612.000000) scale(0.100000,-0.100000)"
fill="#000000" stroke="none">
<path d="M5140 5110 c-12 -8 -11 -10 8 -10 12 0 22 5 22 10 0 13 -11 13 -30 0z"/>
<path d="M4790 5102 c0 -5 7 -15 15 -22 8 -7 15 -8 15 -2 0 5 -7 15 -15 22 -8
7 -15 8 -15 2z"/>
<path d="M4505 5090 c3 -5 8 -10 11 -10 2 0 4 5 4 10 0 6 -5 10 -11 10 -5 0
-7 -4 -4 -10z"/>
<path d="M4868 5083 c-8 -10 -18 -28 -21 -41 -4 -19 -3 -21 8 -12 8 6 11 18 8
27 -5 12 -1 14 18 8 20 -7 22 -6 12 7 -7 8 -10 18 -6 21 3 4 4 7 1 7 -3 0 -12
-8 -20 -17z"/>
<path d="M4979 5085 c18 -8 50 -15 70 -15 20 0 55 -9 79 -20 35 -16 42 -17 42
-4 0 18 -9 21 -95 33 -38 5 -83 13 -100 16 -30 6 -30 6 4 -10z"/>
<path d="M6500 5014 l0 -75 30 3 31 3 4 73 3 72 -34 0 -34 0 0 -76z"/>
<path d="M4075 5067 c-33 -5 -61 -11 -63 -12 -7 -6 12 -35 24 -35 8 0 14 -4
14 -9 0 -17 63 -22 79 -6 12 11 12 15 2 15 -8 0 -3 8 9 18 20 17 21 44 2 41
-4 -1 -34 -6 -67 -12z"/>
<path d="M4915 5051 c-3 -5 19 -15 50 -22 30 -7 52 -16 49 -21 -3 -4 19 -8 48
-8 33 0 62 -6 77 -16 15 -11 26 -13 33 -6 11 11 -5 25 -32 28 -52 5 -200 39
-200 46 0 11 -17 10 -25 -1z"/>
<path d="M4865 5020 c-10 -11 -15 -26 -11 -35 7 -18 27 -11 22 8 -1 7 -1 9 1
5 6 -11 33 -10 33 1 0 5 -7 12 -16 15 -8 3 -12 10 -9 16 10 17 -1 11 -20 -10z"/>
<path d="M4894 4971 c-39 -24 -48 -37 -38 -59 4 -9 6 -27 5 -40 -3 -25 32 -62
58 -62 9 0 2 9 -16 20 -21 13 -33 28 -33 42 0 17 3 19 12 10 7 -7 19 -12 28
-12 12 1 12 3 -3 11 -9 6 -15 14 -12 20 3 5 0 6 -8 3 -8 -3 -17 2 -21 11 -9
24 2 37 22 26 9 -5 26 -5 37 0 19 7 18 8 -4 8 -19 1 -21 4 -12 15 9 10 21 12
49 5 60 -14 82 -9 27 7 -62 17 -54 17 -91 -5z"/>
<path d="M5035 4949 c-25 -6 -23 -7 18 -8 27 0 64 -8 83 -17 34 -16 57 -13 38
5 -14 15 -106 28 -139 20z"/>
<path d="M4923 4923 c-19 -7 3 -43 27 -43 23 0 35 16 18 24 -7 3 7 3 32 1 l45
-5 -40 14 c-43 15 -62 18 -82 9z"/>
<path d="M4998 4873 c-55 -14 -56 -15 -39 -34 15 -16 21 -17 48 -7 28 11 30
13 15 25 -14 10 -8 12 40 13 31 0 69 -5 83 -12 14 -6 28 -8 32 -4 26 26 -99
40 -179 19z"/>
<path d="M6515 4880 c-3 -5 -25 -10 -48 -11 -23 -1 -53 -4 -67 -8 -15 -4 9 -7
57 -7 57 1 83 5 83 13 0 16 -17 26 -25 13z"/>
<path d="M4860 4800 c0 -11 4 -20 9 -20 5 0 7 9 4 20 -3 11 -7 20 -9 20 -2 0
-4 -9 -4 -20z"/>
<path d="M5076 4811 c34 -3 68 -12 77 -19 20 -17 43 -6 27 12 -6 9 -37 13 -88
13 l-77 1 61 -7z"/>
<path d="M6270 4810 c-8 -5 -10 -10 -5 -10 6 0 17 5 25 10 8 5 11 10 5 10 -5
0 -17 -5 -25 -10z"/>
<path d="M6462 4809 c-30 -5 -61 -14 -70 -20 -15 -9 -14 -9 3 -5 64 15 107 17
121 5 17 -14 41 2 30 20 -8 12 -9 12 -84 0z"/>
<path d="M4965 4790 c17 -4 41 -8 55 -9 20 0 22 1 10 9 -8 5 -33 9 -55 9 -39
-1 -39 -2 -10 -9z"/>
<path d="M6216 4779 c-30 -23 -33 -44 -10 -57 11 -6 13 -11 5 -16 -14 -9 -15
-46 0 -46 6 0 8 -9 4 -20 -4 -12 -1 -27 5 -35 10 -12 10 -18 0 -30 -10 -13
-10 -19 3 -33 13 -14 14 -21 5 -30 -9 -9 -8 -16 5 -30 13 -14 14 -21 5 -30 -9
-9 -7 -16 6 -31 11 -12 14 -21 7 -26 -19 -11 -12 -33 12 -41 23 -7 51 -8 127
-4 l45 3 -55 7 c-30 4 -65 3 -77 -1 -14 -5 -23 -5 -23 1 0 6 -7 10 -15 10 -17
0 -20 16 -5 25 15 10 12 35 -5 35 -18 0 -19 12 -2 29 10 10 8 15 -7 27 -30 21
-6 38 52 35 26 -1 59 3 73 9 20 8 16 10 -29 7 -28 -1 -52 1 -52 5 0 3 -9 4
-20 1 -28 -7 -54 15 -39 33 7 9 24 12 52 8 23 -3 53 -1 67 5 23 9 21 10 -20
12 -111 4 -117 6 -107 33 4 10 16 13 44 9 21 -2 49 0 63 6 21 9 17 10 -22 5
-32 -4 -48 -3 -48 5 0 6 -6 8 -12 6 -20 -7 -42 11 -35 28 4 12 15 14 39 11 18
-3 44 -1 58 5 21 9 18 9 -17 4 -29 -4 -43 -2 -43 6 0 6 5 11 12 11 6 0 8 3 5
6 -4 4 -13 1 -22 -6 -12 -10 -18 -10 -30 0 -14 12 -14 15 1 31 11 13 22 15 37
10 12 -5 31 -5 42 0 15 6 11 8 -18 8 -23 1 -36 5 -32 11 10 15 0 12 -29 -11z"/>
<path d="M4869 4754 c-9 -11 -10 -20 -2 -32 7 -12 7 -22 -1 -35 -9 -15 -7 -21
8 -33 11 -8 15 -14 9 -14 -17 0 -24 -29 -9 -42 10 -10 10 -17 2 -30 -7 -12 -7
-21 0 -28 8 -8 10 -4 10 12 -1 16 4 22 14 19 48 -12 51 -10 17 9 -26 14 -37
27 -35 38 3 9 11 15 19 13 50 -13 55 -13 31 1 -12 8 -19 17 -15 22 4 4 0 4 -8
1 -18 -7 -44 19 -34 35 4 7 12 7 26 -1 11 -5 25 -9 32 -6 6 2 -3 10 -21 18
-32 14 -47 34 -36 50 3 5 13 5 24 -1 28 -15 38 -12 16 5 -25 19 -30 19 -47 -1z"/>
<path d="M5027 4753 c-3 -5 21 -9 53 -9 33 0 66 -6 74 -13 16 -14 39 -6 33 12
-4 12 -153 22 -160 10z"/>
<path d="M6495 4750 c-16 -4 -47 -11 -69 -15 -60 -10 -38 -13 41 -6 39 4 69 3
67 -1 -6 -9 10 -11 19 -2 9 9 -4 34 -17 33 -6 0 -24 -4 -41 -9z"/>
<path d="M5000 4725 c30 -7 56 -12 58 -10 6 6 -62 25 -87 24 -16 0 -4 -6 29
-14z"/>
<path d="M6348 4703 c6 -2 18 -2 25 0 6 3 1 5 -13 5 -14 0 -19 -2 -12 -5z"/>
<path d="M5010 4685 c-40 -10 -42 -12 -20 -18 14 -4 34 -6 45 -6 l20 0 -20 9
c-14 6 0 9 47 9 37 1 70 -3 73 -9 10 -16 37 -11 33 6 -4 21 -111 26 -178 9z"/>
<path d="M6530 4691 c0 -6 -17 -11 -37 -12 -21 -1 -49 -4 -63 -8 -15 -5 5 -7
53 -7 61 1 77 4 75 15 -4 17 -28 27 -28 12z"/>
<path d="M5093 4663 c-7 -2 -9 -11 -6 -19 3 -10 -2 -14 -18 -14 -37 0 -69 -11
-63 -21 7 -12 44 -11 44 1 0 13 76 13 101 -1 12 -6 28 -8 36 -4 28 10 -3 30
-41 27 -27 -3 -35 1 -38 16 -2 10 -8 17 -15 15z"/>
<path d="M6351 4641 c-10 -7 -7 -9 12 -8 15 1 27 5 27 10 0 10 -22 9 -39 -2z"/>
<path d="M6542 4629 c4 -11 -7 -14 -48 -16 -29 0 -61 -6 -71 -13 -16 -10 -15
-10 5 -4 13 3 51 7 83 7 46 1 59 5 57 16 -2 8 -9 16 -17 19 -9 3 -12 0 -9 -9z"/>
<path d="M6550 4571 c0 -6 -21 -13 -47 -17 -85 -12 -90 -23 -8 -17 44 3 81 7
83 8 1 1 0 10 -4 19 -7 17 -24 22 -24 7z"/>
<path d="M5015 4556 l-30 -14 33 -1 c17 -1 32 4 32 10 0 11 68 8 124 -6 22 -6
28 -5 24 6 -7 20 -143 23 -183 5z"/>
<path d="M4914 4515 c11 -8 29 -15 40 -15 16 1 12 5 -13 15 -42 19 -52 19 -27
0z"/>
<path d="M4873 4504 c-4 -11 1 -22 12 -30 10 -8 13 -14 7 -14 -14 0 -16 -36
-2 -45 6 -4 9 4 7 17 -1 16 3 22 12 20 8 -2 29 -5 45 -8 28 -4 27 -3 -8 11
-50 19 -66 33 -59 51 3 8 2 14 -1 14 -4 0 -9 -7 -13 -16z"/>
<path d="M6388 4513 c7 -3 16 -2 19 1 4 3 -2 6 -13 5 -11 0 -14 -3 -6 -6z"/>
<path d="M3480 4494 c-30 -8 -64 -24 -75 -35 -18 -19 -16 -18 20 2 24 15 56
24 82 24 24 0 43 4 44 10 1 15 -12 15 -71 -1z"/>
<path d="M5035 4501 c-13 -6 2 -8 45 -9 36 0 78 -3 94 -7 22 -6 28 -5 24 6 -5
16 -130 24 -163 10z"/>
<path d="M6550 4500 c0 -5 -17 -10 -37 -11 -21 0 -47 -4 -58 -9 l-20 -9 20 0
c11 0 41 4 68 8 32 5 47 4 47 -3 0 -6 4 -4 9 4 6 8 7 18 5 22 -7 11 -34 10
-34 -2z"/>
<path d="M6283 4483 c-49 -19 49 -31 107 -13 21 7 17 8 -22 9 -25 1 -52 3 -60
5 -7 3 -19 2 -25 -1z"/>
<path d="M3501 4451 c-33 -12 -67 -33 -90 -57 l-36 -38 42 37 c40 34 100 58
133 54 16 -2 28 16 13 20 -4 1 -32 -6 -62 -16z"/>
<path d="M5035 4440 c-13 -5 2 -8 45 -7 36 0 77 -3 93 -7 21 -6 27 -5 27 7 0
11 -15 15 -72 15 -40 0 -82 -3 -93 -8z"/>
<path d="M6560 4441 c0 -4 -23 -11 -50 -14 -28 -3 -58 -11 -68 -17 -15 -10
-15 -11 3 -5 11 4 47 8 80 10 44 3 61 8 63 19 2 9 -3 16 -12 16 -9 0 -16 -4
-16 -9z"/>
<path d="M3359 4413 c-13 -16 -12 -17 4 -4 16 13 21 21 13 21 -2 0 -10 -8 -17
-17z"/>
<path d="M3555 4419 c-57 -19 -105 -42 -105 -50 0 -5 15 0 33 11 18 12 50 20
75 20 31 0 42 4 42 15 0 17 -3 17 -45 4z"/>
<path d="M6288 4419 c-7 -5 19 -8 62 -8 82 1 83 5 3 12 -28 2 -58 0 -65 -4z"/>
<path d="M4916 4401 c5 -4 23 -11 39 -15 l30 -6 -25 15 c-27 16 -60 21 -44 6z"/>
<path d="M4883 4384 c-3 -8 -1 -20 5 -26 8 -8 9 -15 1 -25 -9 -9 -8 -17 1 -28
9 -11 10 -19 1 -28 -30 -37 63 -73 214 -84 39 -3 75 -10 82 -15 15 -12 36 -1
30 15 -2 8 -32 13 -78 13 -91 2 -170 13 -187 27 -7 5 -15 7 -19 3 -3 -3 -15 1
-25 10 -14 14 -15 20 -6 31 9 11 9 19 0 33 -16 27 0 33 49 20 22 -6 43 -9 46
-7 2 3 -9 8 -26 12 -17 4 -31 11 -31 17 0 6 -6 8 -14 5 -17 -7 -40 18 -31 33
3 5 4 10 0 10 -3 0 -8 -7 -12 -16z"/>
<path d="M3337 4369 c-4 -14 7 -45 31 -88 21 -36 46 -82 55 -101 10 -19 29
-53 42 -75 13 -22 39 -69 57 -105 18 -36 36 -67 39 -70 3 -3 12 -19 19 -36 10
-22 21 -31 37 -31 28 0 30 13 3 20 -23 6 -43 49 -27 58 5 4 6 12 3 18 -5 7 1
11 13 11 12 0 21 5 21 10 0 6 -5 10 -11 10 -25 0 15 30 54 41 26 7 36 13 28
18 -10 6 -9 10 3 14 9 4 16 3 16 -2 0 -4 7 -8 14 -8 8 0 14 5 13 11 -1 6 10 9
27 8 20 -3 27 0 23 10 -5 15 -6 15 -70 -2 -31 -8 -65 -29 -96 -56 -37 -34 -51
-40 -60 -31 -7 7 -17 12 -23 12 -6 0 -13 6 -16 14 -3 9 0 11 8 6 8 -5 11 -3 8
6 -3 8 -11 14 -18 14 -7 0 -15 6 -18 14 -3 9 0 11 8 6 9 -5 11 -4 6 3 -4 7
-13 12 -21 12 -7 0 -15 7 -19 15 -4 13 -2 13 14 5 15 -8 21 -6 30 10 6 10 28
24 50 30 22 6 40 13 40 16 0 3 -9 2 -20 -1 -30 -9 -24 2 10 20 35 18 53 19 45
3 -4 -7 -1 -6 7 3 7 9 22 16 33 15 11 -1 20 4 20 9 0 29 -114 -16 -167 -67
-31 -29 -40 -33 -49 -22 -6 8 -15 12 -19 9 -5 -3 -12 0 -16 6 -3 6 -1 15 6 19
9 5 9 9 1 14 -6 4 -11 1 -11 -6 0 -7 -5 -5 -11 6 -9 14 -8 20 1 26 9 6 6 10
-9 15 -21 6 -29 25 -11 25 6 0 10 -4 10 -9 0 -5 10 -7 22 -3 13 3 17 7 10 10
-17 5 4 32 27 32 9 1 27 7 41 15 l25 15 -30 -5 -30 -6 35 20 c19 11 52 20 73
21 20 0 37 4 37 9 0 14 -18 23 -24 12 -3 -4 -24 -11 -46 -15 -30 -5 -55 -19
-88 -50 -38 -35 -51 -42 -65 -35 -12 7 -17 6 -18 -3 0 -7 -4 -4 -8 7 -5 11 -5
22 0 25 4 3 4 12 -1 20 -9 13 -10 13 -10 0 -1 -12 -3 -11 -11 3 -6 9 -7 27 -4
40 7 22 7 22 -9 2 l-15 -20 -2 20 c-1 11 -1 28 0 38 3 24 -6 21 -12 -4z m243
-399 c0 -5 -4 -10 -9 -10 -6 0 -13 5 -16 10 -3 6 1 10 9 10 9 0 16 -4 16 -10z"/>
<path d="M3556 4371 c-45 -16 -136 -82 -136 -100 0 -4 10 -8 22 -8 17 -2 19 0
8 7 -35 22 72 89 143 90 25 0 37 4 35 12 -6 18 -19 18 -72 -1z"/>
<path d="M5035 4380 c-5 -8 12 -11 56 -10 35 1 77 -1 93 -5 22 -6 28 -5 24 6
-6 18 -163 26 -173 9z"/>
<path d="M6378 4383 c7 -3 16 -2 19 1 4 3 -2 6 -13 5 -11 0 -14 -3 -6 -6z"/>
<path d="M6572 4379 c4 -11 -6 -14 -41 -16 -25 -1 -57 -6 -71 -12 -22 -9 -21
-10 11 -5 20 3 56 7 80 8 43 2 62 23 30 34 -9 3 -12 0 -9 -9z"/>
<path d="M3410 4335 c-7 -9 -11 -17 -9 -20 3 -2 10 5 17 15 14 24 10 26 -8 5z"/>
<path d="M6254 4329 c-3 -6 1 -18 9 -27 15 -14 15 -17 -1 -29 -16 -13 -15 -15
6 -30 21 -15 21 -16 5 -29 -17 -13 -17 -15 1 -29 15 -12 17 -17 7 -29 -15 -18
-6 -36 17 -36 15 -1 15 -2 -2 -15 -22 -16 -15 -45 11 -45 14 0 14 -3 -5 -16
-18 -13 -21 -19 -11 -30 6 -8 21 -14 33 -15 14 0 16 -2 6 -6 -8 -3 -21 -10
-28 -16 -19 -15 4 -37 39 -37 43 0 44 18 2 23 -33 3 -35 5 -15 12 12 4 22 11
22 16 0 5 8 6 18 2 9 -3 14 -3 10 1 -3 4 -23 14 -44 21 -35 12 -36 13 -16 24
12 6 48 14 82 18 38 4 60 10 60 18 0 13 -15 12 -76 -6 -22 -7 -40 -5 -64 5
-32 13 -33 14 -12 25 12 7 51 14 86 18 49 4 63 9 59 19 -3 8 -9 14 -15 14 -5
0 -6 -4 -3 -10 3 -5 0 -7 -9 -4 -8 3 -31 1 -52 -5 -25 -7 -42 -7 -48 -1 -6 6
-19 10 -30 11 -48 2 41 28 97 29 31 0 57 4 57 9 0 13 -61 20 -91 9 -16 -5 -36
-5 -53 2 -23 9 -26 13 -16 25 9 11 33 15 81 15 41 0 69 4 69 10 0 7 -24 9 -66
6 -75 -6 -131 9 -101 25 21 12 22 39 1 39 -10 0 -14 6 -10 15 6 17 0 20 -10 4z"/>
<path d="M6420 4322 c0 -15 -7 -18 -42 -17 -24 1 -52 -2 -63 -6 -12 -5 8 -8
51 -8 71 -1 71 -1 66 24 -5 29 -12 33 -12 7z"/>
<path d="M5036 4321 c-4 -7 10 -8 41 -4 33 3 61 0 85 -10 35 -15 57 -9 44 11
-7 12 -163 15 -170 3z"/>
<path d="M6576 4322 c-3 -5 -33 -15 -66 -21 -66 -13 -82 -24 -22 -16 20 3 46
7 57 8 11 1 26 7 34 11 10 7 12 5 6 -4 -5 -8 -3 -11 6 -8 8 3 14 11 14 18 0
16 -21 25 -29 12z"/>
<path d="M3600 4285 c-26 -8 -57 -26 -70 -40 l-24 -26 54 7 c30 4 73 8 94 8
22 1 41 6 43 13 3 7 -12 10 -41 9 -24 0 -42 -4 -40 -7 4 -7 -77 -19 -84 -13
-11 8 57 38 92 40 22 2 44 3 49 3 4 1 7 6 7 11 0 13 -25 12 -80 -5z"/>
<path d="M4926 4291 c-8 -12 36 -26 56 -18 7 3 4 6 -7 6 -12 1 -26 6 -32 12
-7 7 -13 8 -17 0z"/>
<path d="M6415 4270 c-19 -8 -19 -9 3 -9 12 -1 22 4 22 9 0 6 -1 10 -2 9 -2 0
-12 -4 -23 -9z"/>
<path d="M5040 4263 c0 -5 29 -8 65 -8 38 0 69 -5 77 -12 17 -18 28 -16 28 6
0 17 -9 19 -85 20 -47 1 -85 -2 -85 -6z"/>
<path d="M6586 4261 c-3 -4 -33 -14 -67 -20 -33 -7 -59 -14 -57 -16 2 -2 36
-1 76 2 61 5 72 9 72 24 0 20 -15 26 -24 10z"/>
<path d="M3482 4208 c-16 -16 -15 -28 1 -28 7 0 13 9 13 20 0 11 -1 20 -1 20
-1 0 -6 -5 -13 -12z"/>
<path d="M3544 4198 l-19 -21 35 7 c19 3 39 11 45 18 10 11 6 10 -42 -9 -16
-6 -16 -5 -4 10 20 25 7 21 -15 -5z"/>
<path d="M4890 4206 c0 -7 7 -19 15 -26 10 -9 15 -9 15 -1 0 6 -5 11 -11 11
-6 0 -9 7 -5 15 3 8 1 15 -4 15 -6 0 -10 -6 -10 -14z"/>
<path d="M6418 4203 c7 -3 16 -2 19 1 4 3 -2 6 -13 5 -11 0 -14 -3 -6 -6z"/>
<path d="M6590 4201 c0 -5 -28 -16 -62 -24 l-63 -16 60 6 c33 4 68 6 78 5 11
0 17 6 17 19 0 10 -7 19 -15 19 -8 0 -15 -4 -15 -9z"/>
<path d="M3502 4168 c-18 -18 -14 -28 11 -28 16 0 18 3 8 9 -7 5 -10 14 -7 20
9 15 3 14 -12 -1z"/>
<path d="M3672 4161 c-60 -21 -139 -88 -122 -105 7 -7 14 -6 22 2 9 9 9 12 -1
12 -20 0 7 30 28 30 9 1 27 7 41 15 28 16 19 20 -11 5 -10 -6 -19 -7 -19 -2 0
15 57 34 100 34 28 -1 40 3 40 14 0 18 -13 17 -78 -5z"/>
<path d="M4936 4171 c-7 -10 27 -21 66 -21 35 0 63 -11 49 -19 -6 -4 19 -5 54
-3 44 3 70 0 80 -8 11 -9 19 -10 27 -2 20 20 -1 28 -66 26 -36 -2 -68 1 -71 7
-4 5 -31 9 -61 9 -30 0 -54 5 -54 10 0 12 -17 13 -24 1z"/>
<path d="M4890 4147 c0 -16 20 -37 35 -37 5 0 2 7 -9 15 -10 7 -15 18 -11 24
3 6 1 11 -4 11 -6 0 -11 -6 -11 -13z"/>
<path d="M6599 4141 c-2 -6 -29 -15 -59 -21 -30 -6 -58 -14 -63 -19 -6 -6 6
-6 29 0 22 4 58 9 82 9 35 0 43 3 40 17 -4 19 -24 29 -29 14z"/>
<path d="M3708 4124 c-27 -8 -48 -17 -48 -20 0 -3 10 -2 21 1 16 6 20 4 13 -6
-6 -10 -3 -10 11 1 10 8 29 15 41 15 13 0 24 4 25 10 1 15 -12 15 -63 -1z"/>
<path d="M4950 4110 c-13 -8 -12 -10 3 -10 9 0 17 5 17 10 0 12 -1 12 -20 0z"/>
<path d="M3600 4064 c-46 -41 -50 -52 -17 -49 32 4 34 6 12 14 -17 7 -12 12
35 35 30 14 44 23 31 20 -16 -4 -21 -3 -17 5 13 21 -4 11 -44 -25z"/>
<path d="M4895 4090 c-8 -13 12 -40 29 -40 6 0 3 7 -6 14 -10 7 -18 16 -18 19
0 3 8 8 18 10 15 4 15 5 0 6 -9 0 -20 -4 -23 -9z"/>
<path d="M5003 4093 c15 -2 37 -2 50 0 12 2 0 4 -28 4 -27 0 -38 -2 -22 -4z"/>
<path d="M5084 4077 c-59 -12 -51 -15 24 -9 46 3 72 1 76 -7 11 -18 38 -13 34
6 -2 13 -14 17 -50 18 -26 0 -64 -3 -84 -8z"/>
<path d="M6590 4074 c-14 -8 -45 -19 -69 -25 -61 -15 -47 -18 29 -7 87 14 91
15 84 33 -7 18 -11 18 -44 -1z"/>
<path d="M4951 4051 c-17 -11 62 -25 100 -18 13 2 3 5 -23 6 -27 0 -48 6 -48
11 0 12 -10 13 -29 1z"/>
<path d="M3752 4037 c-41 -11 -126 -70 -136 -93 -6 -15 43 -9 58 6 8 9 5 11
-14 5 -21 -6 -23 -5 -12 6 7 8 27 19 45 25 18 7 31 17 29 24 -1 6 2 9 8 5 6
-4 17 -1 25 5 8 7 22 10 30 6 19 -7 47 3 39 15 -7 11 -18 10 -72 -4z"/>
<path d="M4895 4031 c-6 -11 22 -41 38 -41 7 0 4 7 -7 15 -10 7 -15 18 -11 24
3 6 2 11 -4 11 -5 0 -12 -4 -16 -9z"/>
<path d="M5082 4014 c-36 -12 -36 -12 15 -7 28 3 66 1 83 -6 35 -12 52 -7 44
12 -6 15 -92 16 -142 1z"/>
<path d="M6611 4017 c-6 -8 -36 -19 -67 -26 -78 -18 -61 -24 25 -9 57 10 71
16 71 30 0 21 -13 23 -29 5z"/>
<path d="M6405 4010 c-15 -7 -10 -8 23 -8 23 1 42 5 42 10 0 10 -39 9 -65 -2z"/>
<path d="M3771 3991 c-32 -11 -69 -34 -93 -58 l-39 -40 32 5 c24 3 30 2 24 -8
-4 -7 14 0 41 16 27 16 68 31 92 34 23 3 41 10 40 15 -3 10 -6 11 -49 2 -32
-6 -85 -33 -94 -47 -3 -5 -11 -10 -16 -10 -6 0 -7 5 -3 11 4 8 -1 9 -16 4 -36
-11 -16 10 38 40 26 15 62 28 81 29 19 0 36 7 39 14 5 16 -13 15 -77 -7z"/>
<path d="M4961 3991 c-16 -10 88 -27 111 -18 7 3 -6 6 -29 6 -23 1 -45 6 -48
11 -8 12 -16 12 -34 1z"/>
<path d="M7380 3978 c-25 -6 -39 -13 -32 -15 17 -6 15 -23 -3 -23 -9 0 -32 -7
-53 -15 -26 -11 -33 -18 -23 -24 9 -6 -3 -14 -38 -27 -40 -14 -50 -22 -46 -35
4 -13 -2 -19 -24 -24 -33 -7 -52 -25 -28 -25 9 0 -1 -17 -24 -42 -37 -41 -51
-67 -29 -53 18 11 11 -7 -17 -43 -20 -26 -22 -34 -10 -29 13 5 10 -5 -13 -37
-34 -50 -36 -58 -15 -50 11 5 13 2 9 -9 -7 -18 -96 -26 -201 -17 -53 5 -60 3
-53 -10 13 -25 -2 -40 -51 -49 l-44 -9 38 -1 c33 -1 37 -4 37 -26 0 -22 -4
-25 -35 -25 -31 0 -35 3 -35 25 0 19 -5 25 -21 25 -12 0 -17 -4 -13 -11 4 -8
0 -9 -15 -4 -11 3 -48 -1 -82 -9 -80 -21 -83 -20 -25 10 33 17 66 25 102 25
30 1 54 5 54 10 0 5 13 9 29 9 17 0 33 5 36 10 3 6 -3 10 -13 10 -11 0 -35 3
-53 7 -30 6 -32 5 -21 -9 10 -13 10 -16 0 -15 -21 2 -91 -14 -114 -25 -12 -5
-30 -8 -40 -5 -16 4 -15 5 4 6 16 1 22 7 22 25 0 19 6 24 38 30 20 3 54 6 75
6 25 0 40 5 44 15 8 22 -5 31 -25 18 -10 -6 -33 -14 -52 -18 -81 -16 -141 -39
-136 -52 6 -15 -10 -18 -19 -3 -7 11 -74 14 -99 4 -9 -3 -16 -12 -16 -20 0
-10 15 -14 53 -15 l52 -1 -44 -9 c-45 -9 -70 -24 -59 -35 3 -3 28 -9 55 -14
26 -4 37 -8 23 -9 -14 -1 -36 -4 -50 -7 -20 -4 -22 -3 -10 5 12 9 11 11 -7 11
-13 0 -23 -4 -23 -9 0 -10 -19 -9 -36 1 -6 4 -11 24 -12 44 -2 46 -12 59 -12
16 0 -18 -4 -32 -10 -32 -5 0 -10 7 -10 15 0 8 -5 15 -10 15 -6 0 -17 15 -25
33 -17 38 -20 21 -4 -20 6 -15 26 -71 45 -123 18 -52 52 -142 74 -200 23 -58
57 -149 77 -202 28 -77 38 -96 51 -91 14 4 14 3 3 -5 -12 -9 -12 -17 3 -56 10
-25 15 -50 12 -55 -3 -5 1 -11 9 -15 21 -8 19 -36 -2 -36 -13 0 -14 -3 -5 -12
8 -8 15 -8 25 1 8 6 53 16 101 23 85 11 86 11 86 39 0 27 3 29 41 29 36 0 40
-2 37 -22 -2 -16 -12 -24 -36 -29 -49 -10 -53 -21 -4 -13 38 6 42 5 42 -15 0
-14 -8 -22 -27 -27 -48 -10 -49 -12 -10 -13 33 -1 37 -4 37 -26 0 -17 -6 -25
-17 -25 -10 0 -28 -3 -40 -6 -19 -5 -23 -2 -23 18 0 25 -1 25 -77 22 -65 -3
-71 -2 -38 6 22 5 57 9 78 9 33 1 37 4 37 26 0 23 -2 24 -47 19 -137 -15 -130
-13 -126 -39 4 -20 0 -24 -23 -28 -29 -4 -29 -4 3 -6 22 -1 36 -8 44 -22 10
-20 17 -21 83 -15 48 4 66 3 56 -4 -8 -5 -60 -11 -115 -12 -55 -1 -81 -3 -58
-5 28 -3 47 -11 57 -24 12 -18 21 -20 73 -14 42 5 54 3 43 -4 -8 -6 -35 -11
-59 -11 -35 0 -42 -3 -37 -16 3 -9 6 -20 6 -25 0 -6 21 -7 52 -3 37 5 49 4 44
-5 -4 -6 -24 -11 -46 -11 -32 0 -37 -3 -33 -19 5 -19 60 -31 141 -31 29 0 33
-3 30 -22 -2 -17 -11 -24 -32 -26 -40 -5 -76 6 -76 23 0 7 -4 16 -9 19 -15 10
-40 -5 -35 -19 7 -17 -18 -24 -85 -24 -30 0 -58 -4 -64 -10 -6 -6 45 -7 147
-4 l156 6 0 -26 c0 -22 -5 -27 -24 -27 -13 0 -31 -3 -40 -6 -12 -5 -16 0 -16
20 0 23 -4 26 -37 26 -31 -1 -35 -3 -20 -11 33 -19 6 -29 -83 -29 -81 0 -89 2
-95 21 -4 11 -9 18 -11 16 -3 -2 1 -17 8 -31 l12 -27 84 7 c66 5 86 4 93 -7
21 -34 11 -39 -84 -39 -85 0 -93 -2 -94 -20 -1 -11 2 -22 8 -25 5 -4 9 -1 9 5
0 6 4 9 9 5 5 -3 13 -1 16 5 4 6 15 8 26 5 11 -4 19 -2 19 4 0 7 23 11 56 11
l56 0 -4 30 c-3 20 0 30 9 30 7 0 13 -4 13 -9 0 -4 23 -4 51 2 41 8 53 7 60
-4 14 -22 11 -26 -22 -38 -37 -13 -75 -14 -82 -3 -2 4 -2 1 -1 -5 2 -7 -2 -14
-9 -15 -7 0 -16 -2 -22 -3 -5 -2 -16 -3 -24 -4 -11 -1 -10 -5 5 -16 17 -13 10
-14 -72 -15 -50 0 -94 -3 -97 -7 -8 -7 34 -39 46 -35 4 1 7 -2 7 -8 0 -5 -11
-10 -25 -10 -39 0 -30 -27 13 -37 l37 -10 -34 -9 c-51 -14 -54 -38 -5 -30 53
8 123 8 157 0 25 -6 27 -4 27 25 0 28 3 31 29 31 16 0 36 3 45 6 12 5 16 0 16
-20 0 -18 -6 -27 -22 -30 -13 -3 -32 -7 -43 -9 -11 -3 -1 -5 23 -6 38 -1 42
-3 42 -26 0 -21 -5 -25 -30 -26 -16 -1 -36 -2 -42 -3 -7 -1 -14 9 -16 22 -2
12 -10 22 -19 22 -8 0 -13 -6 -10 -13 4 -11 -4 -11 -45 -1 -28 8 -55 11 -59 8
-5 -3 -9 0 -9 5 0 6 -10 11 -22 10 -22 0 -22 -1 -3 -8 18 -8 16 -10 -14 -18
-47 -12 -50 -30 -7 -39 39 -7 39 -24 1 -24 -13 0 -27 -5 -31 -11 -9 -16 15
-29 51 -28 l30 1 -30 8 c-26 6 -28 8 -11 15 11 5 26 3 38 -4 10 -6 38 -12 61
-11 23 0 71 -2 107 -4 55 -4 65 -8 68 -24 5 -34 -82 -46 -93 -13 -8 25 -46 33
-118 26 -62 -6 -107 -20 -107 -34 0 -11 24 -21 53 -22 18 0 15 -3 -10 -12 -17
-7 -35 -16 -39 -20 -11 -11 15 -26 46 -28 22 0 21 -2 -10 -13 -24 -9 -34 -19
-33 -32 1 -15 -23 -30 -123 -73 -69 -30 -123 -55 -121 -57 2 -2 55 14 117 36
76 26 118 36 124 30 6 -6 19 -10 31 -10 17 -1 16 -3 -7 -16 -33 -17 -35 -29
-9 -44 25 -13 31 -13 31 0 0 6 -7 10 -16 10 -8 0 -12 5 -9 10 9 14 81 12 106
-2 17 -10 23 -10 26 0 3 6 13 12 24 12 17 0 23 -10 20 -32 -1 -10 76 -20 99
-13 19 6 21 3 18 -21 -2 -23 -9 -30 -36 -35 -55 -11 -50 -21 6 -13 48 6 52 5
46 -12 -10 -28 -34 -44 -66 -44 -23 0 -28 4 -28 25 0 16 -6 25 -15 25 -8 0
-15 -9 -15 -20 0 -18 -7 -20 -57 -21 l-58 -1 55 -10 c30 -5 83 -8 118 -6 59 4
62 3 62 -19 0 -16 -8 -27 -26 -33 -29 -12 -64 2 -64 25 0 8 -7 15 -15 15 -8 0
-15 -9 -15 -20 0 -18 -7 -20 -73 -20 -101 0 -152 39 -55 42 l32 1 -42 21 c-23
11 -42 23 -42 28 0 4 17 10 37 14 l36 7 -37 19 c-20 10 -34 23 -31 28 4 6 43
11 88 11 l82 2 -73 8 c-77 9 -122 0 -122 -25 0 -8 10 -18 22 -22 l21 -6 -24
-19 -24 -19 24 -18 c20 -16 21 -20 7 -25 -21 -8 -20 -33 2 -47 16 -10 16 -10
0 -20 -24 -15 -23 -27 5 -44 32 -20 67 -29 67 -17 0 6 -19 15 -41 21 -49 14
-40 34 16 34 19 0 30 3 23 7 -15 9 105 16 134 7 19 -5 20 -6 4 -7 -30 -2 -12
-12 27 -16 27 -2 34 0 30 11 -3 8 1 14 11 14 9 0 16 -8 16 -20 0 -19 -14 -26
-69 -32 -14 -2 -26 -9 -29 -17 -4 -11 3 -12 32 -7 21 4 45 10 53 13 11 4 14 2
9 -5 -7 -12 33 -12 264 2 41 3 66 2 55 -2 -20 -7 -33 -32 -17 -32 12 0 14 -71
3 -84 -5 -6 -14 -30 -20 -53 -13 -46 -14 -47 -153 -78 -43 -10 -85 -15 -93
-11 -10 4 -15 20 -16 53 l0 48 -15 -39 c-8 -22 -22 -48 -31 -58 -9 -10 -14
-20 -11 -23 3 -3 45 -1 94 5 115 13 129 12 75 -5 -25 -8 -47 -12 -50 -10 -4 2
-17 -3 -31 -11 -19 -11 -20 -14 -5 -10 11 3 40 8 65 11 56 8 203 41 250 56 19
6 42 12 50 13 9 1 25 9 36 16 20 15 156 184 185 230 24 39 47 137 54 235 3 50
17 180 31 290 14 110 23 210 21 223 -2 12 -1 22 3 22 4 0 7 18 8 40 1 22 6
108 12 192 6 84 13 296 17 471 6 307 6 317 -13 317 -18 1 -18 1 -1 11 27 16
25 138 -3 162 -24 20 -26 47 -5 47 17 0 18 19 8 123 -5 58 -8 67 -23 62 -9 -3
-23 1 -30 10 -9 11 -33 15 -91 15 -44 0 -79 -2 -79 -4 0 -2 9 -25 21 -51 15
-34 18 -50 10 -58 -16 -16 -26 -1 -45 74 -13 49 -16 84 -10 142 8 94 47 166
142 268 34 36 62 71 62 77 0 22 -81 28 -160 10z m-283 -475 c6 -17 -38 -28
-48 -12 -5 8 -9 18 -9 22 0 13 53 4 57 -10z m88 -34 c10 -15 -1 -23 -20 -15
-9 3 -13 10 -10 16 8 13 22 13 30 -1z m-718 -19 c14 -11 21 -20 16 -20 -6 0
-16 6 -23 14 -6 8 -21 17 -33 19 -17 3 -18 5 -4 6 11 0 30 -8 44 -19z m368 10
c3 -5 1 -10 -4 -10 -6 0 -11 5 -11 10 0 6 2 10 4 10 3 0 8 -4 11 -10z m116
-47 c-4 -16 -6 -34 -4 -40 5 -14 -23 -18 -31 -5 -6 11 21 72 33 72 6 0 7 -11
2 -27z m257 8 c3 -8 -1 -12 -9 -9 -7 2 -15 10 -17 17 -3 8 1 12 9 9 7 -2 15
-10 17 -17z m-741 -7 c-3 -3 -12 -4 -19 -1 -8 3 -5 6 6 6 11 1 17 -2 13 -5z
m114 -20 c-25 -7 -61 -16 -80 -18 -32 -5 -31 -4 7 6 23 6 42 14 42 17 0 4 17
7 38 8 l37 2 -44 -15z m87 -16 c-3 -7 -15 -13 -29 -13 -65 -3 -80 -6 -75 -14
3 -4 18 -7 33 -5 26 4 25 3 -5 -9 -44 -17 -31 -27 19 -16 25 6 46 6 57 -1 9
-5 13 -10 7 -11 -5 0 -28 -3 -50 -5 -22 -2 -63 -10 -92 -17 -29 -8 -50 -10
-47 -6 2 5 20 11 39 15 53 10 42 26 -12 20 l-48 -5 48 11 c56 12 65 33 10 24
-40 -6 -38 -5 32 25 45 19 118 23 113 7z m92 -23 c0 -22 -4 -25 -35 -25 -31 0
-35 3 -35 25 0 22 4 25 35 25 31 0 35 -3 35 -25z m282 -10 c-9 -19 -23 -35
-30 -35 -7 0 -11 -4 -8 -8 8 -13 -11 -35 -23 -28 -8 5 -6 14 6 31 10 12 21 21
25 18 4 -2 5 2 2 10 -3 9 4 22 18 31 30 21 30 21 10 -19z m-166 -60 c3 -30 1
-44 -6 -40 -5 3 -10 14 -10 24 0 10 -3 21 -7 24 -3 4 -8 21 -10 39 -3 30 -2
31 13 16 9 -9 18 -37 20 -63z m57 59 c8 -8 -3 -34 -14 -34 -5 0 -9 9 -9 20 0
19 11 26 23 14z m467 -24 c0 -5 -2 -10 -4 -10 -3 0 -8 5 -11 10 -3 6 -1 10 4
10 6 0 11 -4 11 -10z m-634 -27 c3 -16 -1 -23 -14 -23 -9 0 -27 -3 -39 -6 -20
-6 -23 -3 -23 25 0 31 2 32 37 29 29 -2 37 -8 39 -25z m-174 -14 c-35 -14 -18
-29 21 -18 20 6 43 5 64 -2 18 -6 45 -9 60 -7 24 3 28 -1 28 -22 0 -22 -5 -25
-37 -28 -35 -3 -38 -1 -38 24 0 22 -3 25 -22 20 -13 -3 -36 -6 -53 -7 -23 0
-26 -2 -11 -8 15 -6 10 -10 -23 -21 -23 -7 -44 -10 -48 -7 -3 4 3 7 15 7 11 0
24 5 28 11 6 11 -30 8 -84 -7 -9 -2 -3 2 13 10 17 8 38 15 48 16 28 0 19 20
-10 21 -21 1 -23 2 -8 6 11 3 24 9 30 14 5 5 18 9 30 8 18 0 18 -1 -3 -10z
m-85 -25 c-3 -3 -12 -4 -19 -1 -8 3 -5 6 6 6 11 1 17 -2 13 -5z m901 -11 c7
15 11 17 11 6 1 -8 -5 -24 -13 -34 -13 -18 -14 -17 -30 16 -17 34 -17 34 2 12
l19 -22 11 22z m-768 -43 c-23 -7 -23 -8 9 -9 45 -1 35 -10 -20 -17 -24 -3
-62 -10 -84 -15 -56 -12 -66 -10 -25 6 19 7 47 14 62 14 20 1 26 5 22 16 -5
12 1 15 27 14 32 -1 32 -2 9 -9z m-123 -6 c-3 -3 -12 -4 -19 -1 -8 3 -5 6 6 6
11 1 17 -2 13 -5z m1041 -31 c-6 -7 -7 -13 -3 -13 5 0 6 -3 3 -6 -10 -10 -48
16 -48 32 0 8 4 13 9 9 5 -3 12 -1 16 5 4 6 11 5 20 -3 9 -8 10 -16 3 -24z
m-788 2 c0 -17 -6 -25 -17 -25 -10 0 -28 -3 -40 -6 -20 -6 -23 -3 -23 25 0 30
2 31 40 31 36 0 40 -2 40 -25z m348 13 c9 -9 12 -9 12 0 0 20 29 1 44 -29 17
-33 11 -39 -45 -45 -30 -4 -39 -1 -39 10 0 8 -5 16 -11 18 -5 2 -7 11 -4 21 4
9 11 14 16 11 5 -3 6 2 3 10 -7 19 7 21 24 4z m-190 -28 c-7 -11 -17 -20 -22
-20 -5 0 -1 9 9 20 10 11 20 20 22 20 2 0 -2 -9 -9 -20z m-342 1 c-4 -5 -3
-11 1 -14 5 -2 2 -2 -5 0 -8 1 -21 3 -30 4 -10 1 -7 4 8 9 14 4 26 8 28 9 2 1
1 -3 -2 -8z m74 -5 c0 -2 -11 -6 -25 -8 -14 -3 -25 -1 -25 3 0 5 11 9 25 9 14
0 25 -2 25 -4z m-133 -12 c-3 -3 -12 -4 -19 -1 -8 3 -5 6 6 6 11 1 17 -2 13
-5z m243 -31 c0 -17 -9 -24 -42 -32 l-43 -11 43 4 c38 4 42 2 42 -19 0 -18 -7
-24 -36 -30 -20 -3 -38 -4 -41 -1 -3 2 -5 28 -5 56 1 51 0 51 -26 45 -56 -12
-146 -24 -150 -21 -2 2 23 9 55 16 32 6 63 13 68 14 6 2 38 3 72 2 58 -1 63
-3 63 -23z m-110 -13 c0 -5 -12 -10 -27 -9 l-28 1 25 8 c14 4 26 8 28 9 1 1 2
-3 2 -9z m-83 -6 c-3 -3 -12 -4 -19 -1 -8 3 -5 6 6 6 11 1 17 -2 13 -5z m-50
-10 c-3 -3 -12 -4 -19 -1 -8 3 -5 6 6 6 11 1 17 -2 13 -5z m138 -13 c-13 -11
-156 -44 -163 -36 -3 3 -1 5 4 6 5 0 41 8 79 19 83 22 92 23 80 11z m905 -31
c0 -5 -5 -10 -11 -10 -5 0 -7 5 -4 10 3 6 8 10 11 10 2 0 4 -4 4 -10z m-498
-34 c12 -18 9 -23 -17 -28 -28 -6 -48 12 -40 35 7 16 45 12 57 -7z m-302 -12
c0 -14 -8 -24 -22 -28 -44 -11 -58 -7 -58 18 l0 24 -87 -19 c-93 -20 -125 -20
-46 1 26 6 59 15 73 19 14 4 51 7 83 7 51 -1 57 -3 57 -22z m10 -78 c-8 -8
-32 -18 -52 -21 -36 -7 -38 -6 -38 19 0 14 -2 26 -4 26 -2 0 -39 -7 -82 -15
-88 -17 -109 -14 -37 5 81 21 196 28 213 13 13 -11 13 -15 0 -27z m335 34 c-3
-5 -10 -10 -16 -10 -5 0 -9 5 -9 10 0 6 7 10 16 10 8 0 12 -4 9 -10z m358 -20
c3 -11 1 -23 -4 -26 -5 -3 -7 -9 -4 -14 7 -11 -28 -22 -48 -15 -8 4 -14 14
-12 23 2 9 4 22 4 29 1 11 19 19 47 22 7 0 14 -8 17 -19z m-503 -22 c0 -21
-22 -48 -39 -48 -17 0 -24 47 -10 63 18 19 49 9 49 -15z m233 19 c7 4 8 0 4
-11 -4 -10 -7 -20 -7 -22 0 -2 -9 -4 -19 -4 -25 0 -34 27 -13 39 11 6 18 6 20
0 2 -5 9 -6 15 -2z m-423 -63 c0 -16 -7 -25 -22 -29 -58 -12 -63 -11 -66 16
l-3 26 -72 -13 c-40 -8 -85 -16 -102 -19 -29 -5 -29 -5 -5 6 34 15 150 34 216
35 50 2 54 0 54 -22z m323 -14 c11 -42 -47 -68 -62 -27 -10 27 -4 45 17 50 25
5 39 -2 45 -23z m-323 -56 c0 -24 -17 -34 -61 -34 -24 0 -29 4 -29 25 0 29 12
28 -129 4 -34 -5 -65 -8 -67 -6 -10 9 145 34 214 34 68 0 72 -2 72 -23z m648
-5 c-2 -6 -8 -10 -13 -10 -5 0 -11 4 -13 10 -2 6 4 11 13 11 9 0 15 -5 13 -11z
m-47 -32 c-13 -13 -26 -3 -16 12 3 6 11 8 17 5 6 -4 6 -10 -1 -17z m53 -18
c-3 -5 -10 -7 -15 -3 -5 3 -7 10 -3 15 3 5 10 7 15 3 5 -3 7 -10 3 -15z m-804
-5 c-65 -13 -127 -18 -119 -9 8 7 109 23 149 23 25 0 17 -4 -30 -14z m896 -60
c-9 -22 -38 -13 -42 13 -3 14 2 23 14 25 20 5 36 -17 28 -38z m-626 -15 c24
-8 23 -8 -5 -5 -19 3 -34 -2 -42 -12 -10 -15 -11 -14 -6 6 6 23 13 25 53 11z
m310 -18 c-1 -17 -18 -31 -33 -25 -20 7 -21 16 -6 31 11 11 39 7 39 -6z m-300
-12 c0 -4 -13 -14 -30 -23 -32 -16 -42 -2 -14 19 19 13 44 16 44 4z m287 -61
c-3 -8 -6 -5 -6 6 -1 11 2 17 5 13 3 -3 4 -12 1 -19z m342 -26 c5 -17 6 -33 3
-37 -3 -3 -6 -16 -7 -28 0 -12 -4 -22 -10 -22 -9 0 -10 14 -6 99 1 35 8 30 20
-12z m-749 9 c0 -24 -4 -26 -52 -35 -36 -6 -38 -5 -38 18 0 19 6 26 28 29 56
8 62 7 62 -12z m75 -11 c3 -5 1 -10 -4 -10 -6 0 -11 5 -11 10 0 6 2 10 4 10 3
0 8 -4 11 -10z m-75 -54 c0 -18 -7 -25 -31 -30 -51 -10 -59 -8 -59 18 0 19 6
26 28 29 58 9 62 8 62 -17z m261 10 c5 3 14 -6 20 -20 9 -20 9 -28 -4 -40 -10
-10 -18 -12 -22 -6 -4 6 -10 8 -15 5 -5 -3 -14 3 -19 14 -14 26 -14 27 6 47
11 11 18 13 21 5 2 -6 8 -9 13 -5z m-261 -75 c0 -19 -26 -31 -67 -31 -18 0
-23 6 -23 24 0 21 5 25 38 28 46 4 52 2 52 -21z m72 -27 c-6 -12 -9 -7 -9 16
0 23 3 28 9 16 5 -9 5 -23 0 -32z m491 -13 c6 -6 7 -11 3 -11 -5 0 -2 -7 5
-16 11 -14 10 -18 -6 -27 -35 -19 -73 -16 -89 8 -16 25 -6 52 15 39 11 -6 11
-4 0 9 -13 16 -11 17 23 14 21 -3 42 -9 49 -16z m-485 -42 c-3 -8 -7 -3 -11
10 -4 17 -3 21 5 13 5 -5 8 -16 6 -23z m173 -50 c14 -23 10 -36 -13 -43 -32
-8 -53 15 -39 42 12 23 38 23 52 1z m469 -4 c7 -9 8 -15 2 -15 -5 0 -12 7 -16
15 -3 8 -4 15 -2 15 2 0 9 -7 16 -15z m-287 -42 c3 -5 1 -28 -3 -53 -5 -29 -8
-35 -9 -18 0 15 -9 31 -18 37 -14 8 -15 12 -4 25 15 17 27 20 34 9z m-383 -51
c0 -5 -7 -17 -15 -28 -11 -14 -14 -15 -15 -4 0 13 -2 13 -9 1 -5 -8 -26 -17
-47 -21 l-39 -8 43 -1 c38 -1 42 -4 42 -25 0 -22 -6 -26 -45 -32 -25 -3 -48
-10 -51 -15 -2 -5 -19 -6 -37 -2 -30 5 -31 4 -13 -9 17 -13 15 -15 -28 -16
-34 -2 -46 2 -46 12 0 8 -6 17 -12 19 -7 3 22 6 65 6 l77 1 0 59 0 60 48 4
c26 2 55 4 65 5 9 1 17 -2 17 -6z m-144 -64 c3 -4 -7 -8 -21 -8 -14 0 -24 -4
-21 -9 8 -12 -18 -21 -59 -21 -37 0 -51 12 -32 28 21 18 124 26 133 10z m801
-50 c-3 -8 -6 -5 -6 6 -1 11 2 17 5 13 3 -3 4 -12 1 -19z m-397 -23 c7 5 7 0
-1 -13 -7 -12 -18 -18 -24 -16 -5 3 -1 -2 9 -10 19 -16 19 -16 -3 -16 -34 0
-61 18 -61 41 0 17 3 18 21 8 15 -8 19 -8 15 0 -13 20 6 36 20 17 7 -10 18
-15 24 -11z m-272 -80 c-3 -3 -9 2 -12 12 -6 14 -5 15 5 6 7 -7 10 -15 7 -18z
m50 0 c-3 -3 -9 2 -12 12 -6 14 -5 15 5 6 7 -7 10 -15 7 -18z m-124 -39 c39
-1 50 -5 52 -19 1 -11 -7 -22 -22 -28 -42 -15 -62 -11 -66 14 -3 20 -9 22 -68
24 -36 0 -72 4 -80 6 -8 3 -24 8 -35 11 -11 3 23 2 75 -1 52 -3 117 -7 144 -7z
m256 -11 c11 -13 10 -14 -4 -9 -9 3 -16 10 -16 15 0 13 6 11 20 -6z m-133 -17
c-3 -8 -6 -5 -6 6 -1 11 2 17 5 13 3 -3 4 -12 1 -19z m228 3 c-3 -6 -11 -11
-17 -11 -6 0 -6 6 2 15 14 17 26 13 15 -4z m-95 -16 c0 -3 -9 -5 -20 -5 -11 0
-20 7 -20 15 0 13 4 14 20 5 11 -6 20 -13 20 -15z m130 21 c0 -3 -7 -12 -16
-20 -23 -23 -40 -19 -19 4 16 18 35 26 35 16z m-75 -76 c3 -5 -1 -10 -10 -10
-9 0 -13 5 -10 10 3 6 8 10 10 10 2 0 7 -4 10 -10z m-469 -9 c5 -6 55 -13 112
-17 88 -6 102 -9 102 -24 0 -21 -19 -30 -61 -30 -20 0 -29 5 -29 16 0 11 -6
15 -20 11 -11 -3 -18 0 -17 6 1 8 -17 11 -55 8 -37 -2 -58 1 -58 8 0 6 -11 11
-24 11 -14 0 -28 5 -31 10 -8 13 68 13 81 1z m744 -7 c0 -9 -7 -14 -17 -12
-25 5 -28 28 -4 28 12 0 21 -6 21 -16z m11 -37 c-1 -12 -15 -9 -19 4 -3 6 1
10 8 8 6 -3 11 -8 11 -12z m-731 -16 c0 -14 49 -23 123 -22 60 0 67 -2 67 -19
0 -23 -5 -26 -53 -35 -35 -7 -37 -6 -37 19 0 26 -1 26 -69 26 -39 0 -73 5 -76
10 -3 6 -17 10 -30 10 -13 0 -27 5 -30 10 -4 6 15 10 49 10 31 0 56 -4 56 -9z
m405 -1 c3 -5 1 -10 -4 -10 -6 0 -11 5 -11 10 0 6 2 10 4 10 3 0 8 -4 11 -10z
m295 1 c0 -12 -20 -25 -27 -18 -7 7 6 27 18 27 5 0 9 -4 9 -9z m-69 -24 c-13
-13 -26 -3 -16 12 3 6 11 8 17 5 6 -4 6 -10 -1 -17z m-363 -22 c-3 -3 -9 2
-12 12 -6 14 -5 15 5 6 7 -7 10 -15 7 -18z m217 5 c3 -5 1 -10 -4 -10 -6 0
-11 5 -11 10 0 6 2 10 4 10 3 0 8 -4 11 -10z m-554 -19 c-19 -12 40 -21 161
-24 94 -2 98 -3 98 -24 0 -17 -8 -24 -27 -29 -48 -10 -49 -12 -10 -13 32 -1
37 -4 37 -25 0 -19 -7 -25 -35 -30 -43 -8 -57 -1 -54 27 0 12 1 36 0 52 l-1
31 -67 2 c-75 3 -145 20 -137 33 3 5 15 9 27 9 16 0 19 -3 8 -9z m856 -27 c-9
-9 -28 6 -21 18 4 6 10 6 17 -1 6 -6 8 -13 4 -17z m-56 -7 c-13 -13 -26 -3
-16 12 3 6 11 8 17 5 6 -4 6 -10 -1 -17z m-427 -23 c6 -17 -12 -51 -31 -58 -7
-3 -13 1 -13 9 0 8 -7 15 -15 15 -8 0 -15 5 -15 10 0 6 7 13 15 16 8 4 15 12
15 19 0 17 37 8 44 -11z m-339 -4 c4 -6 -6 -10 -24 -10 -16 0 -33 5 -36 10 -4
6 6 10 24 10 16 0 33 -4 36 -10z m815 -5 c0 -8 -4 -15 -10 -15 -5 0 -10 7 -10
15 0 8 5 15 10 15 6 0 10 -7 10 -15z m-690 -25 c10 -7 -8 -9 -58 -6 -41 3 -76
7 -80 10 -10 10 122 6 138 -4z m560 -49 c0 -12 -20 -25 -27 -18 -7 7 6 27 18
27 5 0 9 -4 9 -9z m-161 -66 c-2 -57 -23 -93 -35 -61 -8 22 17 116 31 116 3 0
5 -25 4 -55z m-229 5 c0 -5 -7 -10 -16 -10 -8 0 -12 5 -9 10 3 6 10 10 16 10
5 0 9 -4 9 -10z m94 -85 c8 -22 -4 -46 -22 -43 -19 4 -25 40 -9 50 18 11 24
10 31 -7z m254 -132 c-10 -2 -26 -2 -35 0 -10 3 -2 5 17 5 19 0 27 -2 18 -5z
m14 -37 c4 -5 4 -15 0 -21 -3 -5 -7 -14 -9 -20 -7 -33 -32 -88 -46 -102 -9 -9
-23 -13 -32 -9 -13 5 -15 13 -9 38 4 18 8 40 9 48 9 64 61 104 87 66z m99 -62
c-8 -32 -38 -41 -33 -9 3 16 33 48 39 41 1 -1 -1 -15 -6 -32z"/>
<path d="M4900 3961 c0 -11 6 -21 13 -24 9 -3 9 -8 -3 -21 -13 -16 -12 -20 2
-30 16 -12 16 -14 1 -28 -14 -15 -14 -17 5 -29 19 -12 19 -14 4 -25 -16 -12
-16 -14 0 -30 16 -16 16 -18 0 -31 -16 -12 -15 -14 7 -31 l24 -19 -24 -7 -24
-6 22 -19 23 -19 -22 -14 -22 -15 22 -12 c13 -7 33 -11 45 -8 18 3 16 5 -13
13 -31 10 -33 11 -13 18 28 9 39 36 13 36 -27 0 -34 17 -10 25 26 8 21 29 -8
33 -28 4 -28 18 -2 25 26 7 26 27 -1 34 l-22 6 23 17 23 18 -22 12 c-21 11
-22 13 -6 30 16 17 15 19 -6 30 -39 21 3 33 85 25 39 -4 68 -4 65 0 -8 7 -53
16 -99 18 -19 1 -44 8 -55 14 -17 11 -18 14 -5 23 13 8 13 10 -2 10 -11 0 -18
-8 -18 -19z"/>
<path d="M5145 3960 l-60 -5 50 -7 c28 -3 59 -7 70 -9 12 -3 20 1 20 10 0 18
-6 19 -80 11z"/>
<path d="M6621 3957 c-6 -8 -36 -19 -67 -26 -30 -7 -53 -15 -51 -18 3 -3 32 1
64 8 32 7 64 12 71 10 14 -2 17 25 3 33 -5 3 -14 0 -20 -7z"/>
<path d="M6430 3950 c-12 -8 -9 -10 13 -10 16 0 26 -4 22 -10 -3 -5 -1 -10 4
-10 6 0 11 9 11 20 0 22 -24 27 -50 10z"/>
<path d="M5058 3943 c7 -3 16 -2 19 1 4 3 -2 6 -13 5 -11 0 -14 -3 -6 -6z"/>
<path d="M6317 3919 c-14 -8 -16 -14 -6 -25 13 -16 57 -18 79 -4 11 7 3 10
-30 10 -44 1 -44 1 -20 15 15 8 19 14 10 14 -8 0 -23 -4 -33 -10z"/>
<path d="M3600 3910 c0 -5 6 -10 14 -10 8 0 18 5 21 10 3 6 -3 10 -14 10 -12
0 -21 -4 -21 -10z"/>
<path d="M5133 3903 c-40 -2 -73 -7 -73 -11 0 -4 25 -5 56 -3 33 2 66 -2 80
-10 13 -7 27 -10 30 -6 8 8 -3 38 -13 35 -4 -1 -41 -4 -80 -5z"/>
<path d="M6623 3897 c-4 -8 -30 -19 -58 -26 -61 -15 -105 -33 -105 -44 0 -5 5
-5 12 -1 8 5 9 2 5 -9 -4 -11 -1 -17 8 -17 9 0 14 8 12 21 -2 19 7 24 73 39
41 10 77 19 80 19 3 1 5 6 5 13 0 17 -22 21 -32 5z"/>
<path d="M6440 3890 c-13 -9 -13 -10 0 -9 8 0 24 4 35 9 l20 9 -20 0 c-11 0
-27 -4 -35 -9z"/>
<path d="M4970 3872 c0 -12 101 -22 115 -10 5 4 -2 8 -15 8 -14 0 -42 3 -62 6
-24 4 -38 3 -38 -4z"/>
<path d="M6319 3854 c-10 -13 -10 -17 2 -25 8 -4 23 -6 34 -3 24 8 14 -4 -16
-20 -12 -6 -22 -15 -23 -21 -1 -14 75 -18 104 -5 20 8 15 9 -27 5 -34 -4 -53
-2 -53 5 0 5 9 10 20 10 11 0 20 6 20 14 0 8 6 17 13 19 6 3 -8 6 -33 7 l-45
2 30 13 c25 12 26 14 9 15 -12 0 -27 -7 -35 -16z"/>
<path d="M4684 3850 c2 -16 20 -14 24 2 3 10 2 10 -6 -1 -7 -9 -11 -10 -15 -2
-4 7 -5 8 -3 1z"/>
<path d="M5140 3839 c-74 -5 -74 -5 -17 -7 32 -1 68 -7 79 -13 12 -7 24 -7 29
-2 19 19 -17 28 -91 22z"/>
<path d="M6632 3837 c-7 -8 -38 -20 -69 -27 -79 -18 -55 -23 32 -7 46 9 70 18
70 27 0 19 -20 23 -33 7z"/>
<path d="M4995 3810 c11 -5 38 -8 60 -8 34 0 36 1 15 8 -14 4 -41 8 -60 8 -28
1 -31 -1 -15 -8z"/>
<path d="M5150 3780 l-65 -5 55 -7 c30 -3 64 -7 75 -9 12 -3 20 1 20 10 0 18
-5 19 -85 11z"/>
<path d="M6477 3782 c-9 -2 -15 -8 -11 -13 3 -5 10 -7 15 -4 5 4 9 2 9 -4 0
-5 -6 -12 -12 -14 -7 -3 -2 -6 12 -7 25 -2 25 -2 -5 -15 -19 -9 -24 -14 -12
-15 25 0 21 -19 -5 -24 -58 -12 -98 -14 -98 -5 0 5 7 9 15 9 7 0 18 6 22 13 4
7 19 18 33 24 21 9 14 10 -40 7 -60 -4 -62 -3 -30 8 21 7 29 13 19 15 -24 6
-71 -15 -66 -30 2 -6 17 -14 33 -17 l29 -6 -27 -7 c-16 -4 -28 -14 -28 -22 0
-19 70 -20 135 -3 36 10 45 17 45 34 0 24 13 30 103 40 47 6 57 10 57 25 0 22
-13 25 -29 5 -6 -7 -28 -16 -49 -20 -20 -3 -47 -9 -58 -12 -17 -4 -24 0 -30
18 -6 15 -15 22 -27 20z"/>
<path d="M4991 3756 c11 -9 99 -15 99 -6 0 6 -23 10 -52 10 -28 0 -49 -2 -47
-4z"/>
<path d="M5145 3719 c-38 -4 -88 -12 -110 -17 l-40 -10 47 -1 c26 0 50 4 53 9
3 6 28 10 55 10 27 0 52 -4 55 -10 10 -17 37 -11 33 7 -4 21 -8 21 -93 12z"/>
<path d="M6645 3721 c-3 -6 -25 -15 -48 -21 -79 -21 -129 -43 -115 -51 21 -13
1 -22 -60 -26 l-57 -3 35 15 35 15 -38 -4 c-42 -5 -70 -23 -61 -37 8 -13 71
-11 129 4 38 10 51 18 53 35 2 11 11 23 20 26 22 6 102 19 122 20 18 1 20 28
3 33 -6 2 -14 -1 -18 -6z"/>
<path d="M3712 3700 c7 -10 14 -18 15 -16 6 6 -9 36 -18 36 -5 0 -4 -9 3 -20z"/>
<path d="M3801 3704 c0 -11 3 -14 6 -6 3 7 2 16 -1 19 -3 4 -6 -2 -5 -13z"/>
<path d="M5121 3658 c-77 -8 -123 -28 -64 -28 18 0 35 5 38 10 3 6 30 10 60
10 30 0 57 -4 60 -10 10 -17 25 -11 25 9 0 21 2 21 -119 9z"/>
<path d="M6656 3661 c-4 -5 -31 -15 -62 -22 -30 -7 -57 -16 -60 -21 -3 -4 1
-5 9 -2 7 2 43 8 78 12 45 5 64 11 64 21 0 17 -21 26 -29 12z"/>
<path d="M3781 3641 c-8 -5 -21 -7 -30 -4 -11 3 -10 1 3 -7 14 -10 21 -9 34 4
18 18 15 21 -7 7z"/>
<path d="M5178 3605 c-1 -2 -30 -6 -63 -9 -32 -4 -62 -9 -65 -12 -3 -4 30 -3
73 1 56 5 82 3 93 -6 16 -13 41 2 30 19 -5 8 -60 15 -68 7z"/>
<path d="M6475 3600 c-19 -8 -19 -9 0 -9 33 -1 3 -18 -42 -24 -48 -6 -55 -1
-20 13 21 8 21 9 -6 9 -32 1 -67 -15 -67 -29 0 -14 110 -12 151 1 43 15 41 13
33 33 -7 18 -19 19 -49 6z"/>
<path d="M6660 3601 c0 -5 -15 -11 -32 -15 -18 -3 -64 -16 -103 -28 -52 -16
-65 -23 -50 -28 17 -6 17 -7 -6 -13 -13 -4 -37 -6 -54 -6 l-30 1 35 13 c32 12
33 14 9 14 -31 1 -89 -18 -89 -29 0 -21 63 -26 139 -9 39 8 50 15 53 32 3 23
38 35 116 38 33 2 42 6 42 21 0 10 -7 18 -15 18 -8 0 -15 -4 -15 -9z"/>
<path d="M6171 3590 c0 -8 4 -22 9 -30 12 -18 12 -2 0 25 -6 13 -9 15 -9 5z"/>
<path d="M4930 3570 c-13 -9 -12 -12 4 -25 11 -8 36 -15 55 -14 29 0 32 2 16
9 -11 5 -31 9 -45 10 -24 1 -24 1 -6 15 23 17 1 21 -24 5z"/>
<path d="M4506 3561 c-3 -5 1 -14 8 -20 16 -13 32 2 21 19 -8 12 -22 13 -29 1z"/>
<path d="M5090 3538 l-25 -21 76 7 c52 5 79 4 84 -3 8 -14 25 -4 25 14 0 12
-11 13 -55 9 -32 -4 -60 -2 -68 4 -8 7 -19 4 -37 -10z"/>
<path d="M3210 3536 c0 -3 9 -10 20 -16 11 -6 20 -8 20 -6 0 3 -9 10 -20 16
-11 6 -20 8 -20 6z"/>
<path d="M4930 3510 c-41 -26 87 -54 140 -31 25 11 25 11 -5 8 -16 -3 -52 -1
-80 3 -47 6 -48 7 -25 18 22 9 22 11 5 11 -11 0 -27 -4 -35 -9z"/>
<path d="M5158 3480 c-72 -7 -103 -20 -49 -20 19 0 30 -4 26 -10 -3 -5 -1 -10
4 -10 6 0 11 7 11 15 0 11 12 15 44 15 25 0 48 5 51 10 3 6 0 9 -7 9 -7 -1
-43 -5 -80 -9z"/>
<path d="M4935 3446 c-18 -13 -17 -15 20 -25 52 -14 114 -13 142 2 18 10 8 11
-60 8 -74 -3 -80 -2 -68 13 11 13 11 16 -1 16 -8 0 -23 -6 -33 -14z"/>
<path d="M4510 3404 c0 -29 34 -114 46 -114 8 0 14 -7 14 -15 0 -18 12 -19 27
-4 13 13 36 2 27 -13 -4 -7 2 -8 17 -3 30 9 91 37 66 30 -68 -19 -70 -19 -62
4 5 18 2 24 -14 28 -12 3 -21 11 -21 18 0 7 -13 18 -29 23 -16 6 -39 20 -50
31 -12 12 -21 18 -21 15z"/>
<path d="M4948 3392 c-10 -2 -18 -8 -18 -13 0 -13 29 -11 65 5 l30 13 -30 -1
c-16 0 -38 -2 -47 -4z"/>
<path d="M4856 3362 c-3 -6 -1 -14 5 -17 15 -10 25 3 12 16 -7 7 -13 7 -17 1z"/>
<path d="M3695 3350 c-3 -6 1 -7 9 -4 18 7 21 14 7 14 -6 0 -13 -4 -16 -10z"/>
<path d="M3580 3326 c0 -2 11 -6 25 -8 13 -3 22 -1 19 3 -5 9 -44 13 -44 5z"/>
<path d="M3697 3318 c-2 -7 -1 -20 3 -28 19 -42 -21 -66 -44 -25 -23 42 -49
47 -44 8 2 -21 8 -28 23 -26 16 2 21 -4 20 -25 0 -17 6 -28 18 -30 10 -2 17 3
17 13 0 11 6 15 18 11 9 -3 24 -1 32 4 12 7 12 12 -4 29 -15 17 -16 23 -6 36
10 12 10 18 0 30 -15 18 -27 19 -33 3z"/>
<path d="M3581 3275 c-1 -11 6 -31 15 -43 13 -19 13 -22 1 -22 -19 0 -34 19
-40 50 l-4 25 -2 -26 c-1 -34 30 -63 59 -54 19 6 20 8 5 18 -8 7 -19 26 -24
42 -7 21 -10 24 -10 10z"/>
<path d="M3740 3274 c0 -23 26 -34 45 -20 17 12 16 13 -6 11 -13 -1 -27 3 -31
9 -6 8 -8 8 -8 0z"/>
<path d="M3168 3259 c6 -9 10 -18 7 -21 -3 -2 13 -22 35 -43 22 -22 40 -35 40
-31 0 5 9 -2 21 -15 l21 -24 -20 30 c-11 17 -42 50 -68 75 -26 25 -43 38 -36
29z m52 -54 c19 -19 32 -35 29 -35 -3 0 -20 16 -39 35 -19 19 -32 35 -29 35 3
0 20 -16 39 -35z"/>
<path d="M3372 3205 c-2 -43 -36 -110 -51 -100 -5 3 -11 -1 -14 -7 -3 -10 -8
-9 -22 2 -15 12 -17 12 -10 1 6 -11 4 -13 -11 -7 -36 15 -94 19 -94 7 0 -6 18
-11 44 -11 25 0 48 -4 51 -10 3 -5 -2 -9 -12 -8 -50 4 -80 -3 -80 -18 0 -14 9
-16 51 -11 28 3 59 9 69 12 16 7 17 3 12 -36 -4 -40 -4 -41 5 -14 6 17 8 38 6
48 -2 9 -1 17 3 17 4 0 20 22 35 50 20 36 26 60 23 87 l-4 38 -1 -40z m-155
-151 c-3 -3 -12 -4 -19 -1 -8 3 -5 6 6 6 11 1 17 -2 13 -5z"/>
<path d="M4560 3230 c0 -5 5 -10 10 -10 6 0 10 5 10 10 0 6 -4 10 -10 10 -5 0
-10 -4 -10 -10z"/>
<path d="M4180 3206 c0 -2 8 -10 18 -17 15 -13 16 -12 3 4 -13 16 -21 21 -21
13z"/>
<path d="M3297 3180 c-3 -11 -1 -23 4 -26 5 -3 9 6 9 20 0 31 -6 34 -13 6z"/>
<path d="M3170 3166 c0 -18 36 -40 50 -31 6 3 10 1 10 -4 0 -6 5 -11 11 -11
17 0 -10 29 -43 46 -25 13 -28 13 -28 0z m40 -16 c8 -5 11 -10 5 -10 -5 0 -17
5 -25 10 -8 5 -10 10 -5 10 6 0 17 -5 25 -10z"/>
<path d="M4580 3167 c-8 -8 -45 -26 -83 -41 -37 -16 -70 -32 -72 -37 -3 -4 27
5 66 22 40 16 83 31 97 34 30 5 36 10 27 24 -8 14 -18 14 -35 -2z"/>
<path d="M3678 3163 c6 -2 9 -10 6 -15 -4 -7 -2 -8 5 -4 13 9 5 26 -12 25 -9
0 -8 -2 1 -6z"/>
<path d="M3745 3160 l-30 -8 27 -1 c15 0 30 4 33 9 3 6 5 9 3 9 -2 -1 -16 -5
-33 -9z"/>
<path d="M4215 3159 c4 -5 15 -34 26 -62 10 -29 18 -43 18 -32 1 22 -35 105
-44 105 -3 0 -3 -5 0 -11z"/>
<path d="M4608 3116 c-8 -8 -42 -28 -76 -45 -47 -24 -67 -29 -81 -22 -10 6
-22 6 -27 2 -13 -12 -104 -30 -104 -21 0 4 17 15 38 23 20 9 30 16 22 16 -8 1
-30 -9 -49 -20 -27 -16 -32 -23 -20 -29 14 -8 98 2 133 16 13 5 17 4 13 -4 -4
-6 -24 -16 -45 -22 -50 -16 -84 -39 -76 -51 3 -5 13 -8 22 -5 10 3 33 7 54 10
20 2 45 9 56 15 30 16 49 13 26 -4 -10 -8 17 0 61 19 44 18 88 36 98 39 19 7
22 22 6 32 -6 4 -19 -2 -30 -14 -21 -23 -87 -54 -98 -46 -4 2 -41 -5 -82 -15
-81 -21 -118 -25 -79 -8 14 6 66 31 117 55 50 24 105 46 122 49 17 4 31 12 31
20 0 20 -17 26 -32 10z"/>
<path d="M3351 3086 c10 -10 59 -14 59 -5 0 5 -14 9 -32 9 -17 0 -29 -2 -27
-4z"/>
<path d="M3343 3047 c0 -12 1 -16 4 -9 4 10 16 4 42 -20 34 -31 34 -31 8 -2
-15 17 -24 35 -20 40 5 5 4 6 -1 2 -5 -4 -14 -4 -20 2 -8 6 -12 2 -13 -13z"/>
<path d="M4651 2991 c-10 -18 -76 -48 -95 -43 -9 3 -124 -24 -154 -35 -10 -4
-13 -2 -8 5 4 7 15 12 25 12 9 0 26 7 37 14 16 13 12 12 -26 0 -25 -9 -51 -20
-57 -26 -23 -19 -14 -30 20 -22 17 4 41 8 52 10 11 1 37 9 57 18 52 22 71 19
28 -4 -57 -31 -27 -23 49 14 38 18 80 36 92 39 11 3 19 11 17 18 -7 21 -26 21
-37 0z"/>
<path d="M3860 2983 c1 -11 60 -79 60 -69 0 5 -13 24 -30 43 -16 18 -30 30
-30 26z"/>
<path d="M3420 2977 c0 -2 15 -16 33 -33 l32 -29 -29 33 c-28 30 -36 37 -36
29z"/>
<path d="M4674 2935 c-7 -18 -178 -110 -222 -120 -32 -7 -49 -21 -38 -32 3 -4
23 -1 43 5 28 9 39 9 44 0 5 -8 18 -3 39 15 17 15 39 27 47 27 9 0 14 3 11 6
-4 3 -23 1 -44 -5 -61 -17 -23 12 71 53 44 19 81 42 83 50 4 20 -27 21 -34 1z"/>
<path d="M4541 2889 c-13 -5 -33 -9 -45 -8 -45 4 -72 -2 -96 -21 l-25 -20 64
4 c35 2 66 8 70 13 3 6 23 16 44 22 37 13 48 22 25 20 -7 0 -24 -5 -37 -10z"/>
<path d="M4704 2883 c-3 -11 -32 -33 -67 -51 -34 -18 -78 -41 -97 -52 -19 -11
-44 -20 -55 -20 -25 -1 -60 -26 -47 -34 5 -3 25 -1 43 6 25 9 34 9 37 0 6 -18
22 -14 22 6 0 13 2 14 9 3 7 -11 10 -11 17 2 5 9 25 23 44 32 l35 16 -37 -6
c-21 -3 -38 -4 -38 -1 0 7 145 76 160 76 15 0 9 32 -8 38 -7 2 -16 -5 -18 -15z"/>
<path d="M4723 2820 c-10 -12 -44 -35 -75 -51 -31 -16 -59 -33 -62 -38 -4 -5
-37 -20 -74 -32 -48 -17 -61 -24 -44 -27 13 -2 37 1 54 7 17 6 40 8 52 5 14
-3 28 1 35 10 8 9 19 16 27 16 7 0 16 5 20 12 5 8 -2 9 -25 5 -48 -10 -20 12
61 48 64 28 81 46 58 60 -5 3 -17 -4 -27 -15z"/>
<path d="M4750 2766 c0 -19 -165 -113 -210 -121 -39 -7 -78 -35 -48 -35 8 0
31 7 51 15 55 23 169 44 156 29 -14 -17 -105 -59 -156 -73 -24 -7 -43 -16 -43
-21 0 -12 39 -4 92 19 24 10 58 22 76 26 18 3 29 11 26 16 -3 6 3 13 15 16 12
3 21 9 21 13 0 4 18 15 40 25 38 17 49 33 33 49 -4 3 -19 -7 -34 -24 -27 -29
-49 -39 -49 -21 0 9 -59 -1 -80 -14 -7 -5 -11 -4 -7 1 3 5 36 25 74 44 70 36
85 48 77 62 -9 14 -34 9 -34 -6z"/>
<path d="M4062 2683 c2 -10 10 -18 18 -18 8 0 16 8 18 18 2 12 -3 17 -18 17
-15 0 -20 -5 -18 -17z"/>
<path d="M4793 2653 c-11 -28 -36 -43 -51 -31 -9 8 -11 7 -7 -3 6 -16 -93 -70
-162 -88 -24 -7 -43 -16 -43 -21 0 -6 3 -10 8 -10 15 0 196 69 182 70 -13 0
-13 1 0 10 21 14 27 12 32 -8 6 -23 -80 -78 -149 -95 -26 -7 -48 -18 -51 -25
-3 -9 7 -8 38 4 34 14 46 15 62 5 24 -15 44 -5 28 14 -9 10 -3 16 24 26 20 7
36 17 36 21 0 7 77 52 92 53 4 0 12 5 19 12 10 10 9 14 -3 18 -10 4 -26 -4
-43 -20 -25 -26 -27 -26 -40 -9 -12 17 -12 21 3 32 9 7 27 15 40 19 13 3 22
13 22 24 0 24 -28 25 -37 2z"/>
<path d="M4401 2640 c14 -31 19 -36 19 -24 0 6 -7 19 -16 30 -14 18 -14 18 -3
-6z"/>
<path d="M4360 2616 c0 -2 8 -10 18 -17 15 -13 16 -12 3 4 -13 16 -21 21 -21
13z"/>
<path d="M4356 2583 c25 -44 40 -48 53 -11 11 31 11 31 -10 12 -20 -18 -21
-18 -41 6 l-20 25 18 -32z"/>
<path d="M3690 2560 c0 -5 7 -10 16 -10 8 0 12 5 9 10 -3 6 -10 10 -16 10 -5
0 -9 -4 -9 -10z"/>
<path d="M4833 2535 c-22 -26 -43 -33 -43 -15 0 20 -19 10 -22 -12 -2 -12 -18
-30 -38 -41 -49 -27 -52 -31 -30 -45 16 -10 18 -9 14 3 -4 9 1 17 12 21 11 4
28 15 40 26 21 18 21 18 22 -11 0 -24 -6 -34 -35 -51 -45 -26 -38 -35 11 -15
33 14 37 14 42 0 8 -20 34 -19 34 1 0 9 -9 18 -20 21 -31 8 -24 17 27 33 29
10 49 23 51 33 5 25 -17 21 -46 -10 -24 -26 -25 -26 -38 -8 -20 27 -18 31 27
49 22 9 39 22 37 28 -7 21 -22 18 -45 -7z"/>
<path d="M3682 2534 c10 -10 20 -16 22 -13 3 3 -5 11 -17 18 -21 13 -21 12 -5
-5z"/>
<path d="M6480 2480 c0 -5 24 -10 53 -10 37 0 48 3 37 10 -20 13 -90 13 -90 0z"/>
<path d="M4870 2410 c-18 -22 -39 -40 -45 -40 -18 0 -75 -30 -75 -40 0 -5 13
-1 30 8 28 16 30 16 43 -2 9 -12 19 -16 27 -11 8 5 11 4 6 -3 -3 -6 -19 -13
-35 -17 -16 -3 -32 -13 -35 -21 -4 -11 -2 -12 14 -4 26 14 40 13 40 -5 0 -8 6
-15 13 -15 6 -1 -1 -7 -18 -14 -16 -7 -35 -11 -41 -9 -7 2 -35 -7 -65 -21 -29
-14 -54 -26 -56 -26 -2 0 -3 9 -3 20 0 13 9 22 25 26 14 3 25 10 25 15 0 5 15
18 33 29 17 11 28 20 24 20 -7 0 -127 -58 -135 -65 -2 -2 2 -14 9 -27 7 -12
12 -29 11 -36 -2 -6 2 -20 7 -30 10 -16 10 -16 11 0 0 9 14 25 30 35 17 9 30
21 30 24 0 9 37 23 65 25 11 0 27 3 35 5 8 2 15 -2 15 -9 0 -8 -31 -27 -68
-43 -74 -31 -123 -64 -109 -73 13 -8 92 25 92 39 0 6 17 19 37 29 34 16 36 16
22 0 -13 -16 -12 -16 9 -5 12 7 20 16 17 20 -2 5 9 14 25 21 24 10 29 17 24
36 -5 19 0 26 30 41 35 16 46 36 27 48 -5 3 -16 -3 -23 -12 -7 -10 -27 -29
-43 -43 -17 -14 -25 -18 -18 -11 8 9 9 20 3 32 -10 17 9 36 53 52 20 7 22 23
5 33 -6 4 -19 -4 -30 -19 -23 -31 -43 -35 -52 -10 -7 18 31 56 46 47 12 -8 22
26 11 37 -6 6 -22 -6 -43 -31z"/>
<path d="M4601 2417 c-14 -6 -26 -18 -29 -25 -3 -9 9 -7 37 7 23 12 41 24 41
26 0 9 -25 5 -49 -8z"/>
<path d="M6480 2423 c0 -5 28 -9 63 -9 43 -1 54 1 37 6 -33 10 -100 12 -100 3z"/>
<path d="M6426 2391 c10 -37 33 -88 33 -71 0 8 -9 33 -20 55 -10 22 -16 29
-13 16z"/>
<path d="M3331 2374 c-29 -37 -26 -57 14 -93 19 -17 35 -32 35 -34 0 -2 -18 0
-39 6 -46 12 -71 -1 -71 -38 0 -39 24 -49 75 -33 25 9 45 12 45 9 0 -4 -11
-22 -24 -40 -29 -40 -25 -57 17 -67 37 -8 57 14 57 63 0 45 16 42 24 -6 8 -50
28 -68 61 -53 32 15 32 37 -1 79 -25 33 -26 59 -2 35 7 -7 26 -12 44 -12 27 0
32 4 36 29 2 17 0 37 -4 45 -10 18 -50 21 -80 5 -31 -17 -33 -3 -3 23 36 32
41 72 9 92 -44 30 -61 21 -81 -40 -16 -51 -18 -54 -27 -33 -40 99 -50 107 -85
63z m189 1 c14 -17 0 -21 -17 -4 -8 8 -13 7 -18 -2 -5 -8 -4 -10 3 -5 8 5 10
1 5 -9 -5 -13 -7 -14 -14 -3 -22 35 14 55 41 23z m-50 -124 c7 -15 6 -24 -6
-36 -9 -9 -21 -14 -27 -12 -18 6 -31 33 -24 51 9 22 44 20 57 -3z"/>
<path d="M3431 2250 c-16 -9 -6 -30 15 -30 15 0 20 25 6 34 -4 2 -14 1 -21 -4z"/>
<path d="M4645 2373 c-25 -7 -72 -43 -55 -43 19 0 80 31 80 41 0 5 -1 8 -2 8
-2 -1 -12 -4 -23 -6z"/>
<path d="M6490 2370 c-11 -7 -4 -10 27 -10 23 0 45 5 48 10 8 13 -55 13 -75 0z"/>
<path d="M4646 2306 c-42 -20 -45 -24 -25 -29 23 -6 79 25 79 44 0 11 5 12
-54 -15z"/>
<path d="M4078 2257 c-6 -12 -17 -27 -23 -34 -7 -7 -16 -28 -19 -48 -8 -41 5
-65 35 -65 25 0 33 17 12 23 -10 3 -5 5 12 4 24 -2 30 3 35 23 6 31 36 38 45
10 7 -23 11 -24 54 -9 28 10 32 15 29 42 -2 19 -11 36 -23 42 -11 5 -27 14
-35 20 -8 5 -36 11 -63 12 -39 1 -49 -2 -59 -20z m146 -17 c33 -12 36 -55 5
-63 -18 -5 -20 -2 -17 17 4 19 1 22 -20 18 -22 -4 -23 -3 -13 17 14 24 12 24
45 11z m-110 -28 c2 -4 -9 -14 -25 -21 -16 -7 -27 -17 -24 -21 3 -5 1 -11 -5
-15 -6 -4 -8 -11 -5 -16 4 -5 1 -9 -5 -9 -17 0 -2 62 18 78 18 14 38 16 46 4z"/>
<path d="M4932 2240 c-18 -22 -40 -40 -48 -40 -16 0 -18 -18 -5 -39 5 -8 17
-11 32 -7 24 7 24 7 -1 -8 -29 -18 -44 -20 -35 -6 10 16 -1 12 -82 -25 -53
-24 -79 -32 -84 -24 -5 8 -8 8 -13 0 -4 -6 -17 -11 -29 -12 -20 0 -20 -1 -3
-8 15 -6 19 -20 21 -79 2 -40 2 -72 1 -72 -2 0 -111 -33 -242 -73 -132 -41
-341 -105 -466 -143 -125 -38 -228 -71 -228 -74 1 -3 30 -23 65 -44 35 -22 61
-44 59 -48 -3 -5 -2 -7 3 -6 18 5 52 -14 68 -38 10 -16 22 -23 31 -20 10 4 12
2 8 -5 -4 -7 -1 -10 7 -7 23 9 48 -10 44 -32 -2 -12 0 -18 6 -14 6 3 19 -2 30
-12 10 -9 19 -13 19 -8 0 5 5 1 11 -10 9 -14 8 -21 -2 -28 -10 -7 -8 -8 7 -3
13 3 28 0 37 -10 9 -8 20 -15 25 -15 6 0 12 -6 15 -12 4 -10 7 -10 17 -1 11
10 9 14 -11 22 -13 5 -17 10 -9 10 8 0 24 -6 34 -14 16 -12 17 -17 6 -30 -7
-8 -10 -18 -6 -22 3 -3 6 -2 6 4 0 6 6 13 14 16 7 3 13 0 13 -6 -1 -31 4 -48
12 -43 4 3 16 -3 26 -14 20 -22 8 -28 -15 -7 -12 10 -12 9 -1 -5 7 -10 18 -18
24 -18 6 0 19 -8 29 -17 16 -14 23 -15 39 -5 15 10 19 10 19 -2 0 -8 8 -17 17
-20 14 -6 15 -9 3 -16 -11 -7 -11 -11 -1 -24 8 -9 19 -16 26 -16 7 0 16 -7 19
-16 4 -9 9 -14 12 -11 8 8 64 -55 58 -65 -3 -4 -4 -8 -2 -9 2 0 23 -3 48 -5
51 -6 70 -18 70 -45 0 -11 5 -19 11 -19 5 0 7 4 4 10 -19 31 40 -3 99 -58 18
-16 19 -16 13 6 -6 26 5 29 24 6 12 -14 14 -14 19 -1 4 13 15 10 60 -19 l55
-35 -88 2 c-48 1 -90 -1 -94 -5 -3 -3 32 -6 79 -6 47 0 121 -2 164 -5 l79 -4
-59 10 c-32 6 -63 15 -70 20 -6 5 -47 33 -91 61 -191 121 -231 149 -249 169
-18 22 -18 22 10 15 16 -4 44 -10 62 -13 17 -3 32 -9 32 -14 0 -5 11 -9 25 -9
14 0 25 -4 25 -10 0 -5 7 -7 15 -4 10 4 15 0 16 -12 0 -12 3 -14 6 -6 4 9 13
6 37 -12 34 -26 100 -48 112 -38 4 4 4 1 0 -6 -11 -19 16 -24 75 -14 38 7 71
6 119 -3 113 -23 183 -28 174 -14 -5 9 -2 10 10 6 10 -4 22 -7 27 -7 6 0 8 -4
5 -8 -3 -5 12 -9 32 -10 20 -1 91 -11 157 -22 129 -21 255 -26 255 -10 0 6
-17 11 -37 11 -21 1 -63 2 -93 3 -40 1 -73 11 -122 35 -67 32 -88 34 -88 5 0
-17 -17 -14 -74 12 -43 20 -156 91 -182 115 -11 10 -25 19 -32 19 -14 0 40
-59 92 -99 42 -34 41 -34 -44 -31 -47 2 -115 26 -140 51 -53 51 -104 87 -116
82 -12 -4 -15 1 -14 22 1 8 -33 68 -47 82 -6 7 -16 13 -22 13 -6 0 -8 6 -5 14
4 10 0 13 -14 10 -27 -8 -24 -34 8 -69 32 -34 64 -94 56 -103 -3 -3 -6 0 -6 6
0 6 -25 40 -55 76 -30 35 -60 77 -66 93 l-11 28 -9 -23 c-7 -18 -4 -31 11 -52
41 -58 9 -89 -42 -40 -17 17 -34 30 -39 30 -4 0 -10 14 -14 31 -5 22 -10 28
-18 20 -6 -6 -16 -7 -28 -1 -14 8 -17 19 -12 60 5 49 -9 71 -20 30 -3 -13 -10
-18 -21 -14 -10 4 -16 1 -16 -9 0 -9 -5 -19 -10 -22 -16 -10 -50 5 -50 20 0
14 -15 20 -65 27 -28 4 -32 51 -6 77 22 22 19 46 -6 55 -8 4 -13 13 -10 21 4
9 1 12 -9 8 -7 -3 -14 -10 -14 -15 0 -5 -9 -23 -21 -39 -17 -25 -18 -29 -4
-29 14 0 14 -2 -1 -25 -9 -14 -21 -25 -28 -25 -7 0 -6 4 2 9 11 7 10 9 -3 15
-9 3 -13 10 -10 16 4 6 -1 7 -12 3 -16 -6 -16 -5 -4 11 13 15 12 17 -12 12
-16 -3 -27 1 -31 10 -4 11 -10 12 -25 5 -13 -8 -22 -7 -29 2 -11 14 2 57 18
57 5 0 10 7 10 15 0 8 4 15 10 15 5 0 16 16 24 35 15 36 67 107 99 137 11 9
17 21 14 25 -6 10 19 34 27 26 3 -4 6 -1 6 6 0 7 5 9 10 6 6 -3 13 1 16 9 3 8
16 18 27 22 12 3 29 12 37 19 24 20 140 57 161 52 10 -3 19 -2 19 1 0 12 69
29 78 20 5 -5 27 -3 53 6 53 19 63 13 17 -10 -65 -33 -56 -67 11 -40 49 19 54
13 9 -10 -49 -25 -64 -54 -29 -54 26 0 85 26 74 33 -5 3 -15 2 -23 -4 -8 -5
-22 -9 -30 -9 -25 0 46 40 78 44 16 3 43 11 60 20 50 26 51 18 2 -10 -25 -14
-54 -34 -65 -44 -11 -10 -34 -25 -51 -33 -17 -9 -34 -24 -38 -33 -6 -14 0 -16
40 -11 l46 5 -31 -19 c-42 -25 -42 -53 -1 -47 l30 5 -22 -24 c-18 -19 -20 -26
-9 -32 7 -5 23 -6 35 -4 21 5 21 5 -1 -11 -32 -24 -29 -46 5 -46 23 -1 24 -2
10 -11 -10 -5 -18 -16 -18 -23 0 -17 27 -29 43 -19 7 3 4 -3 -5 -14 -30 -33
-22 -48 22 -44 11 1 11 -1 -2 -9 -32 -20 -21 -57 15 -51 5 1 6 -3 2 -9 -3 -6
-10 -8 -14 -6 -20 13 5 -63 29 -86 16 -14 25 -29 22 -32 -3 -4 -7 -17 -8 -29
-2 -12 0 -17 2 -10 9 22 31 3 26 -22 -3 -18 1 -27 14 -32 11 -5 19 -17 19 -28
0 -17 7 -20 51 -20 59 1 137 36 211 97 51 43 59 61 31 66 -11 2 -18 -3 -18
-12 0 -21 -21 -31 -31 -15 -6 10 0 21 20 39 21 18 27 30 21 40 -7 11 -21 1
-64 -43 -51 -51 -132 -105 -142 -94 -3 2 9 10 26 17 16 7 30 19 30 26 0 19 -3
18 -53 -16 -25 -16 -58 -30 -73 -30 l-29 1 24 19 c13 11 32 20 42 20 11 0 42
12 70 26 28 14 57 23 65 20 9 -3 14 1 14 14 0 10 16 32 35 47 19 15 35 34 35
41 0 18 -30 14 -37 -5 -7 -19 -32 -42 -45 -43 -5 0 -8 7 -8 16 0 18 44 64 61
64 6 0 9 8 7 18 -5 25 -27 21 -41 -8 -14 -28 -47 -40 -47 -16 0 8 16 28 35 43
34 27 46 53 24 53 -6 0 -24 -14 -41 -32 -28 -30 -31 -31 -40 -13 -11 19 -5 28
53 67 19 13 21 19 12 29 -10 10 -18 5 -43 -21 -24 -25 -34 -30 -43 -21 -15 15
1 42 36 59 15 7 27 20 27 28 0 24 -22 15 -55 -23 -18 -21 -32 -30 -32 -22 0 8
-2 20 -4 28 -2 8 12 25 34 39 20 14 37 31 37 39 0 23 -22 14 -50 -19 -27 -32
-27 -32 -39 -10 -10 19 -7 24 29 48 22 15 40 31 40 35 0 19 -32 8 -56 -18 -16
-18 -27 -24 -30 -16 -3 7 -13 9 -22 6 -26 -10 37 47 64 58 25 9 31 24 14 34
-6 4 -24 -8 -41 -26 -25 -26 -32 -30 -40 -18 -15 24 -10 35 26 55 19 10 35 24
35 30 0 25 -16 22 -43 -8 -28 -30 -30 -31 -43 -13 -17 23 -13 28 31 49 19 9
35 23 35 31 0 24 -26 17 -44 -10 -18 -28 -41 -33 -50 -10 -6 17 17 43 51 56
25 9 30 24 12 35 -6 4 -22 -6 -35 -23 -17 -22 -31 -30 -56 -30 -18 0 -26 2
-18 4 9 2 20 14 25 26 6 12 21 27 33 33 38 19 48 32 29 40 -12 4 -24 -2 -38
-20 -25 -32 -52 -35 -47 -4 2 12 16 28 35 37 18 9 33 24 33 34 0 25 -12 21
-43 -14 -14 -17 -31 -28 -37 -24 -20 12 -9 36 25 56 19 12 35 27 35 35 0 25
-24 15 -53 -21 -34 -43 -44 -44 -44 -6 0 23 8 33 39 51 39 22 46 34 27 46 -6
3 -23 -9 -38 -27 l-28 -33 -13 23 c-11 21 -10 26 11 42 13 9 26 16 30 13 4 -2
12 3 19 11 10 12 9 16 -4 21 -10 4 -25 -5 -40 -23 -22 -24 -27 -26 -36 -13
-16 25 -12 36 25 53 19 9 35 23 35 32 0 26 -24 16 -58 -25z m-77 -120 c-4 -6
3 -9 16 -7 38 4 32 -21 -8 -33 -21 -7 -61 -25 -90 -41 -43 -24 -52 -26 -57
-13 -8 22 1 34 28 34 22 0 71 29 51 30 -5 1 6 9 25 20 41 23 43 23 35 10z m85
-25 c0 -2 -10 -10 -22 -16 -21 -11 -22 -11 -9 4 13 16 31 23 31 12z m-230 -25
c0 -5 -4 -10 -10 -10 -5 0 -10 5 -10 10 0 6 5 10 10 10 6 0 10 -4 10 -10z
m160 -15 c-8 -9 -9 -15 -2 -15 6 0 14 5 17 10 9 15 25 12 25 -5 0 -8 -5 -15
-11 -15 -6 0 -41 -15 -79 -34 -38 -18 -73 -30 -80 -26 -15 9 6 26 43 35 30 8
46 25 25 26 -7 0 5 9 27 19 50 23 50 23 35 5z m-161 -47 c-2 -13 0 -29 4 -35
6 -9 3 -11 -8 -7 -9 4 -14 13 -11 21 3 8 6 21 6 29 0 8 3 14 6 14 3 0 4 -10 3
-22z m231 17 c0 -8 -85 -53 -115 -60 -45 -10 -20 9 50 39 68 29 65 28 65 21z
m25 -15 c-3 -5 -1 -10 6 -10 7 0 10 -3 6 -6 -9 -9 -28 6 -22 17 4 5 8 9 11 9
3 0 2 -4 -1 -10z m5 -35 c0 -3 -12 -10 -27 -16 -26 -10 -26 -12 -8 -18 17 -7
16 -9 -10 -16 -40 -11 -105 -13 -99 -3 3 4 11 8 19 8 7 0 37 11 67 25 59 27
58 27 58 20z m-5 -70 c-11 -8 -28 -21 -37 -30 -10 -11 -24 -14 -37 -10 -11 3
-30 1 -41 -5 -12 -7 -24 -10 -26 -7 -6 6 82 48 121 57 42 11 42 11 20 -5z m90
-84 c-19 -18 -101 -58 -130 -64 -16 -3 -39 -9 -50 -13 -38 -13 6 23 49 40 36
15 37 15 25 0 -8 -10 10 -5 46 14 64 33 74 37 60 23z m12 -37 c-3 -3 -12 -4
-19 -1 -8 3 -5 6 6 6 11 1 17 -2 13 -5z m13 -18 c0 -13 -113 -64 -155 -70
l-50 -6 35 19 c39 22 54 26 45 11 -10 -16 6 -11 65 20 60 32 60 32 60 26z m-5
-76 c-3 -5 -12 -10 -18 -10 -7 0 -6 4 3 10 19 12 23 12 15 0z m-106 -29 c-31
-23 -75 -38 -64 -21 7 12 61 39 79 40 5 0 -2 -8 -15 -19z m71 14 c0 -8 -62
-37 -67 -31 -4 3 9 12 28 20 39 18 39 17 39 11z m77 -29 c-18 -14 -18 -14 0
-19 10 -2 4 -4 -13 -4 -17 0 -42 -7 -55 -17 -13 -9 -32 -16 -44 -16 -11 0 12
15 50 34 77 38 89 42 62 22z m-146 -46 c-13 -11 -31 -20 -40 -20 -9 1 -1 9 19
20 45 24 51 24 21 0z m179 -27 c0 -3 -6 -3 -12 0 -7 2 -35 -7 -61 -20 -27 -13
-51 -22 -54 -19 -8 8 100 54 115 48 6 -2 12 -6 12 -9z m-160 -17 c0 -10 -32
-36 -43 -36 -7 1 -1 10 12 20 23 20 31 24 31 16z m105 -26 c3 -5 -7 -16 -22
-24 -42 -23 -18 -19 27 4 22 11 45 20 52 20 7 -1 -14 -14 -47 -30 -33 -16 -62
-26 -65 -22 -6 9 -29 8 -53 -3 -10 -4 -20 -5 -23 -3 -4 5 104 67 118 68 4 0 9
-4 13 -10z m1 -66 c-3 -22 -56 -54 -91 -54 -29 1 -29 1 -10 16 15 12 91 52
102 54 1 0 0 -7 -1 -16z m74 1 c0 -2 -22 -16 -50 -30 -27 -14 -50 -22 -50 -18
0 5 22 18 48 30 57 26 52 24 52 18z m-52 -57 c-4 -19 -69 -57 -98 -58 -24 0
-24 0 -5 20 15 15 64 38 103 49 1 1 1 -5 0 -11z m92 8 c0 -8 -112 -67 -117
-62 -3 2 21 18 53 35 65 33 64 33 64 27z m10 -66 c-14 -11 -29 -20 -35 -20 -5
0 4 9 20 20 38 25 48 25 15 0z m-115 -25 c-16 -13 -43 -24 -59 -25 -38 0 -24
16 30 35 56 20 63 18 29 -10z m-85 1 c0 -11 -19 -15 -25 -6 -3 5 1 10 9 10 9
0 16 -2 16 -4z m136 -11 c-11 -8 -27 -15 -35 -15 -10 1 -7 6 9 15 33 19 50 18
26 0z m94 -16 c-36 -24 -92 -50 -102 -47 -6 2 10 12 35 22 26 10 47 22 47 27
0 5 8 9 18 9 15 0 15 -2 2 -11z m-90 -3 c0 -2 -18 -15 -40 -30 -40 -26 -70
-34 -70 -17 0 14 19 24 65 37 22 6 41 12 43 13 1 0 2 -1 2 -3z m139 -95 c-13
-16 -30 -30 -38 -30 -8 -1 -19 -7 -25 -15 -6 -8 -41 -17 -81 -21 l-70 -7 19
21 c11 12 27 21 37 21 9 0 50 18 91 39 80 43 104 40 67 -8z m-939 -1 c0 -5 -2
-10 -4 -10 -3 0 -8 5 -11 10 -3 6 -1 10 4 10 6 0 11 -4 11 -10z m67 4 c-3 -3
-12 -4 -19 -1 -8 3 -5 6 6 6 11 1 17 -2 13 -5z"/>
<path d="M4895 1930 c-3 -6 1 -7 9 -4 18 7 21 14 7 14 -6 0 -13 -4 -16 -10z"/>
<path d="M4480 2250 c-9 -6 -10 -10 -3 -10 6 0 15 5 18 10 8 12 4 12 -15 0z"/>
<path d="M4430 2243 c0 -5 14 -17 30 -26 17 -10 30 -16 30 -13 0 2 -13 14 -30
26 -16 12 -30 18 -30 13z"/>
<path d="M6630 2230 c0 -5 5 -10 10 -10 6 0 10 5 10 10 0 6 -4 10 -10 10 -5 0
-10 -4 -10 -10z"/>
<path d="M6490 2220 c0 -5 5 -10 11 -10 5 0 7 5 4 10 -3 6 -8 10 -11 10 -2 0
-4 -4 -4 -10z"/>
<path d="M4152 2142 c-30 -5 -39 -29 -19 -50 13 -13 21 -13 42 -4 43 20 25 62
-23 54z"/>
<path d="M4646 2123 c9 -38 14 -42 14 -10 0 14 -5 29 -10 32 -7 4 -8 -3 -4
-22z"/>
<path d="M3740 2100 c0 -5 5 -10 10 -10 6 0 10 5 10 10 0 6 -4 10 -10 10 -5 0
-10 -4 -10 -10z"/>
<path d="M4100 2091 c0 -6 4 -13 10 -16 6 -3 7 1 4 9 -7 18 -14 21 -14 7z"/>
<path d="M3251 1997 c-12 -12 -15 -47 -5 -47 6 0 44 40 44 45 0 10 -30 11 -39
2z"/>
<path d="M3310 1993 c0 -17 19 -35 29 -29 8 5 7 11 -3 22 -16 15 -26 18 -26 7z"/>
<path d="M3850 1969 c0 -5 5 -7 10 -4 6 3 10 1 10 -4 0 -6 5 -11 11 -11 8 0 8
5 -1 15 -14 17 -30 20 -30 4z"/>
<path d="M3890 1976 c0 -2 8 -10 18 -17 15 -13 16 -12 3 4 -13 16 -21 21 -21
13z"/>
<path d="M3615 1918 l5 -53 -25 48 c-14 26 -28 47 -30 47 -9 0 6 -53 21 -77
21 -33 1 -37 -61 -14 -30 11 -55 17 -55 12 0 -10 72 -41 95 -41 8 0 15 -4 15
-10 0 -5 -11 -10 -24 -10 -40 0 -86 -12 -86 -22 0 -10 71 -4 109 9 9 3 1 -8
-18 -24 -26 -22 -31 -32 -21 -38 9 -6 23 2 42 24 l29 32 -7 -28 c-3 -15 -7
-33 -9 -40 -6 -18 16 -28 26 -12 6 8 8 29 5 47 -6 39 10 34 19 -7 7 -34 40
-68 50 -52 3 6 -8 32 -26 58 l-32 48 34 -32 c19 -18 43 -33 53 -33 23 0 12 15
-36 51 l-41 29 51 0 c28 0 54 5 57 10 4 6 -13 10 -42 11 l-48 1 32 14 c36 15
52 34 29 34 -20 0 -76 -33 -76 -45 0 -5 -5 -3 -10 5 -5 8 -10 36 -10 63 0 26
-4 47 -10 47 -5 0 -7 -22 -5 -52z"/>
<path d="M3256 1941 c-18 -20 -21 -51 -5 -51 6 0 18 -7 26 -16 14 -14 17 -14
32 1 14 14 14 17 1 25 -8 5 -18 6 -22 4 -15 -9 -8 9 7 20 13 10 13 12 -4 23
-15 10 -22 9 -35 -6z"/>
<path d="M3673 1937 c-20 -22 -40 -67 -29 -67 9 0 59 80 54 85 -2 3 -14 -5
-25 -18z"/>
<path d="M3330 1940 c0 -5 7 -10 15 -10 8 0 15 5 15 10 0 6 -7 10 -15 10 -8 0
-15 -4 -15 -10z"/>
<path d="M3510 1932 c0 -12 61 -72 73 -72 6 0 -7 18 -28 40 -41 42 -45 45 -45
32z"/>
<path d="M3840 1925 c0 -21 24 -35 59 -35 41 0 37 9 -5 12 -16 1 -34 9 -41 18
-7 8 -13 10 -13 5z"/>
<path d="M3350 1905 c0 -8 7 -15 15 -15 8 0 15 7 15 15 0 8 -7 15 -15 15 -8 0
-15 -7 -15 -15z"/>
<path d="M3977 1894 c-8 -8 1 -24 14 -24 5 0 9 7 9 15 0 15 -12 20 -23 9z"/>
<path d="M3365 1869 c-4 -6 -2 -15 5 -19 7 -4 10 -12 6 -18 -7 -12 22 -25 36
-16 7 5 6 11 -3 18 -8 6 -14 17 -14 25 0 18 -21 26 -30 10z"/>
<path d="M3845 1859 c-4 -6 4 -8 22 -4 l28 5 -25 -12 c-14 -6 -27 -13 -29 -15
-8 -5 30 -53 42 -53 8 0 24 11 36 24 l22 24 -48 -3 c-48 -3 -48 -3 -18 11 17
7 35 13 42 14 6 0 14 4 17 8 2 4 -15 9 -39 10 -24 1 -47 -3 -50 -9z"/>
<path d="M4057 1849 c7 -7 15 -10 18 -7 3 3 -2 9 -12 12 -14 6 -15 5 -6 -5z"/>
<path d="M3953 1806 c-19 -40 -12 -66 17 -66 17 0 20 6 19 43 -1 26 -3 33 -6
18 -4 -18 -7 -21 -13 -11 -5 8 -4 22 1 32 5 10 7 18 4 18 -3 0 -13 -15 -22
-34z m17 -51 c0 -5 -5 -3 -10 5 -5 8 -10 20 -10 25 0 6 5 3 10 -5 5 -8 10 -19
10 -25z"/>
<path d="M4090 1836 c0 -3 9 -10 20 -16 11 -6 20 -8 20 -6 0 3 -9 10 -20 16
-11 6 -20 8 -20 6z"/>
<path d="M4023 1793 c6 -27 -9 -42 -16 -16 -3 13 -5 12 -6 -5 -1 -26 16 -26
33 1 8 12 7 20 -3 29 -11 11 -13 9 -8 -9z"/>
<path d="M6175 1534 c-27 -13 -39 -21 -25 -18 29 7 100 43 85 43 -5 0 -32 -12
-60 -25z"/>
<path d="M6633 1553 c9 -2 23 -2 30 0 6 3 -1 5 -18 5 -16 0 -22 -2 -12 -5z"/>
<path d="M6700 1514 c0 -26 -1 -27 -46 -20 -28 3 -43 2 -39 -4 3 -6 31 -10 61
-10 55 0 62 6 48 44 -10 25 -24 19 -24 -10z"/>
<path d="M3903 1505 c0 -8 4 -15 9 -15 4 0 8 4 8 9 0 6 -4 12 -8 15 -5 3 -9
-1 -9 -9z"/>
<path d="M6100 1500 c-9 -6 -10 -10 -3 -10 6 0 15 5 18 10 8 12 4 12 -15 0z"/>
<path d="M6040 1475 c-14 -8 -20 -14 -15 -14 6 0 21 6 35 14 14 8 21 14 15 14
-5 0 -21 -6 -35 -14z"/>
<path d="M6613 1463 c9 -2 25 -2 35 0 9 3 1 5 -18 5 -19 0 -27 -2 -17 -5z"/>
<path d="M5960 1440 c-19 -11 -30 -19 -25 -19 6 0 26 8 45 19 19 11 31 19 25
19 -5 0 -26 -8 -45 -19z"/>
<path d="M5880 1405 c-14 -8 -20 -14 -15 -14 6 0 21 6 35 14 14 8 21 14 15 14
-5 0 -21 -6 -35 -14z"/>
<path d="M5795 1370 c-22 -10 -110 -49 -195 -85 -85 -37 -159 -71 -165 -77 -6
-6 0 -6 16 1 15 5 44 7 66 4 37 -5 42 -2 68 31 19 25 38 37 63 42 21 3 53 17
72 30 20 13 58 35 85 48 28 14 46 25 40 25 -5 0 -28 -9 -50 -19z"/>
<path d="M6870 1233 c0 -14 1 -24 3 -22 1 2 11 14 21 27 19 22 19 22 -2 22
-17 0 -22 -6 -22 -27z"/>
<path d="M6857 1183 c-4 -3 -7 -11 -7 -17 0 -6 5 -5 12 2 6 6 9 14 7 17 -3 3
-9 2 -12 -2z"/>
<path d="M4403 1066 c-13 -15 1 -36 24 -36 16 0 17 12 1 32 -11 14 -15 14 -25
4z"/>
<path d="M6681 1017 c-14 -37 -14 -37 9 -37 21 0 24 12 10 45 -7 19 -9 18 -19
-8z"/>
<path d="M4655 920 c3 -5 8 -10 11 -10 2 0 4 5 4 10 0 6 -5 10 -11 10 -5 0 -7
-4 -4 -10z"/>
<path d="M4810 880 c0 -5 5 -10 11 -10 5 0 7 5 4 10 -3 6 -8 10 -11 10 -2 0
-4 -4 -4 -10z"/>
<path d="M4473 863 c9 -2 23 -2 30 0 6 3 -1 5 -18 5 -16 0 -22 -2 -12 -5z"/>
<path d="M4588 853 c23 -2 59 -2 80 0 20 2 1 4 -43 4 -44 0 -61 -2 -37 -4z"/>
<path d="M3847 683 c-4 -3 -6 -36 -6 -72 1 -36 4 -54 6 -38 5 34 18 34 39 2
20 -30 31 -26 14 5 -9 18 -8 25 6 41 15 17 16 20 0 44 -16 24 -45 33 -59 18z
m41 -15 c17 -17 15 -45 -4 -52 -28 -11 -34 -7 -34 22 0 41 15 53 38 30z"/>
<path d="M4682 620 l1 -75 7 65 c4 36 3 69 -2 75 -4 5 -7 -25 -6 -65z"/>
<path d="M4778 651 c-13 -22 -26 -41 -30 -41 -4 0 -15 11 -24 25 -9 14 -19 23
-21 21 -6 -6 36 -66 46 -66 4 0 16 16 27 35 10 19 22 35 26 35 5 0 8 -25 8
-55 0 -30 3 -55 8 -55 9 0 0 126 -10 135 -3 4 -17 -12 -30 -34z"/>
<path d="M5003 620 c0 -41 2 -58 4 -37 2 20 2 54 0 75 -2 20 -4 3 -4 -38z"/>
<path d="M5247 683 c-4 -3 -6 -36 -6 -72 1 -46 3 -57 8 -36 5 23 13 31 36 36
l30 7 -33 1 c-30 1 -33 4 -30 29 3 23 9 28 43 33 l40 6 -41 2 c-22 0 -44 -2
-47 -6z"/>
<path d="M5537 683 c-4 -3 -6 -36 -5 -72 0 -36 3 -52 5 -34 3 26 9 33 31 36
l27 4 -27 2 c-24 1 -28 5 -28 30 0 28 3 30 43 34 l42 4 -41 1 c-22 1 -44 -1
-47 -5z"/>
<path d="M6253 683 c-16 -6 -18 -133 -3 -133 6 0 10 11 10 25 0 14 5 25 10 25
6 0 16 -11 22 -25 6 -14 16 -25 21 -25 5 0 2 12 -8 26 -16 25 -16 28 -1 36 22
12 20 55 -3 68 -21 11 -29 11 -48 3z m57 -38 c0 -13 -28 -35 -44 -35 -8 0 -8
55 0 63 10 10 44 -12 44 -28z"/>
<path d="M6393 680 c-42 -17 -58 -84 -27 -115 11 -10 29 -15 53 -13 33 3 36 6
39 36 3 27 0 32 -17 32 -12 0 -21 -4 -21 -10 0 -5 6 -9 13 -7 6 1 12 -7 12
-18 0 -24 -48 -34 -71 -14 -35 29 -2 99 47 99 16 0 29 5 29 10 0 12 -27 12
-57 0z"/>
<path d="M6516 624 c-15 -37 -25 -69 -22 -72 3 -2 10 7 15 22 8 20 17 26 41
26 23 0 31 -5 36 -25 3 -14 10 -25 15 -25 5 0 9 2 9 4 0 8 -59 136 -63 136 -2
0 -16 -30 -31 -66z m54 -6 c0 -4 -9 -8 -21 -8 -15 0 -19 4 -15 16 3 9 6 21 6
27 1 13 30 -22 30 -35z"/>
<path d="M6783 620 c0 -41 2 -58 4 -37 2 20 2 54 0 75 -2 20 -4 3 -4 -38z"/>
<path d="M7110 620 l0 -70 38 0 c47 0 72 24 72 67 0 39 -36 73 -78 73 l-32 0
0 -70z m80 40 c39 -39 14 -100 -42 -100 -28 0 -28 1 -28 60 0 57 1 60 25 60
14 0 34 -9 45 -20z"/>
<path d="M3380 667 c-35 -18 -31 -39 10 -58 47 -23 46 -44 -3 -44 -20 0 -37
-3 -37 -7 0 -14 77 -8 90 7 16 19 5 33 -41 52 -32 12 -37 18 -28 29 6 8 22 14
35 14 13 0 24 5 24 10 0 14 -20 12 -50 -3z"/>
<path d="M3477 673 c-11 -10 -8 -82 3 -104 12 -21 64 -27 76 -8 4 8 9 7 15 -2
5 -9 8 14 7 56 -1 41 -3 53 -5 30 -5 -56 -22 -85 -49 -85 -32 0 -47 32 -39 81
7 38 5 45 -8 32z"/>
<path d="M3657 668 c-36 -91 -45 -121 -32 -104 8 11 15 23 15 28 0 4 14 8 30
8 24 0 33 -6 41 -26 5 -15 12 -25 15 -22 6 7 -47 128 -56 128 -4 0 -10 -6 -13
-12z m27 -34 c9 -23 8 -24 -14 -24 -11 0 -20 2 -20 4 0 12 13 36 20 36 4 0 11
-7 14 -16z"/>
<path d="M3961 654 c-12 -15 -21 -35 -21 -45 0 -54 93 -81 124 -37 51 73 -48
151 -103 82z m91 -1 c22 -20 23 -51 1 -75 -21 -24 -58 -23 -83 2 -25 25 -25
31 1 64 23 30 54 33 81 9z"/>
<path d="M4110 669 c0 -5 13 -9 30 -9 28 0 29 -1 33 -57 l3 -58 2 58 c2 57 2
57 34 57 17 0 28 3 25 6 -10 11 -127 13 -127 3z"/>
<path d="M4268 633 c5 -83 9 -90 11 -20 0 37 -2 67 -7 67 -4 0 -6 -21 -4 -47z"/>
<path d="M4300 615 c0 -36 4 -65 9 -65 5 0 8 23 8 50 -1 28 0 50 3 50 3 0 23
-22 43 -50 21 -27 42 -50 47 -50 6 0 9 29 8 68 l-1 67 -6 -60 -6 -60 -44 58
c-24 31 -47 57 -52 57 -5 0 -9 -29 -9 -65z"/>
<path d="M4476 619 c-15 -34 -24 -64 -22 -67 3 -3 10 7 15 22 8 20 17 26 41
26 23 0 31 -5 36 -25 3 -14 11 -25 16 -25 5 0 8 4 6 8 -1 4 -14 33 -27 65 -14
31 -28 57 -32 57 -3 0 -18 -28 -33 -61z m54 -1 c0 -4 -9 -8 -21 -8 -15 0 -19
4 -15 16 3 9 6 21 6 27 1 13 30 -22 30 -35z"/>
<path d="M4878 615 c-15 -36 -23 -65 -18 -65 4 0 11 11 14 25 9 37 60 35 80
-2 8 -16 15 -22 16 -16 0 16 -52 123 -60 123 -4 0 -18 -29 -32 -65z m39 -3
c-26 -5 -31 3 -17 28 l12 22 12 -23 c10 -21 9 -24 -7 -27z"/>
<path d="M5070 667 c-37 -19 -32 -48 10 -62 48 -16 46 -40 -3 -40 -20 0 -37
-4 -37 -8 0 -5 19 -7 43 -5 37 3 42 6 42 27 0 19 -8 27 -35 36 -45 15 -46 39
-2 43 18 2 30 8 27 13 -8 12 -15 11 -45 -4z"/>
<path d="M5387 663 c-28 -32 -31 -69 -8 -92 29 -29 85 -28 105 1 34 48 7 108
-48 108 -19 0 -40 -8 -49 -17z m85 -10 c35 -32 10 -93 -39 -93 -31 0 -64 34
-56 57 18 51 61 67 95 36z"/>
<path d="M5676 619 c-15 -34 -24 -64 -22 -67 3 -3 10 7 15 22 15 37 63 37 80
0 6 -15 14 -25 16 -22 6 6 -48 128 -56 128 -4 0 -18 -28 -33 -61z m54 -1 c0
-4 -9 -8 -21 -8 -15 0 -19 4 -15 16 3 9 6 21 6 27 1 13 30 -22 30 -35z"/>
<path d="M5880 615 l0 -65 48 2 47 1 -42 4 c-38 4 -43 7 -43 28 0 20 6 24 38
28 l37 4 -37 1 c-33 2 -38 5 -38 26 0 22 5 25 43 29 l42 4 -47 1 -48 2 0 -65z"/>
<path d="M6101 654 c-12 -15 -21 -35 -21 -45 0 -54 93 -81 124 -37 51 73 -48
151 -103 82z m96 -10 c15 -24 15 -29 2 -53 -18 -31 -51 -38 -85 -17 -29 20
-30 35 -3 70 27 34 63 34 86 0z"/>
<path d="M6630 615 c0 -77 18 -88 22 -14 l3 50 39 -50 c21 -28 42 -51 47 -51
5 0 8 30 7 68 l-1 67 -6 -59 -6 -60 -44 57 c-24 31 -47 57 -52 57 -5 0 -9 -29
-9 -65z"/>
<path d="M6853 673 c20 -2 37 -8 37 -12 0 -4 -13 -26 -28 -47 -48 -67 -49 -64
15 -62 55 2 56 2 12 5 l-47 4 34 51 c19 27 34 54 34 59 0 5 -21 8 -47 7 -44
-1 -45 -2 -10 -5z"/>
<path d="M6988 615 c-15 -36 -22 -65 -17 -65 5 0 11 11 15 25 9 37 58 35 78
-2 25 -46 18 -9 -10 51 -14 31 -29 56 -33 56 -4 0 -19 -29 -33 -65z m46 -3
c-25 -6 -32 2 -22 28 l9 25 14 -25 c12 -21 12 -25 -1 -28z"/>
<path d="M7276 619 c-15 -34 -24 -64 -22 -67 3 -2 11 7 17 22 17 36 61 36 78
0 6 -15 14 -25 16 -22 7 6 -46 128 -55 128 -4 0 -19 -28 -34 -61z m48 15 c9
-23 8 -24 -14 -24 -11 0 -20 2 -20 4 0 12 13 36 20 36 4 0 11 -7 14 -16z"/>
<path d="M4444 426 c-12 -32 1 -51 36 -54 41 -4 65 20 49 49 -12 23 -77 27
-85 5z"/>
<path d="M4634 426 c-15 -38 0 -51 55 -51 61 0 86 20 62 49 -18 21 -109 22
-117 2z"/>
<path d="M4860 425 c-25 -30 0 -50 61 -50 53 0 54 0 54 30 0 29 -2 30 -51 33
-37 2 -54 -1 -64 -13z"/>
<path d="M5081 421 c-18 -33 7 -53 63 -49 92 6 87 68 -5 68 -37 0 -51 -4 -58
-19z"/>
<path d="M5304 426 c-3 -8 -4 -23 -2 -33 3 -15 13 -18 63 -18 60 0 60 0 60 30
0 30 -1 30 -58 33 -43 2 -59 -1 -63 -12z"/>
<path d="M5529 424 c-22 -27 1 -49 58 -52 59 -3 81 13 63 47 -8 17 -20 21 -59
21 -32 0 -53 -5 -62 -16z"/>
<path d="M5754 426 c-15 -38 0 -51 55 -51 61 0 86 20 62 49 -18 21 -109 22
-117 2z"/>
<path d="M5980 425 c-25 -30 0 -50 61 -50 53 0 54 0 54 30 0 29 -2 30 -51 33
-37 2 -54 -1 -64 -13z"/>
<path d="M6201 422 c-15 -28 5 -52 44 -52 39 0 59 24 44 52 -6 12 -21 18 -44
18 -23 0 -38 -6 -44 -18z"/>
</g>
</svg>
