<?xml version="1.0" standalone="no"?>
<!DOCTYPE svg PUBLIC "-//W3C//DTD SVG 20010904//EN"
 "http://www.w3.org/TR/2001/REC-SVG-20010904/DTD/svg10.dtd">
<svg version="1.0" xmlns="http://www.w3.org/2000/svg"
 width="282.000000pt" height="378.000000pt" viewBox="0 0 282.000000 378.000000"
 preserveAspectRatio="xMidYMid meet">

<g transform="translate(0.000000,378.000000) scale(0.100000,-0.100000)"
fill="#000000" stroke="none">
<path d="M0 3619 c0 -114 3 -158 11 -153 8 5 8 1 0 -14 -6 -11 -11 -42 -11
-69 0 -41 4 -50 24 -59 l23 -11 -15 38 c-17 44 -11 69 16 69 15 0 18 6 15 24
-3 13 0 27 6 30 15 10 14 46 -1 47 -7 0 1 5 17 11 17 6 33 15 36 20 8 13 99
-78 99 -99 0 -10 4 -24 9 -32 7 -11 11 -10 20 7 13 24 5 52 -15 52 -16 0 -18
9 -4 30 6 10 10 11 10 3 0 -7 10 -13 23 -13 13 0 38 -11 57 -25 43 -32 47 -31
55 6 7 31 15 33 19 5 1 -9 5 -15 8 -14 3 2 11 -2 19 -8 15 -12 54 -12 65 -1
10 10 44 -23 44 -43 0 -9 9 -25 20 -35 12 -11 20 -28 18 -39 -4 -26 41 -66 73
-67 22 0 23 -1 4 -9 -19 -7 -19 -8 -2 -15 10 -4 23 -3 29 3 6 6 24 8 40 5 17
-3 33 -1 37 4 3 6 17 14 30 18 16 5 21 4 17 -4 -5 -7 2 -11 16 -11 18 0 20 2
8 10 -10 7 19 10 93 10 l107 0 2 -32 c1 -18 1 -56 -1 -84 -2 -43 1 -54 19 -67
13 -9 17 -17 11 -22 -6 -3 -11 -1 -11 5 0 6 -4 8 -10 5 -5 -3 -10 -22 -10 -41
0 -19 -4 -34 -10 -34 -5 0 -10 7 -10 15 0 8 -4 15 -10 15 -5 0 -10 -7 -10 -16
0 -11 -8 -15 -31 -12 -17 2 -31 -1 -30 -7 1 -5 5 -10 10 -10 22 0 20 -13 -4
-19 -14 -4 -25 -13 -25 -22 0 -8 -4 -12 -10 -9 -5 3 -18 1 -27 -4 -13 -8 4
-10 67 -11 80 0 86 -2 96 -24 7 -14 8 -30 3 -38 -13 -19 -11 -76 3 -80 8 -3 7
-11 -4 -29 -17 -27 -16 -62 1 -82 9 -11 8 -17 -3 -26 -20 -17 -16 -60 7 -76
l21 -15 -21 -15 c-32 -22 -27 -63 11 -86 17 -10 24 -19 16 -19 -40 -1 -62 -58
-32 -82 13 -11 15 -10 9 4 -5 15 -2 16 23 11 30 -5 43 10 18 20 -7 3 7 6 32 6
42 1 62 7 145 40 17 7 84 33 150 60 72 28 122 43 124 37 145 -407 282 -777
368 -995 50 -127 60 -145 85 -153 30 -11 33 -35 4 -30 -20 4 -20 3 -1 -39 12
-28 14 -30 15 -12 0 21 2 22 28 11 15 -6 36 -20 46 -29 19 -17 19 -18 -7 -24
-15 -4 -34 -5 -42 -1 -10 3 -15 -1 -15 -12 0 -15 7 -17 35 -14 29 3 35 1 35
-15 0 -10 9 -26 20 -36 26 -22 25 -36 -2 -46 -19 -7 -19 -8 -4 -14 23 -9 10
-29 -14 -22 -17 5 -18 3 -7 -25 9 -23 17 -30 39 -30 39 0 85 -19 70 -29 -9 -6
-4 -13 19 -23 l32 -16 -53 -3 c-38 -3 -54 0 -61 11 -19 33 -8 -15 20 -85 19
-47 32 -69 42 -66 8 2 35 9 60 16 37 10 49 10 63 -1 10 -7 15 -18 11 -24 -4
-7 -1 -16 6 -21 11 -7 11 -9 1 -9 -7 0 -10 -5 -7 -10 8 -13 -14 -42 -25 -35
-4 3 -14 -3 -21 -12 -15 -18 -20 -18 70 4 22 5 23 4 16 -28 -6 -28 -4 -36 20
-55 l27 -21 -44 -23 c-23 -12 -68 -31 -98 -41 -69 -22 -248 -92 -405 -156 -66
-28 -286 -118 -490 -201 -539 -219 -506 -209 -519 -155 -6 23 -2 32 23 55 19
17 28 33 25 43 -3 8 -9 15 -13 15 -13 0 -51 -31 -51 -42 0 -6 10 -3 22 8 l21
19 -18 -27 c-16 -26 -37 -38 -33 -20 0 4 -8 26 -19 49 -15 33 -22 40 -32 30
-6 -6 -5 2 4 19 18 36 42 60 52 50 4 -3 -4 -17 -17 -31 -13 -14 -19 -25 -13
-25 5 0 20 11 33 24 25 27 21 62 -6 52 -9 -3 -20 -6 -25 -6 -5 0 -9 -6 -9 -14
0 -32 -21 -25 -36 10 -16 37 -16 37 15 61 31 24 39 47 22 58 -5 3 -22 -7 -38
-21 l-28 -26 28 17 c38 22 43 14 11 -16 -29 -27 -36 -22 -56 44 -12 40 -12 39
45 78 6 4 7 14 4 24 -8 19 -47 12 -60 -11 -13 -22 -24 -16 -36 19 -11 30 -10
34 19 59 16 15 30 32 30 38 0 22 -32 22 -55 0 l-25 -23 -14 34 c-15 33 -15 35
14 61 49 45 35 86 -15 46 -27 -21 -28 -21 -41 -3 -22 30 -16 58 16 80 33 22
34 24 21 44 -8 12 -13 12 -36 -3 -20 -13 -24 -20 -15 -26 12 -8 6 -30 -9 -30
-4 0 -15 24 -26 52 -10 29 -22 59 -28 66 -5 7 -8 14 -6 15 28 20 59 36 59 30
0 -4 -10 -17 -22 -30 -26 -28 -12 -30 20 -3 16 13 22 26 17 39 -5 17 -9 19
-31 9 -13 -6 -24 -15 -24 -20 0 -21 -29 -5 -40 22 -14 33 -4 54 31 65 19 6 26
39 11 49 -5 3 -23 -4 -41 -15 -18 -11 -34 -19 -36 -17 -1 2 -7 18 -13 35 -10
29 -8 34 14 52 14 11 30 21 35 23 16 5 -1 38 -20 38 -9 0 -25 -7 -35 -15 -28
-21 -31 -19 -44 21 -10 34 -10 36 24 56 23 13 33 26 30 35 -3 8 -6 17 -6 19 0
11 -30 2 -53 -16 l-26 -21 -16 37 c-14 34 -14 38 2 50 10 7 26 16 36 19 18 7
22 22 8 43 -7 12 -14 11 -40 -2 -40 -21 -40 -30 2 -22 l32 6 -25 -20 c-14 -11
-27 -20 -30 -20 -3 0 -16 23 -28 51 -23 49 -23 51 -5 64 10 8 23 15 30 15 19
0 25 18 13 40 l-11 21 -34 -21 -34 -21 -16 31 c-15 30 -15 33 1 51 9 10 25 19
36 19 20 0 23 12 7 41 -10 20 -11 20 -46 -2 -29 -18 -37 -19 -44 -8 -5 8 -9 9
-9 3 0 -12 -138 -70 -158 -66 -6 2 -12 -2 -12 -9 0 -12 54 -9 95 6 11 4 5 -2
-13 -14 -18 -12 -42 -21 -53 -21 -21 0 -38 -28 -22 -39 5 -3 12 -14 16 -23 3
-10 11 -18 17 -18 7 0 8 6 0 19 -8 16 -6 23 12 35 12 9 32 16 43 16 20 -1 20
-1 1 -15 -19 -15 -19 -15 1 -15 12 0 25 -5 28 -10 3 -5 -3 -10 -14 -10 -10 0
-27 -3 -36 -6 -13 -5 -14 -9 -4 -15 19 -11 8 -18 -34 -21 -20 -2 -37 -6 -37
-10 0 -9 63 -22 107 -22 17 0 29 -4 27 -8 -3 -4 9 -8 27 -8 18 0 29 -3 26 -7
-8 -7 -35 -11 -92 -12 -41 -1 -39 -17 3 -26 29 -5 50 -26 44 -44 -5 -14 14
-13 78 4 l25 6 -26 -15 c-15 -8 -64 -18 -115 -21 -48 -3 -90 -7 -91 -9 -2 -2
25 -9 59 -16 82 -17 124 -40 120 -63 -3 -16 1 -17 34 -11 26 5 35 4 30 -5 -4
-6 -3 -11 2 -11 6 0 -3 -13 -18 -30 -20 -21 -37 -30 -60 -30 -18 0 -29 -4 -25
-10 3 -5 17 -10 30 -10 13 0 40 -11 60 -24 22 -15 43 -22 53 -19 13 6 12 1 -5
-20 -18 -23 -19 -31 -10 -52 8 -15 20 -25 34 -25 22 0 23 -4 7 -57 -4 -14 -2
-23 5 -23 6 0 10 -6 9 -12 -2 -9 11 -13 39 -13 31 0 39 -3 31 -12 -5 -6 -15
-11 -21 -9 -7 1 -9 1 -5 -1 4 -3 0 -16 -9 -30 l-17 -26 -121 6 c-66 3 -133 9
-150 12 -16 3 -26 3 -22 -1 4 -4 75 -16 158 -25 83 -10 157 -23 165 -30 8 -6
25 -9 39 -7 20 4 23 2 14 -8 -6 -7 -18 -10 -27 -7 -12 3 -14 2 -4 -4 7 -6 10
-17 6 -27 -4 -11 -1 -22 7 -27 10 -7 4 -9 -21 -8 -48 3 -160 -3 -135 -7 11 -2
66 -8 122 -15 57 -6 100 -15 97 -20 -3 -5 -9 -7 -13 -5 -10 7 -10 -36 1 -66
10 -28 33 -42 50 -31 7 3 8 1 4 -5 -4 -7 -22 -12 -39 -13 -26 0 -28 -2 -12 -8
11 -5 24 -6 29 -3 5 3 7 -9 4 -27 -2 -17 -3 -29 0 -27 2 2 12 -4 23 -15 11
-11 24 -17 29 -14 6 4 10 2 10 -3 0 -15 -13 -22 -24 -12 -7 5 -17 5 -26 0 -12
-8 -11 -10 5 -10 17 0 17 -2 5 -10 -12 -8 -12 -10 5 -10 17 0 17 -2 5 -10 -11
-7 -12 -10 -2 -10 22 0 67 -55 64 -76 -4 -30 15 -74 33 -74 8 0 15 -4 15 -8 0
-5 -47 -9 -103 -11 -112 -2 -202 -23 -155 -34 14 -4 60 0 102 8 87 17 126 12
126 -15 0 -10 7 -23 15 -30 12 -10 15 -10 15 3 0 8 -6 18 -12 20 -10 4 -10 6
0 6 7 1 17 -10 22 -23 5 -13 19 -27 31 -31 16 -5 18 -9 9 -15 -7 -4 -10 -15
-7 -24 6 -14 33 -16 222 -16 118 0 215 4 215 9 0 4 20 14 44 21 39 11 48 10
85 -9 22 -12 41 -17 41 -12 0 13 -49 51 -65 51 -7 0 -18 7 -25 15 -10 12 -9
15 4 15 10 0 42 11 72 25 32 15 73 25 99 25 34 0 48 5 57 20 7 11 19 20 27 20
8 0 22 7 31 15 10 9 46 20 80 26 70 11 112 28 73 29 -13 0 -23 5 -23 10 0 6 9
10 20 10 11 0 20 4 20 9 0 4 21 14 46 21 25 7 62 21 82 32 20 10 52 18 72 18
20 0 40 4 46 9 5 5 18 11 29 14 15 3 13 5 -8 6 -70 3 48 50 167 67 27 4 60 12
73 19 24 12 23 13 -14 20 -35 6 -36 8 -17 18 12 7 19 18 17 25 -3 7 4 12 16
12 12 0 21 5 21 10 0 6 19 10 43 10 24 0 71 9 105 21 67 23 104 20 82 -6 -15
-19 -5 -35 23 -35 22 0 57 -31 57 -50 0 -6 -24 -11 -52 -11 l-53 -1 50 -12
c62 -14 90 -33 99 -68 5 -21 3 -28 -9 -28 -27 0 -16 -19 18 -29 17 -5 26 -10
18 -10 -11 -1 -10 -6 4 -21 10 -11 23 -20 30 -20 7 0 20 -8 29 -19 16 -18 15
-19 -31 -26 -37 -6 -43 -9 -28 -15 11 -4 23 -6 28 -3 4 2 7 0 7 -6 0 -5 13
-12 29 -16 34 -7 48 -32 23 -38 -13 -4 -11 -5 5 -6 12 0 24 -7 27 -13 5 -10 7
-10 12 0 3 6 10 12 16 12 15 0 -19 -36 -35 -38 -19 -1 -88 -20 -93 -25 -7 -7
170 0 195 8 21 6 22 11 20 131 0 70 -5 122 -10 118 -5 -3 -9 0 -9 5 0 6 4 11
10 11 5 0 9 37 7 89 -1 50 -5 85 -8 79 -4 -7 -21 17 -40 55 -28 56 -31 68 -19
82 17 21 24 12 10 -14 -17 -33 3 -24 22 9 21 37 14 64 -12 50 -10 -6 -22 -19
-25 -30 -9 -30 -22 -24 -35 15 -10 31 -14 34 -28 23 -14 -10 -15 -10 -5 1 6 7
9 19 7 26 -3 7 -1 16 5 20 6 3 11 11 11 17 0 7 -5 6 -15 -2 -12 -10 -17 -6
-32 25 -17 35 -17 37 0 46 9 6 17 17 17 25 0 8 7 17 15 20 11 5 12 11 4 25
-12 24 -44 11 -52 -21 -4 -17 -3 -19 9 -9 18 15 18 -1 1 -25 -13 -17 -17 -13
-47 47 -29 58 -31 68 -19 84 13 16 12 17 -3 5 -15 -12 -19 -10 -34 21 -16 33
-16 37 0 52 9 9 16 22 16 30 0 7 5 15 11 17 11 4 2 38 -11 38 -5 0 -19 -15
-31 -33 -12 -17 -16 -26 -9 -19 29 26 40 9 16 -23 -13 -18 -18 -11 -66 87
l-53 106 27 35 c16 21 24 41 20 51 -11 28 -49 16 -55 -17 -6 -30 -20 -24 -36
14 -14 35 -13 38 11 64 27 29 33 50 16 60 -14 9 -50 -13 -50 -30 0 -26 -20
-16 -37 19 -16 34 -15 34 14 63 24 23 28 34 22 52 -7 18 -12 20 -28 12 -10 -6
-21 -18 -25 -27 -9 -22 -8 -24 9 -18 19 8 20 -10 1 -26 -12 -10 -20 -1 -46 50
-30 59 -33 90 -10 90 7 0 9 -9 4 -22 -6 -21 -4 -21 20 5 21 23 24 32 16 47 -9
17 -14 18 -30 7 -11 -6 -23 -20 -26 -29 -8 -27 -17 -22 -35 21 l-16 38 30 26
c25 22 29 30 21 48 l-10 22 -29 -26 c-25 -22 -27 -26 -12 -27 10 0 17 -5 15
-12 -9 -25 -24 -16 -46 28 -24 49 -22 59 20 94 16 13 17 18 5 33 -20 28 -50
12 -42 -23 5 -25 1 -31 -44 -59 -28 -17 -51 -28 -51 -25 0 10 42 44 54 44 6 0
17 10 25 21 11 19 11 21 -3 16 -11 -5 -22 4 -35 31 -24 45 -27 34 -4 -15 14
-30 14 -36 2 -44 -21 -13 -24 -11 -39 16 -7 14 -15 23 -17 21 -3 -2 1 -14 7
-26 7 -12 8 -26 3 -31 -4 -4 -21 17 -38 48 -28 54 -29 55 -37 31 -10 -29 -40
-42 -57 -25 -28 28 1 74 39 62 11 -4 20 -2 20 4 0 6 6 11 13 11 7 0 20 9 30
20 9 11 24 20 32 20 16 0 311 153 329 171 6 5 3 11 -7 15 -9 3 -17 14 -17 24
0 16 10 18 53 11 5 0 6 -10 2 -21 -5 -15 -3 -18 9 -14 24 9 21 79 -5 105 -20
20 -22 44 -3 44 5 0 15 4 22 9 7 4 19 3 27 -4 8 -6 19 -9 25 -5 5 3 10 2 10
-4 0 -5 -5 -13 -11 -16 -6 -4 -8 -13 -5 -20 3 -8 -4 -17 -15 -20 -14 -5 -19
-15 -19 -40 l0 -34 80 42 81 42 -6 120 c-3 66 -10 237 -15 379 -6 143 -13 262
-15 265 -3 2 -5 -1 -5 -7 0 -17 -37 -15 -43 2 -7 17 16 28 38 20 13 -5 15 8
15 86 l0 93 106 -7 c59 -4 115 -11 124 -16 10 -5 20 -7 23 -3 3 3 6 124 7 269
l0 264 -772 -2 -773 -3 3 -32 c3 -28 1 -32 -14 -26 -14 5 -16 2 -12 -15 4 -15
2 -22 -9 -22 -8 0 -20 -13 -26 -30 -15 -41 -33 -41 -77 1 -47 45 -100 83 -100
72 0 -4 25 -28 55 -52 30 -24 61 -54 69 -66 15 -22 14 -24 -18 -39 -19 -9 -39
-16 -45 -16 -47 0 -87 -55 -79 -109 2 -17 1 -28 -3 -25 -14 9 -37 -8 -43 -32
-7 -26 -31 -32 -39 -10 -3 8 -25 17 -49 21 -24 4 -51 14 -61 23 -13 12 -18 13
-15 3 6 -26 -22 -22 -34 4 -10 23 -9 32 12 70 13 24 21 47 17 51 -4 4 -7 1 -7
-7 -1 -8 -9 -24 -20 -37 -23 -27 -77 -26 -72 2 2 9 -2 16 -9 16 -7 0 -10 -11
-7 -29 2 -17 1 -28 -4 -25 -4 3 -8 13 -8 23 0 10 -12 23 -26 29 -18 9 -24 19
-22 35 3 19 -2 22 -32 23 -58 1 -59 1 -55 45 3 39 7 44 64 81 34 21 75 41 91
45 17 3 30 12 30 19 0 11 -21 14 -92 14 -96 0 -115 -16 -26 -22 53 -3 52 -7
-16 -41 -39 -20 -55 -23 -76 -15 -28 9 -55 52 -45 69 4 5 -90 9 -234 9 l-241
0 0 -161z m1860 -29 c0 -11 -2 -20 -4 -20 -2 0 -11 -3 -19 -6 -15 -5 -31 21
-21 37 11 18 44 10 44 -11z m190 10 c0 -5 -2 -10 -4 -10 -3 0 -8 5 -11 10 -3
6 -1 10 4 10 6 0 11 -4 11 -10z m-630 -20 c0 -11 -2 -20 -4 -20 -2 0 -11 -3
-19 -6 -15 -5 -31 21 -21 37 11 18 44 10 44 -11z m265 -89 c-5 -13 -8 -13 -19
0 -15 15 -28 84 -19 93 10 9 44 -76 38 -93z m315 90 c0 -5 -7 -11 -15 -15 -9
-3 -15 0 -15 9 0 8 7 15 15 15 8 0 15 -4 15 -9z m453 -4 c8 -21 -29 -39 -43
-22 -6 8 -9 19 -5 25 9 14 42 13 48 -3z m-278 -17 c0 -22 -29 -18 -33 3 -3 14
1 18 15 15 10 -2 18 -10 18 -18z m-675 -20 c0 -5 -7 -10 -15 -10 -8 0 -15 5
-15 10 0 6 7 10 15 10 8 0 15 -4 15 -10z m588 -13 c4 -22 -24 -33 -43 -17 -12
10 -13 16 -4 27 16 18 43 13 47 -10z m-978 1 c-14 -5 -33 -14 -43 -20 -11 -5
-21 -7 -24 -4 -7 7 56 35 77 35 8 0 4 -5 -10 -11z m1425 2 c3 -5 -1 -10 -9
-10 -8 0 -18 5 -21 10 -3 6 1 10 9 10 8 0 18 -4 21 -10z m-1995 -19 c0 -4 -7
-8 -15 -8 -8 0 -15 6 -15 13 0 8 6 11 15 8 8 -4 15 -9 15 -13z m747 -21 c-1
-16 -5 -30 -9 -30 -5 0 -8 -9 -8 -21 0 -11 -4 -17 -10 -14 -13 8 -6 61 10 80
17 21 19 19 17 -15z m228 20 c3 -5 1 -10 -4 -10 -6 0 -11 5 -11 10 0 6 2 10 4
10 3 0 8 -4 11 -10z m803 -47 c-13 -63 -31 -71 -23 -11 5 36 22 74 31 66 1 -2
-3 -27 -8 -55z m-1197 28 c-14 -10 -30 -17 -37 -14 -7 2 -14 -5 -16 -17 -4
-28 -22 -30 -26 -3 -4 25 37 52 78 52 l25 1 -24 -19z m-651 4 c0 -2 -10 -10
-22 -16 -21 -11 -22 -11 -9 4 13 16 31 23 31 12z m66 -26 c4 -8 1 -8 -14 0
-12 6 -24 16 -28 22 -4 8 -1 8 14 0 12 -6 24 -16 28 -22z m830 -27 c-17 -33
-54 -68 -63 -59 -3 4 2 16 12 27 10 11 15 20 10 20 -9 0 37 39 48 40 4 0 1
-12 -7 -28z m-161 8 c3 -5 1 -10 -4 -10 -6 0 -11 5 -11 10 0 6 2 10 4 10 3 0
8 -4 11 -10z m1199 -12 c-8 -26 -42 -64 -49 -56 -8 8 35 78 47 78 5 0 6 -10 2
-22z m-149 -5 c11 -27 14 -73 4 -73 -12 0 -18 14 -23 54 -5 38 7 49 19 19z
m-1045 -13 c0 -5 -2 -10 -4 -10 -3 0 -8 5 -11 10 -3 6 -1 10 4 10 6 0 11 -4
11 -10z m680 0 c0 -5 8 -10 18 -10 14 0 14 -2 3 -9 -8 -5 -11 -16 -7 -26 4
-13 2 -16 -9 -11 -10 3 -15 -1 -16 -12 0 -12 -2 -13 -6 -3 -3 7 -14 22 -25 33
-20 20 -20 20 3 33 30 16 39 18 39 5z m-203 -42 c-3 -8 -6 -5 -6 6 -1 11 2 17
5 13 3 -3 4 -12 1 -19z m-466 -1 c-1 -12 -15 -9 -19 4 -3 6 1 10 8 8 6 -3 11
-8 11 -12z m478 -18 c10 14 11 14 5 -4 -4 -11 -10 -42 -14 -70 l-7 -50 -2 47
c0 26 -5 49 -10 52 -5 3 -11 16 -14 28 l-6 23 18 -21 c16 -20 19 -20 30 -5z
m-896 -6 c-7 -2 -19 -2 -25 0 -7 3 -2 5 12 5 14 0 19 -2 13 -5z m468 -56 c-8
-8 -11 -3 -11 19 1 25 2 27 11 11 8 -14 8 -22 0 -30z m-243 14 c3 -8 0 -11 -5
-8 -5 3 -66 7 -136 8 -69 1 -143 6 -164 10 -23 5 28 7 131 6 134 -2 170 -5
174 -16z m1250 2 c-9 -10 -13 -25 -10 -33 4 -12 2 -13 -9 -3 -10 10 -9 16 6
33 22 24 34 27 13 3z m29 -35 c-12 -16 -25 -28 -31 -28 -5 0 -6 -3 -3 -7 4 -3
19 4 34 18 l27 24 -17 -27 c-9 -15 -17 -35 -17 -44 0 -15 -4 -14 -25 6 -22 20
-23 25 -10 32 8 5 15 18 15 28 0 11 6 19 13 18 7 -2 11 5 9 16 -3 15 -1 16 11
5 12 -12 11 -17 -6 -41z m-828 10 c18 -32 13 -39 -30 -44 -43 -5 -70 21 -56
53 14 33 66 27 86 -9z m367 20 c4 4 3 0 -4 -9 -6 -9 -9 -19 -5 -22 3 -4 1 -7
-6 -7 -10 0 -11 -10 -6 -37 4 -21 10 -40 14 -43 4 -3 5 -27 2 -55 -6 -49 -6
-48 -19 45 -7 52 -17 97 -22 98 -14 5 -12 30 3 35 6 2 17 0 23 -4 6 -5 15 -5
20 -1z m662 -3 c13 -4 21 -9 18 -12 -3 -4 -1 -12 6 -20 15 -18 6 -25 -39 -30
-30 -3 -41 1 -51 17 -15 24 4 62 28 56 8 -3 25 -7 38 -11z m142 -6 c0 -15 -18
-19 -42 -10 -12 6 -17 10 -10 10 7 1 11 5 8 10 -3 4 6 6 19 3 14 -2 25 -8 25
-13z m-768 -56 c5 -7 6 -18 1 -25 -4 -7 -11 -42 -14 -78 l-6 -65 -1 72 c-1 47
-6 73 -14 76 -10 4 -10 7 0 18 6 7 13 27 13 44 l2 30 4 -30 c3 -16 9 -35 15
-42z m58 46 c0 -10 -6 -19 -12 -22 -9 -2 -13 -30 -13 -90 0 -48 -1 -87 -3 -87
-1 0 -7 12 -12 26 -6 16 -7 46 -1 82 7 44 6 62 -5 79 -10 16 -11 23 -1 26 24
9 47 2 47 -14z m-882 -23 c-7 -8 -15 -12 -17 -11 -5 6 10 25 20 25 5 0 4 -6
-3 -14z m212 -5 c-26 -46 -28 -46 -49 -27 -12 11 -21 24 -21 29 0 6 9 2 19 -7
13 -12 21 -14 26 -6 3 6 1 9 -6 8 -6 -2 -13 2 -15 8 -3 6 8 10 25 10 24 0 28
-3 21 -15z m860 -57 c12 -30 5 -45 -15 -37 -9 3 -15 -1 -15 -10 0 -9 -5 -19
-12 -23 -7 -4 -8 -3 -4 4 4 7 2 12 -3 12 -19 0 -12 22 9 27 17 5 17 7 5 20
-21 20 -19 33 5 33 13 0 24 -10 30 -26z m-742 -51 c3 -19 -1 -23 -22 -23 -28
0 -41 14 -32 36 9 24 50 13 54 -13z m1046 8 c20 -17 12 -31 -19 -31 -27 0 -39
14 -32 35 7 16 29 14 51 -4z m-1361 -14 c9 -3 17 -3 17 2 0 5 14 11 30 13 44
7 38 -20 -7 -28 -38 -7 -64 3 -71 27 -2 9 -1 10 5 3 4 -6 16 -13 26 -17z m973
8 c-3 -9 3 -19 17 -26 31 -17 37 -29 30 -64 -5 -28 -4 -29 9 -11 9 11 13 28
10 38 -3 12 1 18 12 18 9 0 16 -6 16 -12 1 -8 6 -5 15 6 15 20 35 14 35 -11 0
-9 -6 -13 -14 -10 -19 8 -86 -51 -86 -74 0 -11 4 -19 8 -19 15 0 12 -153 -3
-185 -9 -16 -13 -21 -9 -10 17 57 16 85 -5 120 -11 20 -21 43 -21 51 0 8 -7
14 -16 14 -9 0 -14 7 -12 17 4 22 28 29 28 9 0 -9 4 -24 9 -34 5 -9 14 -28 20
-42 10 -23 11 -22 5 10 -3 19 -9 67 -13 105 -4 53 -10 70 -21 70 -8 0 -21 11
-27 24 -16 30 -16 31 3 31 10 0 14 -6 10 -15z m-621 -34 c3 -6 -4 -15 -15 -21
-20 -11 -21 -10 -10 9 12 23 16 25 25 12z m1050 -11 c-3 -5 -10 -10 -16 -10
-5 0 -9 5 -9 10 0 6 7 10 16 10 8 0 12 -4 9 -10z m-1378 -6 c-3 -3 -12 -4 -19
-1 -8 3 -5 6 6 6 11 1 17 -2 13 -5z m195 -9 c14 -19 8 -44 -13 -50 -23 -8 -54
14 -31 22 6 3 12 13 12 24 0 19 19 22 32 4z m461 -4 c3 -11 -3 -28 -15 -40
-21 -23 -27 -25 -47 -12 -18 12 -7 58 17 64 33 9 40 7 45 -12z m597 -16 c0
-14 -9 -26 -25 -33 -22 -10 -25 -9 -31 13 -3 14 0 30 7 38 19 20 49 9 49 -18z
m-848 16 c13 -2 -5 -41 -19 -41 -10 0 -13 -6 -9 -16 3 -8 2 -12 -4 -9 -6 3
-10 2 -10 -3 0 -6 -7 -13 -16 -16 -12 -4 -10 1 6 23 12 18 16 32 10 36 -5 3
-10 12 -10 19 0 11 18 14 52 7z m675 -37 c-9 -9 -28 6 -21 18 4 6 10 6 17 -1
6 -6 8 -13 4 -17z m-1123 4 c-7 -12 42 -7 79 7 12 5 17 2 17 -11 0 -9 -2 -15
-6 -12 -3 3 -21 2 -42 -3 -23 -5 -41 -4 -49 3 -16 13 -17 28 -2 28 5 0 7 -5 3
-12z m360 -24 c7 -19 -3 -44 -20 -44 -7 0 -16 -15 -19 -32 -3 -18 -10 -53 -14
-78 l-9 -45 -1 41 c-1 27 -8 47 -21 59 -11 10 -20 23 -19 29 0 6 7 1 16 -11 8
-13 19 -23 24 -23 12 0 11 42 0 73 -10 26 -4 41 19 49 20 7 37 0 44 -18z
m1058 -2 c5 -18 -13 -42 -32 -42 -5 0 -10 -10 -10 -22 l0 -21 24 22 c18 17 26
19 31 10 5 -7 4 -10 -2 -6 -19 12 -59 -46 -62 -88 -2 -22 -5 -42 -8 -45 -3 -3
-3 29 -1 70 3 43 1 81 -5 91 -16 26 -1 49 32 49 19 0 30 -6 33 -18z m-1139
-47 c9 -18 9 -19 -6 -6 -10 7 -17 23 -16 35 0 14 2 16 6 6 3 -8 10 -24 16 -35z
m1038 18 l24 -26 -27 19 c-15 10 -28 22 -28 27 0 12 5 8 31 -20z m-455 -57
c-4 -25 -11 -46 -17 -46 -5 0 -9 -30 -9 -66 0 -36 -4 -63 -9 -60 -13 8 -6 177
9 209 19 40 34 18 26 -37z m-649 22 c-3 -7 -5 -2 -5 12 0 14 2 19 5 13 2 -7 2
-19 0 -25z m203 27 c0 -2 -10 -9 -22 -15 -22 -11 -22 -10 -4 4 21 17 26 19 26
11z m236 -16 c3 -6 0 -15 -7 -20 -10 -6 -11 -9 -1 -9 6 0 12 -7 12 -15 0 -23
-17 -18 -24 8 -8 32 -7 47 3 47 6 0 13 -5 17 -11z m-286 -9 c0 -5 -4 -10 -10
-10 -5 0 -10 5 -10 10 0 6 5 10 10 10 6 0 10 -4 10 -10z m250 -35 c0 -13 -4
-27 -10 -30 -24 -15 -9 -83 29 -131 9 -11 1 -5 -16 13 -26 25 -33 41 -33 70 0
21 4 45 10 53 5 9 5 19 -1 27 -12 14 -2 36 12 28 5 -4 9 -17 9 -30z m721 8
c13 -16 12 -17 -3 -4 -10 7 -18 15 -18 17 0 8 8 3 21 -13z m-1241 -18 c0 -19
-35 -19 -75 0 l-30 13 53 1 c40 1 52 -2 52 -14z m-84 -23 c-4 -3 -14 2 -24 12
-16 18 -16 18 6 6 13 -6 21 -14 18 -18z m729 -2 c12 -20 -5 -48 -25 -43 -19 5
-27 33 -13 46 10 10 31 8 38 -3z m-731 -30 c-10 -4 -21 -6 -24 -3 -8 7 24 22
34 16 5 -4 1 -10 -10 -13z m146 10 c0 -5 -4 -10 -10 -10 -5 0 -10 5 -10 10 0
6 5 10 10 10 6 0 10 -4 10 -10z m1081 0 c15 0 10 -38 -7 -48 -22 -12 -41 -146
-23 -168 10 -12 10 -17 0 -23 -9 -6 -9 -15 -2 -34 7 -17 7 -27 1 -27 -6 0 -10
6 -10 13 0 6 -6 24 -14 39 -8 14 -10 30 -6 35 13 14 23 153 10 153 -6 0 -9 4
-6 9 3 5 -1 14 -9 21 -14 11 -13 14 7 25 13 7 29 11 36 9 8 -2 18 -4 23 -4z
m-794 -81 c1 -52 -2 -68 -10 -60 -6 6 -10 26 -9 45 2 20 -4 38 -13 46 -12 10
-13 16 -4 26 25 30 35 14 36 -57z m1061 -1 c0 -61 -1 -69 -10 -48 -6 14 -10
35 -9 48 2 13 -5 30 -16 38 -16 12 -16 15 -3 24 31 20 37 11 38 -62z m-1408
37 c0 -24 -2 -26 -37 -20 -57 10 -73 15 -73 25 0 5 15 11 33 13 74 9 77 8 77
-18z m80 15 c13 -8 12 -10 -2 -10 -11 0 -18 -8 -18 -19 0 -11 -4 -23 -10 -26
-6 -4 -10 8 -10 29 0 37 12 44 40 26z m-150 -56 c0 -2 -9 0 -20 6 -11 6 -20
13 -20 16 0 2 9 0 20 -6 11 -6 20 -13 20 -16z m725 -73 c-4 -24 -10 -53 -15
-65 -8 -20 -9 -20 -10 4 -3 37 -3 71 -1 110 2 34 2 34 17 15 11 -15 14 -32 9
-64z m94 56 c10 17 10 16 11 -4 0 -12 -4 -25 -10 -28 -5 -3 -11 -30 -12 -58
-1 -46 -2 -48 -5 -12 -2 22 -10 54 -18 72 -20 42 -19 50 4 29 18 -17 20 -17
30 1z m-829 -11 c0 -2 -9 -6 -20 -9 -11 -3 -18 -1 -14 4 5 9 34 13 34 5z m197
-18 c-3 -8 -6 -5 -6 6 -1 11 2 17 5 13 3 -3 4 -12 1 -19z m-117 -22 c0 -22 -2
-23 -46 -15 -62 12 -76 22 -39 30 65 14 85 11 85 -15z m205 18 c9 -4 21 -18
26 -32 7 -19 6 -27 -8 -37 -14 -10 -21 -10 -40 2 -25 16 -31 58 -10 66 6 3 13
6 14 6 1 1 9 -2 18 -5z m1090 -31 c7 -30 -10 -46 -40 -37 -27 8 -28 10 -30 37
-4 43 59 43 70 0z m-1366 -19 c14 -12 -19 -1 -35 12 -18 14 -18 14 6 3 14 -6
27 -13 29 -15z m1026 7 c11 -35 -24 -71 -52 -52 -14 9 -24 41 -13 41 6 0 10 7
10 15 0 22 47 19 55 -4z m-585 -1 c0 -5 -4 -10 -10 -10 -5 0 -10 5 -10 10 0 6
5 10 10 10 6 0 10 -4 10 -10z m-455 -50 c-28 -12 -37 -12 -30 0 3 6 16 10 28
9 21 0 21 -1 2 -9z m561 -24 c22 -32 18 -58 -8 -55 -13 2 -29 -1 -37 -5 -22
-14 -52 32 -39 60 14 29 63 30 84 0z m-476 -7 c0 -19 -4 -20 -42 -14 -24 4
-47 10 -53 13 -12 7 28 20 68 21 21 1 27 -4 27 -20z m647 -3 c-9 -7 -17 -21
-17 -31 0 -17 1 -17 20 0 11 10 20 14 20 8 0 -11 -38 -48 -44 -42 -1 2 -8 18
-14 36 -8 25 -8 31 2 27 7 -3 19 2 26 11 7 8 16 13 19 9 3 -3 -2 -11 -12 -18z
m-697 -34 c3 -3 -8 -2 -25 2 -16 4 -34 12 -40 17 -5 5 6 4 25 -2 19 -7 37 -14
40 -17z m1072 -77 c-3 -61 -5 -65 -16 -44 -7 14 -8 27 -3 30 5 4 1 23 -9 44
-14 31 -15 38 -3 45 25 16 34 -7 31 -75z m-1025 69 c-3 -3 -12 -4 -19 -1 -8 3
-5 6 6 6 11 1 17 -2 13 -5z m203 -29 c0 -21 -17 -35 -40 -35 -15 0 -22 40 -10
54 16 21 50 8 50 -19z m1067 4 c3 -20 -2 -28 -18 -32 -31 -8 -53 16 -39 43 16
30 52 23 57 -11z m-1262 1 c-3 -5 -18 -9 -33 -9 l-27 1 30 8 c17 4 31 8 33 9
2 0 0 -3 -3 -9z m615 -5 c6 -8 10 -20 8 -26 -2 -6 -12 0 -21 15 -18 27 -8 37
13 11z m193 -5 c7 -28 -29 -48 -50 -28 -19 20 -6 48 22 48 14 0 25 -7 28 -20z
m594 4 c3 -8 0 -21 -6 -27 -10 -9 -16 -8 -27 7 -11 16 -11 22 -1 28 18 12 27
10 34 -8z m-1468 2 c-2 -2 -17 -6 -34 -10 -22 -5 -26 -4 -15 4 14 9 59 15 49
6z m57 -31 c4 -8 12 -15 20 -15 8 0 14 -10 14 -25 0 -30 -20 -34 -27 -6 -3 12
-17 22 -37 26 -67 14 -73 19 -31 26 22 3 44 7 48 8 4 0 10 -6 13 -14z m-57
-31 c2 -2 -7 -4 -22 -4 -14 0 -29 5 -32 10 -6 10 42 4 54 -6z m-29 -64 c-20
-13 -33 -13 -25 0 3 6 14 10 23 10 15 0 15 -2 2 -10z m716 -107 c13 -17 14
-17 8 0 -3 9 -1 17 5 17 6 0 11 -5 11 -11 0 -8 4 -8 13 -1 7 6 52 10 107 9
l94 -2 1 -30 c0 -29 -2 -30 -47 -33 -42 -3 -48 -1 -48 16 0 11 -6 22 -13 25
-10 4 -13 -2 -9 -19 3 -17 0 -24 -12 -24 -12 0 -15 6 -10 25 3 14 3 25 0 25
-4 0 -11 -11 -16 -25 -10 -26 -50 -36 -50 -12 0 8 -3 7 -10 -3 -8 -13 -11 -12
-25 5 -12 16 -14 17 -9 3 4 -12 1 -18 -8 -18 -10 0 -13 10 -10 35 5 40 9 42
28 18z m486 -47 c14 -20 8 -34 -14 -40 -32 -8 -53 15 -39 42 11 22 38 20 53
-2z m-332 -177 c13 -24 11 -28 -18 -34 -25 -4 -45 16 -36 39 9 23 41 20 54 -5z
m40 -49 c0 -5 -9 -14 -19 -19 -16 -9 -18 -8 -14 9 5 20 33 29 33 10z m-132
-36 c4 -25 -22 -49 -43 -40 -18 7 -20 52 -2 59 23 10 42 2 45 -19z m297 -194
c14 -26 14 -30 -2 -39 -14 -7 -21 -3 -36 21 -15 25 -16 33 -5 39 21 14 27 11
43 -21z m-41 -62 c-4 -6 -14 3 -25 23 -22 44 -13 60 12 19 11 -17 16 -36 13
-42z m-59 22 c-3 -5 -11 -10 -16 -10 -6 0 -7 5 -4 10 3 6 11 10 16 10 6 0 7
-4 4 -10z m112 -27 c-9 -9 -20 -13 -24 -9 -4 4 -1 11 7 16 25 16 35 11 17 -7z
m34 -55 c10 -38 -1 -43 -23 -11 -22 35 -23 45 -1 41 9 -2 20 -15 24 -30z m-45
-5 c15 -20 18 -43 6 -43 -8 0 -32 43 -32 55 0 11 14 4 26 -12z m-1900 -59
c-30 -26 -43 -26 -32 2 3 9 13 14 21 10 8 -3 17 -1 20 4 4 6 9 10 13 10 4 0
-6 -12 -22 -26z m1969 6 c-3 -5 -10 -10 -16 -10 -5 0 -9 5 -9 10 0 6 7 10 16
10 8 0 12 -4 9 -10z m-35 -10 c0 -5 -5 -10 -11 -10 -5 0 -7 5 -4 10 3 6 8 10
11 10 2 0 4 -4 4 -10z m70 -35 c10 -18 10 -29 3 -36 -8 -8 -15 -1 -27 22 -19
39 -19 39 -3 39 8 0 20 -11 27 -25z m-53 -1 c-3 -4 0 -13 8 -21 17 -16 20 -33
7 -33 -5 0 -14 11 -20 25 -15 32 -15 35 0 35 6 0 9 -3 5 -6z m-2147 -54 c0 -5
-4 -10 -10 -10 -5 0 -10 5 -10 10 0 6 5 10 10 10 6 0 10 -4 10 -10z m270 -4
c0 -3 -4 -8 -10 -11 -5 -3 -10 -1 -10 4 0 6 5 11 10 11 6 0 10 -2 10 -4z
m1954 -11 c-4 -10 0 -15 11 -15 9 0 13 -4 10 -10 -3 -5 -2 -10 3 -10 5 0 12
-11 14 -25 8 -39 -8 -30 -36 21 -30 54 -30 54 -11 54 9 0 12 -6 9 -15z m-1984
-10 c0 -8 -7 -15 -15 -15 -16 0 -20 12 -8 23 11 12 23 8 23 -8z m1950 1 c0 -3
-4 -8 -10 -11 -5 -3 -10 -1 -10 4 0 6 5 11 10 11 6 0 10 -2 10 -4z m14 -40
c-3 -7 2 -16 11 -20 9 -3 13 -11 9 -17 -5 -9 -11 -6 -21 6 -15 22 -17 45 -3
45 5 0 7 -6 4 -14z m136 -15 c0 -13 -29 -35 -37 -28 -7 8 15 37 28 37 5 0 9
-4 9 -9z m-63 -53 c-3 -8 -6 -5 -6 6 -1 11 2 17 5 13 3 -3 4 -12 1 -19z m31
-20 c-1 -7 3 -23 10 -35 8 -14 9 -23 3 -23 -6 0 -17 13 -26 29 -14 28 -12 33
13 40 2 1 2 -5 0 -11z m-43 -38 c3 -11 13 -20 21 -20 8 0 12 -4 9 -10 -10 -16
-19 -12 -37 20 -9 17 -13 30 -8 30 5 0 12 -9 15 -20z m135 3 c-1 -18 -28 -44
-35 -33 -4 6 -1 17 5 25 13 16 30 20 30 8z m-2040 -59 c-8 -8 -22 -20 -32 -25
-14 -7 -18 -6 -18 6 0 9 10 20 23 25 33 13 41 12 27 -6z m2010 -39 c7 -14 11
-28 7 -31 -3 -3 -13 8 -22 25 -8 17 -12 31 -7 31 5 0 15 -11 22 -25z m-45 -5
c-3 -5 -1 -19 5 -30 6 -11 8 -20 6 -20 -3 0 -12 14 -21 30 -14 27 -14 30 0 30
9 0 13 -4 10 -10z m-1905 -63 c0 -2 -13 -13 -30 -25 -29 -22 -30 -22 -30 -3 0
18 14 27 48 30 6 0 12 0 12 -2z m2020 -72 c0 -11 -14 7 -31 40 -7 13 -3 12 10
-5 11 -14 21 -29 21 -35z m-2190 40 c0 -2 -10 -9 -22 -15 -22 -11 -22 -10 -4
4 21 17 26 19 26 11z m2130 -16 c0 -5 5 -7 12 -3 8 5 9 2 5 -10 -4 -10 -7 -23
-7 -29 -1 -7 -7 -1 -15 13 -17 30 -18 40 -5 40 6 0 10 -5 10 -11z m-2130 -23
c0 -2 -7 -7 -16 -10 -8 -3 -12 -2 -9 4 6 10 25 14 25 6z m210 -52 c-20 -23
-48 -36 -55 -25 -3 5 7 16 22 24 37 20 48 20 33 1z m1965 -4 c-3 -5 -10 -10
-16 -10 -5 0 -9 5 -9 10 0 6 7 10 16 10 8 0 12 -4 9 -10z m-2135 -25 c-13 -14
-26 -22 -29 -19 -3 3 5 14 19 24 34 27 38 25 10 -5z m2168 -42 c-6 -7 -12 -13
-13 -13 -2 0 -5 6 -8 13 -3 7 3 13 14 13 13 0 15 -3 7 -13z m-2158 3 c0 -2 -7
-7 -16 -10 -8 -3 -12 -2 -9 4 6 10 25 14 25 6z m2217 -38 c-3 -8 -6 -5 -6 6
-1 11 2 17 5 13 3 -3 4 -12 1 -19z m-2199 -48 c-7 -10 -14 -17 -17 -15 -4 4
18 35 25 35 2 0 -1 -9 -8 -20z m2199 -30 c8 0 11 -4 8 -10 -10 -17 -21 -11
-33 15 -15 33 -14 48 0 18 6 -13 17 -23 25 -23z m-2162 0 c-3 -5 -16 -10 -28
-9 -20 1 -20 2 3 9 14 4 26 8 28 9 2 1 0 -3 -3 -9z m200 -40 c-3 -5 -11 -10
-16 -10 -6 0 -7 5 -4 10 3 6 11 10 16 10 6 0 7 -4 4 -10z m-175 -24 c0 -2 -7
-9 -15 -16 -13 -11 -14 -10 -9 4 5 14 24 23 24 12z m2180 -11 c-7 -8 -17 -12
-23 -8 -6 4 -3 9 9 14 27 11 28 11 14 -6z m-1972 -92 c-15 -15 -31 -23 -35
-19 -4 4 3 16 17 26 37 29 49 24 18 -7z m-170 -12 c-13 -15 -25 -27 -27 -25
-4 4 39 54 47 54 2 0 -7 -13 -20 -29z m2202 -22 c0 -14 -17 -10 -23 5 -4 10
-1 13 9 9 7 -3 14 -9 14 -14z m-1991 -85 c-15 -16 -25 -21 -28 -13 -2 7 4 18
15 26 30 22 39 15 13 -13z m-149 -24 c0 -5 -5 -10 -11 -10 -5 0 -7 5 -4 10 3
6 8 10 11 10 2 0 4 -4 4 -10z m2249 -26 c-6 -8 -17 -14 -23 -14 -6 0 -3 5 7
11 9 6 14 15 11 21 -4 7 -2 8 5 4 9 -6 9 -11 0 -22z m-39 12 c0 -11 -19 -15
-25 -6 -3 5 1 10 9 10 9 0 16 -2 16 -4z m-2180 -20 c0 -8 -51 -13 -56 -5 -3 5
9 9 25 9 17 0 31 -2 31 -4z m170 -51 c-12 -13 -28 -22 -33 -18 -6 3 2 16 18
29 37 29 46 22 15 -11z m-174 -7 c-9 -12 -16 -19 -16 -15 0 11 24 47 28 42 2
-2 -3 -14 -12 -27z m2233 -52 c-3 -3 -11 5 -18 17 -13 21 -12 21 5 5 10 -10
16 -20 13 -22z m-2194 -6 c-26 -11 -45 -12 -45 -2 0 4 15 8 33 9 26 1 28 0 12
-7z m6 -43 c-10 -9 -11 -8 -5 6 3 10 9 15 12 12 3 -3 0 -11 -7 -18z m33 -69
c-3 -4 -12 -8 -20 -8 -8 0 -14 4 -14 8 0 4 9 8 19 8 11 0 17 -4 15 -8z m2107
-115 c13 -16 12 -17 -3 -4 -17 13 -22 21 -14 21 2 0 10 -8 17 -17z"/>
<path d="M1823 2304 c-3 -8 -1 -20 6 -27 8 -8 11 -4 11 16 0 30 -7 35 -17 11z"/>
<path d="M1985 2280 c3 -5 8 -10 11 -10 2 0 4 5 4 10 0 6 -5 10 -11 10 -5 0
-7 -4 -4 -10z"/>
<path d="M796 3764 c-3 -8 -2 -13 2 -10 5 3 21 -4 38 -15 50 -33 113 -18 114
29 0 20 -146 17 -154 -4z"/>
<path d="M744 3754 c3 -9 6 -20 6 -25 0 -5 7 -9 16 -9 13 0 15 -8 12 -35 -4
-37 0 -43 20 -23 10 10 14 8 18 -10 7 -26 13 -27 39 -8 17 12 17 16 6 30 -8 9
-22 14 -31 11 -13 -4 -21 3 -30 26 -15 34 -36 59 -52 59 -5 0 -7 -7 -4 -16z"/>
<path d="M1017 3656 c-4 -9 -1 -13 6 -10 7 2 21 -9 32 -26 11 -16 24 -30 28
-30 10 0 -45 79 -54 80 -4 0 -9 -7 -12 -14z"/>
<path d="M960 3658 c0 -9 41 -78 46 -78 10 0 2 19 -21 50 -14 19 -25 31 -25
28z"/>
<path d="M103 3503 c-9 -22 4 -94 19 -109 7 -7 20 -14 28 -16 8 -2 24 -23 36
-48 22 -44 22 -45 24 -15 2 18 4 23 7 13 8 -31 23 -19 23 17 0 29 -5 37 -26
45 -14 6 -30 8 -35 4 -5 -3 -9 5 -9 16 0 13 8 24 20 27 25 7 25 11 -4 46 -25
31 -74 43 -83 20z"/>
<path d="M446 3431 c-4 -5 -3 -16 0 -25 5 -12 9 -13 24 -3 14 8 16 15 8 24
-12 15 -25 17 -32 4z"/>
<path d="M317 3413 c-4 -3 -7 -11 -7 -17 0 -6 5 -5 12 2 6 6 9 14 7 17 -3 3
-9 2 -12 -2z"/>
<path d="M60 3365 c-12 -14 -12 -21 0 -42 21 -36 30 -34 45 10 7 20 9 37 5 37
-5 0 -15 2 -23 5 -7 3 -20 -1 -27 -10z"/>
<path d="M450 3349 c0 -5 5 -7 10 -4 6 3 10 8 10 11 0 2 -4 4 -10 4 -5 0 -10
-5 -10 -11z"/>
<path d="M154 3336 c6 -16 4 -17 -9 -6 -12 10 -19 10 -27 2 -8 -8 -4 -21 16
-47 15 -19 28 -35 30 -35 1 0 1 15 -1 33 -3 24 -2 29 6 17 9 -13 11 -13 11 1
0 8 -7 24 -16 35 -15 18 -15 18 -10 0z"/>
<path d="M0 3200 c0 -52 4 -89 9 -86 5 3 7 15 4 25 -6 24 14 64 29 55 7 -4 8
4 3 27 -7 30 -6 32 9 20 14 -12 16 -10 16 13 0 19 -5 26 -19 26 -11 0 -26 3
-35 6 -14 5 -16 -6 -16 -86z"/>
<path d="M105 3269 c5 -15 4 -19 -5 -14 -9 6 -9 3 -1 -14 12 -21 51 -30 51
-10 0 18 -19 46 -35 53 -13 5 -15 1 -10 -15z"/>
<path d="M930 3270 c0 -5 5 -10 11 -10 5 0 7 5 4 10 -3 6 -8 10 -11 10 -2 0
-4 -4 -4 -10z"/>
<path d="M607 3254 c-4 -4 -7 -14 -7 -23 0 -14 2 -14 10 -1 8 12 10 12 10 1 0
-8 3 -12 6 -8 3 3 2 13 -3 22 -5 8 -12 12 -16 9z"/>
<path d="M210 3231 c0 -11 -7 -27 -16 -35 -8 -9 -16 -26 -17 -38 -1 -13 -8
-28 -17 -35 -8 -7 -11 -13 -6 -13 6 0 3 -6 -5 -12 -8 -7 -21 -26 -27 -41 -11
-26 -10 -31 16 -55 15 -15 38 -44 51 -64 l22 -38 -25 -11 c-14 -7 -26 -16 -26
-21 0 -15 23 -8 41 14 18 20 22 20 59 8 22 -7 37 -17 34 -21 -3 -5 -1 -9 4 -9
6 0 13 8 16 17 6 15 8 15 16 3 6 -9 10 -10 10 -3 0 6 15 17 34 23 46 15 75 -2
74 -42 -1 -17 -5 -25 -10 -20 -10 10 -58 4 -58 -7 0 -9 43 -36 57 -36 7 0 31
-18 55 -40 23 -22 36 -32 29 -22 -16 21 -15 23 21 32 21 5 29 2 39 -17 15 -29
28 -38 45 -31 9 3 11 11 5 21 -4 10 -6 23 -4 30 3 7 -5 12 -21 12 -14 0 -26 5
-26 11 0 6 9 9 20 6 25 -7 34 7 20 32 -6 11 -6 22 -1 25 10 7 21 -16 21 -44 0
-11 5 -30 11 -44 11 -23 13 -24 34 -10 13 8 25 24 28 36 5 16 3 18 -6 9 -6 -6
-18 -11 -27 -11 -12 0 -13 2 -1 9 21 13 6 59 -22 64 -17 3 -16 5 8 6 17 1 37
6 45 11 13 9 11 13 -10 30 -33 26 -54 25 -69 -2 l-11 -23 6 23 c3 14 1 22 -8
22 -7 0 -3 8 10 18 l23 18 -24 22 c-18 17 -31 21 -51 16 -29 -7 -34 -25 -12
-43 8 -7 12 -20 9 -30 -3 -12 4 -25 18 -35 31 -21 5 -22 -46 -1 -27 12 -41 27
-56 60 -11 25 -24 45 -28 45 -13 0 14 -71 30 -80 7 -5 10 -12 6 -17 -4 -4 -21
8 -38 27 -41 47 -51 67 -39 75 14 8 13 46 -2 78 -14 30 -31 37 -22 10 5 -15 4
-16 -5 -3 -6 8 -11 25 -11 36 0 12 -7 24 -15 28 -8 3 -15 14 -15 24 0 26 -29
50 -39 34 -10 -17 -38 -5 -44 19 -7 27 -57 27 -57 0z m355 -381 c10 -11 14
-20 9 -20 -5 0 -15 9 -22 20 -7 11 -11 20 -9 20 2 0 12 -9 22 -20z"/>
<path d="M880 3240 l-55 -7 58 -1 c32 -1 57 2 57 8 0 6 -1 9 -2 8 -2 -1 -28
-4 -58 -8z"/>
<path d="M955 3240 c3 -5 17 -10 31 -10 13 0 24 5 24 10 0 6 -14 10 -31 10
-17 0 -28 -4 -24 -10z"/>
<path d="M688 3223 c23 -2 61 -2 85 0 23 2 4 4 -43 4 -47 0 -66 -2 -42 -4z"/>
<path d="M70 3212 c0 -4 7 -16 15 -26 12 -16 18 -17 27 -8 9 9 9 15 0 24 -13
13 -42 20 -42 10z"/>
<path d="M2781 3211 c-10 -7 -7 -9 12 -8 14 1 23 5 20 10 -6 9 -15 9 -32 -2z"/>
<path d="M41 3171 c-21 -13 -5 -41 24 -41 27 0 33 18 13 38 -14 14 -19 15 -37
3z"/>
<path d="M600 3120 c-12 -8 -10 -10 8 -10 13 0 20 4 17 10 -7 12 -6 12 -25 0z"/>
<path d="M615 3080 c-4 -6 -14 -9 -24 -5 -9 3 -1 -6 17 -20 17 -15 32 -33 32
-41 0 -21 60 -74 79 -70 9 2 24 6 33 10 21 9 33 37 13 30 -8 -3 -24 1 -37 10
-18 13 -19 16 -5 16 9 0 17 5 17 10 0 6 -17 10 -37 10 -45 0 -58 8 -58 34 0
22 -20 32 -30 16z"/>
<path d="M0 3047 c0 -10 8 -17 18 -17 9 0 13 4 7 8 -5 4 -13 11 -17 16 -5 5
-8 2 -8 -7z"/>
<path d="M545 3030 c3 -5 13 -10 21 -10 8 0 14 5 14 10 0 6 -9 10 -21 10 -11
0 -17 -4 -14 -10z"/>
<path d="M768 3013 c7 -3 16 -2 19 1 4 3 -2 6 -13 5 -11 0 -14 -3 -6 -6z"/>
<path d="M47 2961 c-9 -16 -17 -33 -17 -38 1 -9 26 21 41 50 17 29 -6 19 -24
-12z"/>
<path d="M112 2968 c-6 -13 -14 -34 -17 -48 -7 -24 -7 -25 9 -5 13 16 15 17
10 3 -3 -10 -2 -18 3 -18 5 0 10 20 10 45 0 25 -1 45 -2 45 -1 0 -7 -10 -13
-22z"/>
<path d="M27 2896 c-27 -10 -27 -11 -27 -98 0 -85 1 -89 25 -98 27 -10 36 -54
13 -63 -8 -3 -6 -6 5 -6 10 -1 22 -13 28 -27 11 -32 14 -29 -36 -41 l-40 -10
55 -7 c30 -5 62 -12 71 -17 25 -13 220 -17 259 -5 19 6 53 23 75 38 22 14 55
29 72 33 36 7 55 25 27 25 -10 0 -35 12 -55 26 -32 22 -42 24 -73 16 -19 -6
-44 -8 -54 -5 -12 3 -22 -4 -30 -21 -15 -34 -51 -34 -88 0 -15 15 -42 28 -59
29 -16 1 -34 4 -40 5 -5 2 -22 -2 -37 -10 -32 -15 -58 -1 -58 31 0 11 -4 19
-10 19 -5 0 -10 5 -10 11 0 5 4 8 9 5 5 -3 14 8 20 26 20 58 10 88 -19 53 -21
-25 -33 -17 -16 10 9 14 14 30 11 35 -3 6 -2 10 3 10 13 0 22 24 14 36 -5 7
-17 7 -35 0z m429 -282 c-3 -8 -11 -14 -18 -14 -9 0 -9 3 0 12 7 7 13 21 13
33 1 17 2 18 6 2 3 -10 2 -25 -1 -33z"/>
<path d="M415 2880 c3 -5 11 -10 16 -10 6 0 7 5 4 10 -3 6 -11 10 -16 10 -6 0
-7 -4 -4 -10z"/>
<path d="M380 2870 c0 -5 5 -10 11 -10 5 0 7 5 4 10 -3 6 -8 10 -11 10 -2 0
-4 -4 -4 -10z"/>
<path d="M710 2830 c0 -5 5 -10 10 -10 6 0 10 5 10 10 0 6 -4 10 -10 10 -5 0
-10 -4 -10 -10z"/>
<path d="M101 2727 c-16 -42 -12 -68 5 -28 8 18 13 38 11 45 -3 6 -10 -2 -16
-17z"/>
<path d="M656 2715 c-6 -17 -38 -20 -64 -6 -23 12 -54 -10 -41 -30 7 -11 9
-10 9 5 0 15 3 16 14 7 23 -19 77 -9 94 17 8 12 10 22 4 22 -5 0 -12 -7 -16
-15z"/>
<path d="M130 1902 c-14 -11 -36 -22 -50 -26 -69 -20 -78 -27 -78 -60 l0 -33
54 22 c30 12 62 29 72 37 9 8 25 18 35 21 20 8 21 17 4 41 -12 16 -14 16 -37
-2z m-6 -41 c-5 -5 -20 -11 -34 -14 -14 -2 -19 -2 -12 0 6 3 12 8 12 13 0 9
31 19 39 13 3 -2 0 -7 -5 -12z"/>
<path d="M135 1763 c-113 -45 -135 -56 -135 -65 0 -12 28 -3 109 33 75 34 71
33 71 14 0 -8 -7 -15 -16 -15 -24 0 -164 -61 -164 -71 0 -5 1 -9 3 -9 12 1
172 71 180 79 6 6 19 11 29 11 19 0 22 8 12 34 -8 20 -16 19 -89 -11z"/>
<path d="M1112 1589 c6 -16 12 -28 14 -26 5 5 -13 57 -20 57 -3 0 0 -14 6 -31z"/>
<path d="M1065 1585 c7 -31 12 -41 19 -34 2 2 -3 18 -11 34 l-14 30 6 -30z"/>
<path d="M1018 1578 c5 -7 12 -22 15 -33 4 -16 5 -14 6 6 1 17 -5 29 -15 33
-13 5 -14 3 -6 -6z"/>
<path d="M990 1561 c0 -11 4 -22 9 -25 4 -3 6 6 3 19 -5 30 -12 33 -12 6z"/>
<path d="M920 1557 c0 -3 15 -14 34 -25 23 -14 33 -16 30 -7 -3 7 -13 16 -22
19 -9 3 -23 9 -29 12 -7 3 -13 3 -13 1z"/>
<path d="M2484 1272 c-6 -4 -15 -18 -19 -32 -7 -22 -6 -23 9 -11 19 16 20 9 5
-22 -8 -17 -4 -15 18 8 22 22 27 35 21 48 -9 19 -17 21 -34 9z"/>
<path d="M2026 1217 c3 -10 9 -15 12 -12 3 3 0 11 -7 18 -10 9 -11 8 -5 -6z"/>
<path d="M2055 1140 c3 -5 8 -10 11 -10 2 0 4 5 4 10 0 6 -5 10 -11 10 -5 0
-7 -4 -4 -10z"/>
<path d="M2597 1049 c-14 -8 -16 -14 -7 -24 7 -8 9 -24 4 -37 -6 -20 -5 -21
10 -9 9 7 16 19 16 26 0 8 5 15 10 17 7 2 6 9 -2 20 -10 13 -17 15 -31 7z"/>
<path d="M2096 1037 c3 -10 9 -15 12 -12 3 3 0 11 -7 18 -10 9 -11 8 -5 -6z"/>
<path d="M2707 829 c-14 -8 -16 -14 -7 -24 7 -8 9 -24 5 -37 -6 -22 -6 -22 9
-4 9 11 16 26 16 34 0 7 5 10 10 7 12 -7 12 -3 4 19 -7 19 -12 19 -37 5z"/>
<path d="M138 643 c6 -2 18 -2 25 0 6 3 1 5 -13 5 -14 0 -19 -2 -12 -5z"/>
<path d="M2800 581 c-6 -12 -7 -21 -1 -21 10 0 24 30 17 37 -2 3 -9 -5 -16
-16z"/>
<path d="M445 569 c-4 -6 -5 -12 -2 -15 2 -3 7 2 10 11 7 17 1 20 -8 4z"/>
<path d="M563 233 c-20 -8 -15 -23 7 -23 11 0 20 -5 20 -12 0 -6 2 -9 5 -7 6
7 -6 49 -14 48 -3 0 -12 -3 -18 -6z"/>
<path d="M91 194 c0 -11 3 -14 6 -6 3 7 2 16 -1 19 -3 4 -6 -2 -5 -13z"/>
<path d="M1610 136 c0 -2 7 -7 16 -10 8 -3 12 -2 9 4 -6 10 -25 14 -25 6z"/>
<path d="M313 123 c9 -2 23 -2 30 0 6 3 -1 5 -18 5 -16 0 -22 -2 -12 -5z"/>
<path d="M110 109 c-22 -6 -21 -7 10 -7 19 -1 53 3 75 7 l40 9 -50 -1 c-28 -1
-61 -4 -75 -8z"/>
<path d="M601 104 c0 -11 3 -14 6 -6 3 7 2 16 -1 19 -3 4 -6 -2 -5 -13z"/>
<path d="M1770 79 c0 -5 9 -9 20 -9 11 0 20 2 20 4 0 2 -9 6 -20 9 -11 3 -20
1 -20 -4z"/>
</g>
</svg>
