<?xml version="1.0" standalone="no"?>
<!DOCTYPE svg PUBLIC "-//W3C//DTD SVG 20010904//EN"
 "http://www.w3.org/TR/2001/REC-SVG-20010904/DTD/svg10.dtd">
<svg version="1.0" xmlns="http://www.w3.org/2000/svg"
 width="225.000000pt" height="225.000000pt" viewBox="0 0 225.000000 225.000000"
 preserveAspectRatio="xMidYMid meet">

<g transform="translate(0.000000,225.000000) scale(0.100000,-0.100000)"
fill="#000000" stroke="none">
<path d="M651 1849 c-117 -60 -155 -231 -78 -347 55 -81 141 -113 238 -88 l54
14 110 -54 c62 -31 138 -60 175 -68 l65 -13 3 -121 c2 -96 -1 -128 -13 -152
-48 -92 -202 -92 -247 0 -15 29 -18 62 -18 183 0 115 -3 148 -12 144 -10 -3
-13 -42 -13 -153 0 -131 2 -154 21 -188 27 -53 73 -76 149 -76 125 0 164 57
165 241 l0 117 75 17 c41 9 78 21 81 27 5 7 -2 9 -22 4 -16 -3 -53 -9 -81 -12
-45 -6 -53 -4 -53 10 0 20 -19 21 -26 1 -13 -33 -119 -6 -254 66 l-78 42 33
43 c87 113 64 271 -51 353 -52 37 -160 42 -223 10z m205 -29 c104 -65 121
-239 31 -337 l-20 -22 -43 25 c-55 32 -102 46 -136 38 -43 -9 -33 -22 15 -22
41 1 127 -33 127 -51 0 -5 -10 -11 -22 -15 -45 -12 -94 -6 -138 17 -156 78
-137 334 29 388 40 13 119 2 157 -21z"/>
<path d="M1120 1673 c0 -167 10 -201 69 -240 26 -18 48 -23 93 -23 78 0 119
20 148 73 22 38 25 57 28 190 4 131 3 147 -12 147 -14 0 -16 -17 -16 -137 0
-158 -15 -210 -69 -237 -66 -35 -161 -12 -196 47 -16 27 -20 56 -23 180 -2 81
-8 147 -13 147 -5 0 -9 -66 -9 -147z"/>
<path d="M1610 1615 l0 -205 100 0 c82 0 100 3 100 15 0 12 -16 15 -85 15
l-86 0 3 93 3 92 73 0 c51 0 72 4 72 13 0 8 -22 12 -75 12 l-75 0 0 75 0 75
85 0 c50 0 85 4 85 10 0 6 -40 10 -100 10 l-100 0 0 -205z"/>
<path d="M548 1344 c-16 -5 -18 -24 -18 -210 0 -175 2 -204 15 -204 12 0 15
16 15 85 l0 85 49 0 c49 0 51 -1 95 -59 25 -32 59 -71 76 -85 31 -26 80 -36
80 -16 0 6 -7 10 -15 10 -20 0 -78 53 -121 111 l-36 49 31 35 c80 91 30 196
-96 201 -32 2 -66 0 -75 -2z m153 -53 c33 -33 37 -67 14 -111 -22 -43 -53 -60
-107 -60 l-48 0 0 100 0 100 56 0 c48 0 59 -4 85 -29z"/>
<path d="M537 863 c-4 -3 -7 -98 -7 -210 l0 -203 75 0 c123 0 165 28 165 109
0 43 -34 95 -71 106 -20 7 -20 8 5 34 31 32 43 89 26 120 -6 13 -27 29 -45 37
-35 14 -136 19 -148 7z m148 -37 c36 -24 34 -74 -4 -115 -26 -28 -35 -32 -75
-29 l-46 3 0 77 c0 51 4 78 13 82 21 9 86 -1 112 -18z m-7 -180 c123 -63 58
-197 -83 -170 l-35 6 0 89 0 89 45 0 c26 0 58 -6 73 -14z"/>
<path d="M904 857 c-2 -7 -3 -100 -2 -206 2 -145 6 -195 16 -199 9 -3 12 43
12 207 0 138 -4 211 -10 211 -6 0 -13 -6 -16 -13z"/>
<path d="M1116 858 c-11 -33 -66 -402 -61 -406 14 -14 25 25 45 158 11 80 24
155 28 167 5 17 21 -13 72 -138 36 -87 70 -159 76 -159 5 0 43 72 84 160 40
88 75 159 76 157 2 -2 13 -66 24 -143 29 -202 29 -204 46 -204 10 0 14 6 10
18 -2 9 -17 104 -33 210 -15 106 -32 191 -37 189 -5 -2 -43 -75 -84 -163 -40
-87 -77 -162 -81 -166 -4 -4 -38 67 -75 158 -68 163 -82 188 -90 162z"/>
</g>
</svg>
