<?xml version="1.0" standalone="no"?>
<!DOCTYPE svg PUBLIC "-//W3C//DTD SVG 20010904//EN"
 "http://www.w3.org/TR/2001/REC-SVG-20010904/DTD/svg10.dtd">
<svg version="1.0" xmlns="http://www.w3.org/2000/svg"
 width="285.000000pt" height="380.000000pt" viewBox="0 0 285.000000 380.000000"
 preserveAspectRatio="xMidYMid meet">

<g transform="translate(0.000000,380.000000) scale(0.100000,-0.100000)"
fill="#000000" stroke="none">
<path d="M0 3746 l0 -55 43 -5 c23 -2 89 -10 147 -17 58 -6 121 -13 140 -16
26 -3 31 -2 20 6 -8 5 -44 13 -80 16 -141 14 -200 25 -200 37 0 6 -9 8 -20 5
-11 -3 -18 -1 -15 3 5 9 297 5 385 -4 l45 -5 -40 9 c-51 12 -83 16 -171 25
-71 7 -104 18 -92 31 7 6 49 1 273 -32 55 -9 132 -19 170 -24 39 -5 124 -16
190 -24 125 -16 207 -20 120 -5 -27 4 -135 20 -240 34 -104 14 -230 32 -280
40 -182 30 -223 35 -308 35 l-87 0 0 -54z"/>
<path d="M370 3797 c3 -3 37 -8 75 -12 39 -3 120 -13 180 -21 189 -26 237 -25
80 2 -140 23 -346 42 -335 31z"/>
<path d="M851 3796 c2 -2 51 -9 109 -16 58 -6 130 -16 160 -22 30 -6 107 -17
170 -24 137 -16 397 -49 495 -63 39 -6 108 -15 155 -21 47 -6 101 -15 120 -20
19 -6 58 -10 85 -10 58 0 128 -17 120 -30 -5 -8 71 -26 90 -21 58 16 233 1
246 -21 3 -5 21 -10 40 -10 19 0 42 -5 52 -10 10 -5 17 -5 17 0 0 11 48 3 55
-8 6 -9 -81 -24 -94 -16 -12 8 -118 20 -111 13 5 -5 175 -41 249 -52 34 -6 42
-4 39 6 -2 7 -21 14 -42 16 -41 2 -63 13 -28 13 12 0 22 6 22 13 0 8 3 8 8 1
4 -6 15 -13 25 -17 16 -6 17 5 17 148 l0 155 -817 0 c-498 0 -813 -4 -808 -9
6 -5 41 -12 78 -15 37 -3 72 -8 77 -11 6 -3 34 -6 62 -7 29 0 59 -5 66 -10 7
-6 38 -10 69 -9 42 1 54 -2 46 -10 -8 -8 -46 -7 -145 5 -248 31 -353 45 -407
55 -51 10 -229 16 -220 7z m742 -43 c-7 -2 -19 -2 -25 0 -7 3 -2 5 12 5 14 0
19 -2 13 -5z m72 -16 c-16 -12 -12 -15 36 -20 30 -3 100 -9 156 -13 76 -5 100
-10 96 -20 -3 -9 -12 -10 -31 -4 -15 4 -86 14 -158 21 -120 11 -131 14 -127
30 3 11 14 19 26 19 20 0 20 -1 2 -13z m298 -24 c-7 -2 -21 -2 -30 0 -10 3 -4
5 12 5 17 0 24 -2 18 -5z m97 -13 c-20 -13 -33 -13 -25 0 3 6 14 10 23 10 15
0 15 -2 2 -10z m103 -41 c42 -6 77 -16 77 -22 0 -5 -6 -7 -14 -4 -8 3 -61 11
-118 18 -56 6 -106 15 -110 18 -11 9 79 4 165 -10z m237 -30 c36 -8 256 -39
283 -39 4 0 7 -4 7 -9 0 -5 -26 -6 -57 -4 -64 5 -282 48 -291 57 -8 8 6 7 58
-5z"/>
<path d="M883 3733 c15 -2 37 -2 50 0 12 2 0 4 -28 4 -27 0 -38 -2 -22 -4z"/>
<path d="M1040 3714 c184 -29 603 -80 480 -58 -14 2 -47 8 -75 14 -51 9 -74
12 -230 30 -50 5 -115 14 -144 20 -30 5 -68 10 -85 9 -17 -1 7 -7 54 -15z"/>
<path d="M488 3703 c6 -2 18 -2 25 0 6 3 1 5 -13 5 -14 0 -19 -2 -12 -5z"/>
<path d="M568 3693 c7 -3 16 -2 19 1 4 3 -2 6 -13 5 -11 0 -14 -3 -6 -6z"/>
<path d="M633 3683 c9 -2 23 -2 30 0 6 3 -1 5 -18 5 -16 0 -22 -2 -12 -5z"/>
<path d="M693 3673 c9 -2 23 -2 30 0 6 3 -1 5 -18 5 -16 0 -22 -2 -12 -5z"/>
<path d="M988 3673 c12 -2 30 -2 40 0 9 3 -1 5 -23 4 -22 0 -30 -2 -17 -4z"/>
<path d="M760 3665 c28 -8 223 -35 244 -34 32 2 -110 26 -189 32 -38 3 -63 4
-55 2z"/>
<path d="M1073 3663 c9 -2 25 -2 35 0 9 3 1 5 -18 5 -19 0 -27 -2 -17 -5z"/>
<path d="M380 3650 c17 -11 47 -14 36 -3 -3 4 -17 8 -29 10 -17 2 -19 1 -7 -7z"/>
<path d="M1143 3653 c9 -2 25 -2 35 0 9 3 1 5 -18 5 -19 0 -27 -2 -17 -5z"/>
<path d="M1201 3646 c2 -2 36 -6 74 -9 54 -4 61 -4 30 3 -40 9 -112 13 -104 6z"/>
<path d="M1040 3632 c0 -5 46 -15 103 -21 56 -7 120 -16 142 -21 64 -14 141
-23 132 -14 -4 4 -31 11 -60 15 -29 4 -63 10 -77 13 -14 4 -43 8 -65 10 -54 5
-136 17 -157 23 -10 2 -18 0 -18 -5z"/>
<path d="M518 3623 c7 -3 16 -2 19 1 4 3 -2 6 -13 5 -11 0 -14 -3 -6 -6z"/>
<path d="M558 3623 c7 -3 16 -2 19 1 4 3 -2 6 -13 5 -11 0 -14 -3 -6 -6z"/>
<path d="M1373 3623 c9 -2 25 -2 35 0 9 3 1 5 -18 5 -19 0 -27 -2 -17 -5z"/>
<path d="M1760 3621 c25 -9 107 -15 99 -7 -2 2 -31 6 -64 9 -39 4 -51 3 -35
-2z"/>
<path d="M8 3613 c7 -3 16 -2 19 1 4 3 -2 6 -13 5 -11 0 -14 -3 -6 -6z"/>
<path d="M1448 3613 c12 -2 30 -2 40 0 9 3 -1 5 -23 4 -22 0 -30 -2 -17 -4z"/>
<path d="M758 3593 c7 -3 16 -2 19 1 4 3 -2 6 -13 5 -11 0 -14 -3 -6 -6z"/>
<path d="M2198 3583 c6 -2 18 -2 25 0 6 3 1 5 -13 5 -14 0 -19 -2 -12 -5z"/>
<path d="M1440 3568 c0 -4 14 -8 30 -8 17 0 30 2 30 4 0 2 -13 6 -30 8 -16 3
-30 1 -30 -4z"/>
<path d="M1760 3570 c14 -4 39 -8 55 -8 29 0 29 0 5 8 -14 4 -38 8 -55 8 -29
0 -29 0 -5 -8z"/>
<path d="M2128 3563 c6 -2 18 -2 25 0 6 3 1 5 -13 5 -14 0 -19 -2 -12 -5z"/>
<path d="M2440 3559 c0 -5 5 -7 10 -4 6 3 10 8 10 11 0 2 -4 4 -10 4 -5 0 -10
-5 -10 -11z"/>
<path d="M2275 3544 c44 -8 117 -18 162 -24 46 -6 91 -13 100 -17 13 -4 15 -3
7 6 -6 6 -71 20 -145 31 -152 23 -251 26 -124 4z"/>
<path d="M2218 3533 c6 -2 18 -2 25 0 6 3 1 5 -13 5 -14 0 -19 -2 -12 -5z"/>
<path d="M2168 3513 c6 -2 18 -2 25 0 6 3 1 5 -13 5 -14 0 -19 -2 -12 -5z"/>
<path d="M2265 3499 c28 -5 82 -13 122 -19 40 -5 85 -12 100 -16 19 -4 25 -3
18 3 -5 6 -62 18 -126 27 -120 17 -201 20 -114 5z"/>
<path d="M1838 3493 c7 -3 16 -2 19 1 4 3 -2 6 -13 5 -11 0 -14 -3 -6 -6z"/>
<path d="M2258 3463 c6 -2 18 -2 25 0 6 3 1 5 -13 5 -14 0 -19 -2 -12 -5z"/>
<path d="M2538 3463 c12 -2 30 -2 40 0 9 3 -1 5 -23 4 -22 0 -30 -2 -17 -4z"/>
<path d="M2613 3453 c9 -2 25 -2 35 0 9 3 1 5 -18 5 -19 0 -27 -2 -17 -5z"/>
<path d="M2697 3440 c18 -4 60 -10 93 -14 48 -6 60 -4 60 7 0 11 -20 14 -92
14 -61 0 -82 -2 -61 -7z"/>
<path d="M21 3392 c-1 -8 -6 -10 -13 -6 -7 4 -5 -1 4 -11 21 -22 29 -18 17 10
-4 11 -8 14 -8 7z"/>
<path d="M2745 3390 c4 -6 11 -7 17 -4 6 4 14 0 19 -7 4 -7 11 -10 16 -6 4 5
1 12 -7 17 -20 13 -53 13 -45 0z"/>
<path d="M2810 3375 c0 -8 9 -15 20 -15 11 0 20 7 20 15 0 8 -9 15 -20 15 -11
0 -20 -7 -20 -15z"/>
<path d="M2748 3333 c6 -2 18 -2 25 0 6 3 1 5 -13 5 -14 0 -19 -2 -12 -5z"/>
<path d="M2805 3320 c28 -12 45 -12 45 0 0 6 -15 10 -32 9 -28 0 -30 -2 -13
-9z"/>
<path d="M621 2703 c-7 -14 -12 -15 -25 -4 -20 17 -29 10 -48 -36 -19 -46 -71
-429 -62 -460 4 -14 0 -28 -11 -39 -13 -14 -16 -28 -11 -60 3 -23 1 -44 -4
-46 -5 -2 -23 -88 -40 -193 -62 -385 -90 -567 -90 -597 0 -39 32 -91 66 -107
33 -15 184 -43 371 -71 78 -11 148 -22 155 -25 7 -2 88 -13 180 -25 92 -11
193 -28 225 -36 32 -8 87 -18 123 -21 36 -3 67 -9 70 -14 3 -4 30 -6 60 -5 30
2 64 0 75 -4 11 -4 56 -11 100 -14 81 -7 320 -45 447 -71 91 -20 143 -19 179
2 32 19 59 77 59 126 0 18 20 192 44 387 25 195 54 434 66 530 11 96 30 234
41 307 18 119 19 135 5 161 -23 44 -37 52 -129 66 -92 15 -104 15 -126 2 -9
-6 -18 -4 -25 6 -8 11 -57 22 -159 37 l-148 22 -18 -22 -17 -22 -21 27 c-20
24 -32 28 -139 41 -65 8 -125 17 -134 20 -8 2 -51 9 -95 15 -44 5 -120 16
-169 23 l-88 14 6 -45 c3 -25 2 -50 -3 -56 -4 -6 -11 -54 -14 -106 -3 -52 -4
-89 -1 -82 3 6 10 12 16 12 5 0 1 -15 -10 -34 -11 -19 -25 -60 -32 -91 -6 -31
-14 -55 -16 -52 -2 2 0 27 6 55 7 40 6 59 -6 88 -20 47 -11 70 9 24 9 -19 16
-33 17 -30 7 80 7 207 0 215 -5 6 -10 33 -12 60 l-3 50 -115 17 c-188 28 -198
29 -204 15 -3 -8 -9 -7 -19 5 -10 13 -50 23 -147 38 -161 24 -167 24 -179 3z
m186 -115 c-7 -27 -15 -48 -19 -48 -5 0 -8 -8 -8 -17 0 -10 -5 -25 -10 -33 -8
-12 -11 -13 -19 -1 -10 15 -3 51 10 51 5 0 6 6 3 14 -7 17 20 72 38 79 17 6
17 8 5 -45z m294 45 c0 -5 3 -25 5 -46 4 -29 1 -38 -8 -34 -7 2 -13 13 -12 25
0 11 -4 20 -10 19 -6 -1 -12 8 -14 21 -3 17 1 22 17 22 12 0 21 -3 22 -7z
m-398 -149 c2 -46 -1 -59 -13 -59 -9 0 -15 9 -15 25 0 14 -4 31 -8 38 -5 6 -4
12 0 12 5 0 7 17 5 38 -4 35 -3 36 13 21 12 -12 17 -35 18 -75z m209 33 c-12
-13 -22 -29 -22 -35 0 -7 -5 -12 -11 -12 -6 0 -20 -12 -31 -26 -13 -16 -24
-22 -30 -16 -11 11 7 52 22 52 6 0 10 8 10 18 0 14 2 15 10 2 9 -13 10 -13 10
1 0 21 20 39 44 39 19 0 19 -1 -2 -23z m956 -14 c8 -11 9 -19 2 -21 -5 -2 -10
-10 -10 -18 0 -24 -49 -17 -59 9 -19 49 35 73 67 30z m-377 -16 c6 -24 4 -29
-17 -38 -14 -5 -29 -9 -34 -9 -16 0 -23 49 -9 66 19 23 52 13 60 -19z m-443
-37 c-14 -22 -24 -19 -15 5 4 8 11 15 17 15 6 0 6 -7 -2 -20z m157 -16 c0 -16
-3 -29 -6 -29 -3 0 -13 -5 -21 -12 -11 -10 -18 -8 -32 9 -25 29 -5 70 33 65
21 -3 26 -9 26 -33z m632 -46 c-2 -13 -4 -5 -4 17 -1 22 1 32 4 23 2 -10 2
-28 0 -40z m340 11 c-7 -19 -12 -40 -10 -46 3 -7 -2 -13 -11 -13 -10 0 -16 -9
-16 -24 0 -14 -5 -28 -11 -32 -18 -10 -29 18 -16 40 6 12 10 28 9 36 -3 16 56
86 64 77 3 -3 -1 -20 -9 -38z m294 39 c0 -2 2 -23 5 -47 4 -33 2 -42 -8 -38
-7 2 -12 14 -11 26 2 12 -2 20 -9 18 -7 -1 -14 8 -16 21 -3 17 1 22 17 22 12
0 21 -1 22 -2z m-891 -68 c6 -11 16 -17 25 -14 19 8 19 -3 -1 -23 -8 -9 -13
-22 -10 -29 4 -10 -2 -14 -19 -14 -14 0 -26 -7 -29 -17 -16 -59 -26 -135 -20
-158 4 -18 3 -26 -3 -22 -6 4 -18 -36 -31 -96 -11 -56 -21 -91 -21 -77 -1 14
6 58 16 98 16 70 16 73 -3 87 -19 14 -19 15 1 20 17 5 24 22 37 86 16 78 16
81 -3 100 -24 24 -22 64 3 64 9 0 20 4 24 8 12 12 23 8 34 -13z m-870 -20
c-32 -24 -40 -16 -9 9 13 11 26 17 29 14 3 -2 -6 -13 -20 -23z m53 -14 c7 3 0
-5 -14 -19 -19 -17 -24 -29 -18 -38 6 -10 9 -10 9 -1 0 6 5 12 10 12 6 0 3
-11 -7 -25 -21 -28 -35 -33 -26 -8 5 12 2 15 -10 10 -9 -3 -17 -5 -17 -4 1 16
29 77 30 64 0 -31 20 -8 21 26 2 31 2 31 6 4 3 -17 9 -25 16 -21z m1291 2 c14
-33 15 -112 2 -125 -9 -10 -27 18 -24 37 2 8 0 20 -3 25 -6 11 0 95 8 95 2 0
10 -15 17 -32z m-214 12 c0 -5 -2 -10 -4 -10 -3 0 -8 5 -11 10 -3 6 -1 10 4
10 6 0 11 -4 11 -10z m-1151 -55 c0 -5 -6 -1 -14 9 -8 11 -15 24 -15 30 0 5 7
1 15 -10 8 -10 14 -23 14 -29z m1587 23 c-9 -13 -19 -31 -23 -40 -3 -10 -10
-18 -15 -18 -5 0 -18 -10 -28 -22 -15 -19 -21 -21 -32 -10 -11 11 -9 17 10 32
12 10 22 26 22 37 0 15 2 16 10 3 8 -12 10 -12 10 -1 0 16 29 40 49 41 10 0
10 -5 -3 -22z m-449 -25 c-3 -10 -5 -4 -5 12 0 17 2 24 5 18 2 -7 2 -21 0 -30z
m-872 16 c4 -6 12 -8 19 -6 22 9 46 -20 49 -58 2 -32 -1 -38 -20 -41 -12 -2
-25 1 -28 7 -5 7 -12 6 -21 -2 -34 -28 -67 51 -37 88 20 25 29 28 38 12z
m-245 -106 c0 -7 -4 -13 -10 -13 -5 0 -10 6 -10 13 0 6 -9 23 -20 37 -31 40
-23 48 10 10 16 -19 29 -41 30 -47z m775 19 c14 -9 16 -15 8 -18 -7 -3 -13
-12 -13 -20 0 -8 -7 -14 -15 -14 -18 0 -20 -47 -5 -99 6 -21 6 -39 0 -45 -5
-7 -10 -34 -13 -61 -2 -28 -4 9 -5 82 -1 75 -6 134 -12 138 -5 3 -10 17 -10
30 0 19 5 23 23 22 12 -1 31 -8 42 -15z m105 -12 c0 -5 7 -10 15 -10 22 0 19
-41 -4 -47 -13 -3 -24 -25 -39 -76 -11 -40 -20 -81 -20 -92 1 -11 0 -36 -1
-55 l-3 -35 -8 40 c-7 36 9 122 35 186 3 10 1 20 -4 24 -6 3 -9 10 -6 15 3 5
1 11 -5 15 -15 9 -12 25 5 25 8 0 15 5 15 10 0 6 5 10 10 10 6 0 10 -4 10 -10z
m226 -40 c1 -14 3 -29 4 -35 5 -22 -1 -34 -15 -29 -8 4 -15 15 -15 26 0 10 -4
17 -9 14 -10 -6 -22 40 -12 49 3 3 14 5 26 3 13 -2 20 -11 21 -28z m231 -2
c-3 -7 -5 -2 -5 12 0 14 2 19 5 13 2 -7 2 -19 0 -25z m76 -2 c8 5 8 2 0 -7
-15 -16 -17 -33 -3 -24 23 14 8 -15 -17 -33 -16 -11 -25 -24 -21 -28 4 -4 15
-1 24 7 16 13 16 12 6 -7 -6 -11 -18 -26 -26 -34 -9 -7 -16 -21 -16 -31 0 -10
-4 -21 -10 -24 -5 -3 -10 2 -10 13 0 10 -9 27 -20 37 -24 22 -27 43 -3 24 14
-13 16 -11 11 11 -3 14 -9 34 -13 44 -6 14 -5 17 3 12 7 -4 12 -2 12 6 0 7 9
19 20 26 26 16 26 4 -1 -24 -16 -18 -19 -26 -10 -41 9 -16 10 -15 11 10 0 15
5 27 10 27 6 0 10 -5 10 -11 0 -27 20 6 21 34 0 18 3 26 6 19 2 -6 10 -9 16
-6z m-1270 -40 c4 4 11 -6 17 -21 12 -32 10 -37 -25 -41 -33 -3 -55 36 -34 59
9 9 18 12 25 6 6 -5 14 -6 17 -3z m339 -21 c5 -25 -18 -62 -42 -66 -25 -4 -50
12 -50 32 0 22 26 53 50 61 23 8 38 -1 42 -27z m518 16 c0 -3 -5 -13 -10 -21
-12 -19 -35 2 -27 24 6 15 37 12 37 -3z m70 -3 c-1 -20 -29 -65 -30 -48 0 8
-3 25 -6 38 -5 18 -2 22 15 22 11 0 21 -6 21 -12z m538 -7 c9 -5 30 -14 45
-20 18 -7 27 -17 24 -25 -3 -7 -1 -18 4 -23 5 -5 7 -17 4 -25 -5 -12 -20 -16
-59 -16 -51 1 -53 2 -66 36 -11 31 -10 37 4 47 9 7 16 17 16 24 0 13 5 14 28
2z m-1788 -26 c16 -19 1 -39 -22 -30 -10 4 -14 14 -11 26 6 23 16 24 33 4z
m1198 -25 c13 -11 21 -24 17 -30 -3 -5 -2 -10 4 -10 5 0 4 -12 -5 -27 -22 -44
-18 -56 12 -37 19 13 24 23 20 40 -7 24 10 42 25 27 13 -13 -11 -60 -38 -74
-48 -26 -79 -137 -55 -196 4 -12 9 4 12 46 3 42 10 66 18 69 11 3 12 0 4 -14
-5 -11 -12 -52 -15 -91 -3 -40 -11 -81 -17 -90 -9 -16 -10 -15 -5 5 4 13 -1
53 -11 88 -17 64 -17 65 5 112 29 63 35 178 9 176 -10 -1 -18 4 -18 12 0 19
10 17 38 -6z m-997 -20 c5 0 9 -13 9 -30 0 -20 -7 -33 -22 -42 -37 -20 -46
-18 -53 14 -8 33 19 71 43 62 8 -2 18 -4 23 -4z m-221 -14 c0 -8 -4 -17 -9
-21 -12 -7 -24 12 -16 25 9 15 25 12 25 -4z m400 -2 c0 -17 -22 -14 -28 4 -2
7 3 12 12 12 9 0 16 -7 16 -16z m960 -19 c0 -26 -7 -30 -28 -17 -16 10 -5 42
14 42 8 0 14 -10 14 -25z m-872 -18 c15 -18 3 -60 -15 -53 -8 3 -18 6 -23 6
-16 0 -18 40 -2 50 23 13 28 12 40 -3z m848 -43 c-5 -13 -10 -14 -18 -6 -6 6
-8 18 -4 28 5 13 10 14 18 6 6 -6 8 -18 4 -28z m-522 -9 c11 -42 -35 -78 -76
-61 -40 18 -5 86 43 86 20 0 28 -6 33 -25z m-467 9 c45 -12 27 -77 -22 -80
-27 -2 -44 13 -43 39 3 42 20 53 65 41z m1641 0 c19 -5 23 -12 20 -38 -2 -17
-6 -29 -9 -26 -3 3 -13 0 -21 -7 -11 -10 -18 -8 -32 9 -15 17 -16 24 -5 44 14
26 14 26 47 18z m-534 -11 c4 -5 13 -8 19 -8 15 0 20 -35 9 -53 -5 -7 -17 -15
-28 -16 -28 -4 -80 -179 -65 -220 8 -22 8 -32 -1 -37 -7 -5 -12 -26 -11 -51 2
-34 1 -38 -6 -18 -15 48 -22 110 -11 110 5 0 10 9 10 20 0 10 11 54 25 97 29
91 29 93 11 93 -9 0 -12 8 -8 25 2 15 0 25 -7 25 -6 0 -11 5 -11 11 0 6 7 8
15 5 9 -3 18 1 21 9 7 16 26 20 38 8z m264 -31 c21 -26 14 -42 -18 -42 -35 0
-59 32 -40 55 13 16 39 10 58 -13z m-543 8 c3 -6 3 -19 0 -30 -5 -16 -10 -18
-26 -10 -15 9 -17 15 -9 30 12 22 25 26 35 10z m-1150 -38 c0 -18 -4 -32 -10
-33 -5 0 -15 -5 -21 -10 -8 -6 -17 -1 -27 15 -14 21 -14 26 -1 45 9 13 23 19
37 17 17 -2 22 -10 22 -34z m265 -69 c-11 -17 -11 -17 -6 0 3 10 7 26 7 35 1
15 2 15 6 0 2 -10 -1 -25 -7 -35z m1286 26 c5 1 9 -14 9 -31 0 -21 -5 -32 -12
-30 -7 1 -13 -2 -13 -8 0 -19 -39 -10 -45 10 -7 24 3 63 15 55 4 -3 11 3 14
12 6 14 9 15 15 4 5 -7 12 -12 17 -12z m194 1 c0 -12 -28 -25 -36 -17 -9 9 6
27 22 27 8 0 14 -5 14 -10z m-1032 -53 c2 -11 -3 -17 -15 -17 -11 0 -24 -4
-31 -10 -9 -7 -9 -7 -2 2 6 7 10 20 10 31 0 24 33 19 38 -6z m272 -2 c0 -39
-24 -121 -38 -133 -10 -7 -27 -53 -39 -105 -21 -85 -22 -87 -16 -32 3 33 10
69 15 79 6 10 10 37 10 59 -1 25 10 62 25 94 26 52 43 67 43 38z m847 7 c15
-9 6 -52 -11 -52 -7 0 -21 6 -31 14 -35 25 5 62 42 38z m-1582 -42 c-4 -17 -9
-29 -12 -26 -3 2 -2 19 2 36 4 17 9 29 12 26 3 -2 2 -19 -2 -36z m402 7 c1
-14 -5 -31 -13 -38 -12 -10 -13 -9 -8 5 3 9 1 23 -6 31 -6 8 -9 19 -5 25 11
18 30 5 32 -23z m-601 -1 c3 -8 12 -12 20 -9 9 3 14 -1 14 -12 0 -27 -20 -55
-39 -55 -14 0 -23 -15 -35 -57 -42 -139 -45 -156 -35 -175 6 -12 6 -18 -1 -18
-5 0 -11 -21 -11 -47 l-2 -48 -7 55 c-7 47 -3 71 27 170 23 74 31 116 24 118
-6 2 -11 15 -11 28 0 13 -4 24 -10 24 -5 0 -10 5 -10 11 0 6 6 9 14 6 8 -3 20
1 26 9 16 18 29 18 36 0z m654 -22 c0 -14 -12 -19 -23 -8 -9 9 4 35 14 28 5
-3 9 -12 9 -20z m980 16 c0 -5 6 -10 14 -10 20 0 16 -40 -5 -64 -10 -10 -22
-15 -28 -12 -5 4 -15 -2 -21 -11 -8 -13 -10 -14 -9 -3 1 8 -3 28 -9 43 -14 33
-9 45 22 57 29 12 36 12 36 0z m-1275 -99 c-4 -14 -9 -53 -12 -86 -5 -61 -23
-102 -23 -52 0 15 -6 27 -12 27 -7 0 -5 5 5 11 22 13 23 66 2 90 -14 15 -14
18 0 32 24 24 48 10 40 -22z m395 19 c8 -14 7 -25 -2 -40 -15 -23 -19 -24 -40
-7 -23 17 -13 67 13 67 10 0 23 -9 29 -20z m-193 -12 c-3 -8 -6 -5 -6 6 -1 11
2 17 5 13 3 -3 4 -12 1 -19z m538 -37 c-21 -43 -29 -39 -8 4 9 19 18 33 21 31
2 -2 -4 -18 -13 -35z m-548 -3 c-3 -8 -6 -5 -6 6 -1 11 2 17 5 13 3 -3 4 -12
1 -19z m1310 8 c2 -2 5 -40 4 -55 -1 -7 -7 -11 -16 -7 -8 3 -15 1 -15 -4 0 -6
-7 -10 -15 -10 -8 0 -15 6 -15 14 0 8 -6 16 -12 18 -9 3 -8 12 5 32 14 21 23
25 40 20 12 -3 23 -7 24 -8z m-288 -60 c-6 -26 -13 -45 -16 -43 -2 3 1 26 8
51 6 26 13 45 16 43 2 -3 -1 -26 -8 -51z m-970 -61 c15 -19 15 -19 -2 -6 -18
15 -47 63 -47 78 1 4 8 -5 17 -22 8 -16 23 -39 32 -50z m-459 24 c0 -5 6 -9
14 -9 18 0 32 -58 17 -73 -6 -6 -11 -7 -11 -3 0 5 -6 4 -13 -2 -9 -8 -19 -6
-36 7 -20 15 -23 24 -17 52 4 25 12 35 26 36 11 1 20 -2 20 -8z m600 -71 c0
-15 -4 -30 -10 -33 -5 -3 -10 -19 -10 -35 0 -16 -5 -32 -11 -36 -16 -9 -30 17
-22 41 3 11 7 27 8 35 1 8 5 35 10 59 8 42 8 43 21 20 7 -13 13 -36 14 -51z
m84 11 l6 -30 25 28 c32 37 32 17 0 -27 -14 -19 -26 -48 -26 -64 -1 -22 -4
-16 -9 19 -4 28 -11 62 -15 78 -4 16 -3 27 3 27 5 0 12 -14 16 -31z m248 -46
c-2 -27 -9 -52 -14 -58 -7 -7 -9 3 -4 30 3 22 6 48 6 58 0 9 3 17 8 17 4 0 6
-21 4 -47z m662 38 c3 -4 1 -21 -4 -37 -5 -16 -13 -56 -17 -89 -4 -36 -8 -50
-11 -35 -2 14 -9 28 -16 32 -8 6 -8 8 1 8 21 0 27 59 8 80 -10 11 -15 26 -12
35 7 16 42 21 51 6z m-641 -92 c-4 -4 -6 13 -3 39 l5 47 3 -39 c2 -21 0 -42
-5 -47z m49 31 c-3 -29 -7 -38 -13 -29 -7 12 -9 12 -9 0 0 -8 -3 -12 -6 -9 -7
8 17 89 25 83 4 -2 5 -22 3 -45z m38 8 c0 -33 -14 -67 -24 -58 -8 9 6 90 15
90 5 0 9 -15 9 -32z m21 -33 c-8 -36 -9 -37 -10 -10 -1 36 12 87 16 65 2 -9
-1 -33 -6 -55z m36 6 c-1 -27 -5 -47 -9 -44 -9 5 -10 39 -2 71 10 35 13 26 11
-27z m30 -6 c-2 -45 -17 -65 -17 -22 0 24 10 67 16 67 2 0 2 -20 1 -45z m33 8
c-5 -20 -7 -41 -4 -45 3 -4 0 -8 -5 -8 -13 0 -14 14 -5 59 4 17 10 31 14 31 4
0 4 -17 0 -37z m-880 -34 c0 -4 7 -6 15 -3 21 8 42 -17 50 -58 6 -32 4 -36
-19 -40 -15 -3 -29 -1 -32 3 -3 5 -14 4 -25 -1 -23 -13 -39 -5 -39 19 0 9 -5
22 -11 28 -8 8 -5 17 10 32 12 12 21 25 21 31 0 5 7 7 15 4 8 -4 15 -10 15
-15z m397 -41 c-3 -7 -5 -2 -5 12 0 14 2 19 5 13 2 -7 2 -19 0 -25z m706 7
c25 -10 40 -52 27 -73 -5 -9 -10 -12 -10 -7 0 6 -4 4 -8 -2 -7 -10 -13 -10
-35 0 -28 13 -40 40 -31 75 6 22 20 23 57 7z m-1449 -14 c11 -4 20 -19 22 -35
2 -21 -3 -29 -22 -36 -14 -6 -29 -10 -34 -10 -16 0 -22 42 -9 66 13 26 15 26
43 15z m620 -13 c4 7 13 12 19 12 13 -1 -30 -40 -43 -40 -4 0 -5 12 -2 27 4
24 6 25 12 8 4 -13 9 -15 14 -7z m-865 -70 c1 -39 -4 -44 -28 -29 -10 6 -11
20 -6 52 4 24 10 48 13 54 8 13 20 -31 21 -77z m1175 73 c26 -10 30 -58 6 -71
-30 -16 -47 -12 -54 15 -6 25 8 66 22 64 4 0 16 -4 26 -8z m-345 -61 c0 -23
-1 -23 -9 -5 -5 11 -9 29 -9 40 -1 17 1 17 9 5 5 -8 9 -26 9 -40z m29 -26
c-32 -29 -38 -42 -39 -77 l-1 -42 -7 35 c-4 19 -13 45 -19 57 -18 33 -14 41 8
13 13 -17 20 -20 20 -10 0 8 15 25 33 38 46 32 48 27 5 -14z m-392 -27 c2 -7
-1 -25 -9 -40 -13 -25 -14 -26 -30 -6 -18 20 -22 41 -10 52 11 12 43 8 49 -6z
m572 -13 c19 -5 23 -12 20 -38 -2 -18 -8 -30 -15 -28 -7 1 -13 -2 -13 -8 0
-20 -31 -10 -41 14 -8 17 -8 29 0 45 13 23 15 24 49 15z m294 -44 c-2 -14 -6
-49 -9 -78 -4 -42 -8 -52 -20 -48 -8 3 -17 6 -19 6 -2 0 -4 5 -4 10 0 6 7 10
15 10 21 0 20 58 -1 81 -22 24 -11 51 18 47 18 -2 22 -8 20 -28z m654 -43 c7
-22 3 -27 -23 -31 -28 -5 -44 13 -33 34 13 24 48 22 56 -3z m-335 -19 c7 -29
-3 -54 -19 -44 -6 3 -12 0 -15 -6 -3 -9 -12 -6 -27 10 -20 21 -21 27 -9 48 17
33 60 28 70 -8z m259 -28 c0 -5 -7 -10 -15 -10 -8 0 -15 5 -15 10 0 6 7 10 15
10 8 0 15 -4 15 -10z m-81 -9 c19 -12 6 -41 -18 -41 -21 0 -36 36 -17 44 17 7
20 6 35 -3z m123 -103 c3 -7 -2 -19 -9 -26 -11 -12 -19 -12 -43 -2 -31 13 -34
18 -22 36 17 26 65 21 74 -8z"/>
<path d="M2052 2057 c-6 -7 -7 -18 -3 -26 7 -11 11 -9 20 7 13 24 -1 39 -17
19z"/>
<path d="M635 870 c-4 -6 5 -9 19 -8 15 1 26 6 26 10 0 12 -38 10 -45 -2z"/>
<path d="M3 755 c0 -22 2 -30 4 -17 2 12 2 30 0 40 -3 9 -5 -1 -4 -23z"/>
<path d="M700 760 c0 -5 5 -10 10 -10 6 0 10 5 10 10 0 6 -4 10 -10 10 -5 0
-10 -4 -10 -10z"/>
<path d="M1 663 c0 -30 3 -53 9 -53 11 0 11 31 0 75 -7 26 -8 22 -9 -22z"/>
</g>
</svg>
