<?xml version="1.0" standalone="no"?>
<!DOCTYPE svg PUBLIC "-//W3C//DTD SVG 20010904//EN"
 "http://www.w3.org/TR/2001/REC-SVG-20010904/DTD/svg10.dtd">
<svg version="1.0" xmlns="http://www.w3.org/2000/svg"
 width="282.000000pt" height="377.000000pt" viewBox="0 0 282.000000 377.000000"
 preserveAspectRatio="xMidYMid meet">

<g transform="translate(0.000000,377.000000) scale(0.100000,-0.100000)"
fill="#000000" stroke="none">
<path d="M536 3710 c9 -90 25 -112 17 -25 -3 39 -10 75 -15 80 -6 6 -7 -14 -2
-55z"/>
<path d="M55 3570 c17 -4 46 -8 65 -8 l35 0 -30 8 c-16 4 -46 8 -65 8 l-35 0
30 -8z"/>
<path d="M1128 3563 c7 -3 16 -2 19 1 4 3 -2 6 -13 5 -11 0 -14 -3 -6 -6z"/>
<path d="M233 3553 c15 -2 39 -2 55 0 15 2 2 4 -28 4 -30 0 -43 -2 -27 -4z"/>
<path d="M587 3544 c3 -8 16 -14 29 -14 32 0 30 6 -5 18 -25 9 -29 8 -24 -4z"/>
<path d="M2620 3551 c0 -14 57 -29 135 -34 44 -3 59 -2 40 3 -16 4 -48 8 -70
9 -22 1 -53 8 -69 16 -33 18 -36 18 -36 6z"/>
<path d="M1810 3530 c0 -11 40 -11 85 0 25 6 20 8 -27 9 -33 0 -58 -3 -58 -9z"/>
<path d="M2011 3535 c8 -7 139 -9 146 -1 3 3 -29 6 -72 6 -43 0 -76 -2 -74 -5z"/>
<path d="M2280 3530 c19 -13 30 -13 30 0 0 6 -10 10 -22 10 -19 0 -20 -2 -8
-10z"/>
<path d="M658 3523 c6 -2 18 -2 25 0 6 3 1 5 -13 5 -14 0 -19 -2 -12 -5z"/>
<path d="M888 3513 c6 -2 18 -2 25 0 6 3 1 5 -13 5 -14 0 -19 -2 -12 -5z"/>
<path d="M1752 3355 c0 -16 2 -22 5 -12 2 9 2 23 0 30 -3 6 -5 -1 -5 -18z"/>
<path d="M1747 3183 c-4 -3 -6 -22 -6 -42 l1 -36 8 40 c8 42 8 49 -3 38z"/>
<path d="M2645 2819 c-5 -7 18 -8 76 -3 46 3 86 8 88 10 2 2 -32 4 -77 4 -47
0 -84 -5 -87 -11z"/>
<path d="M1400 2740 c-20 -6 -14 -8 25 -8 37 -1 45 2 30 8 -24 10 -23 10 -55
0z"/>
<path d="M348 2723 c6 -2 18 -2 25 0 6 3 1 5 -13 5 -14 0 -19 -2 -12 -5z"/>
<path d="M400 2720 c17 -12 210 -9 210 2 0 5 -51 8 -112 8 -80 0 -109 -3 -98
-10z"/>
<path d="M725 2720 c-8 -13 15 -13 35 0 12 8 11 10 -7 10 -12 0 -25 -4 -28
-10z"/>
<path d="M683 2505 c0 -22 2 -30 4 -17 2 12 2 30 0 40 -3 9 -5 -1 -4 -23z"/>
<path d="M14 2511 c4 -6 12 -9 17 -6 5 4 9 0 9 -7 0 -10 2 -10 9 1 5 8 11 9
15 3 4 -6 16 -9 28 -7 12 3 26 -1 30 -8 5 -8 8 -7 8 6 0 9 -8 17 -17 18 -10 0
-38 3 -62 6 -31 4 -41 2 -37 -6z"/>
<path d="M137 2491 c-4 -15 -11 -19 -33 -15 -82 12 -104 12 -104 0 0 -12 33
-18 240 -42 19 -2 51 -6 70 -9 19 -2 67 -7 105 -10 79 -7 143 -14 165 -20 14
-3 88 -11 205 -20 28 -2 79 -7 115 -10 101 -8 177 -14 275 -20 50 -3 110 -8
135 -10 211 -22 575 -22 780 0 95 10 246 18 348 19 61 0 112 4 112 8 0 9 -14
10 -133 10 -56 0 -75 3 -70 11 4 7 -1 5 -11 -2 -10 -8 -37 -16 -61 -16 -42 -2
-44 -1 -34 19 10 20 10 20 -5 2 -21 -26 -58 -32 -49 -8 4 13 2 13 -10 -3 -12
-16 -28 -20 -75 -21 -32 0 -64 -4 -70 -8 -7 -4 -12 -3 -12 3 0 5 5 13 10 16 6
3 10 12 10 18 0 7 -9 -1 -20 -18 -11 -16 -20 -24 -20 -16 0 9 -4 10 -12 4 -7
-6 -28 -9 -46 -8 -18 1 -35 -2 -38 -7 -3 -4 -13 -4 -23 2 -12 6 -22 5 -29 -2
-9 -9 -12 -8 -12 2 0 13 -2 13 -10 0 -7 -11 -10 -11 -10 -2 0 8 -5 10 -12 5
-19 -11 -38 -12 -38 -2 0 6 -6 7 -12 2 -22 -13 -50 -14 -42 -1 5 7 3 8 -7 2
-23 -14 -51 -16 -43 -2 5 7 3 8 -7 2 -23 -14 -51 -16 -43 -2 5 7 3 8 -7 3 -19
-12 -69 -13 -69 -2 0 5 -6 4 -13 -2 -8 -6 -17 -8 -20 -4 -6 5 -37 8 -124 12
-16 1 -21 5 -16 17 3 9 12 13 22 9 26 -11 61 -13 66 -5 7 12 -14 16 -82 15
-35 0 -63 2 -63 5 0 3 -9 6 -20 7 -11 1 -20 -2 -20 -8 0 -9 26 -13 69 -9 25 2
26 -20 1 -28 -8 -3 -10 0 -5 8 6 9 4 11 -6 4 -24 -14 -51 -16 -43 -2 5 8 1 8
-10 -1 -16 -13 -18 -13 -16 0 5 30 -1 39 -22 38 l-23 0 23 -10 c22 -8 22 -29
1 -29 -6 0 -7 5 -3 12 5 7 3 8 -7 2 -24 -14 -51 -16 -43 -2 5 9 2 9 -9 -1 -9
-7 -17 -9 -17 -4 0 5 -18 9 -40 7 -28 -2 -38 1 -33 9 4 7 -1 6 -10 -2 -13 -10
-17 -10 -17 -1 0 9 -4 9 -13 2 -8 -7 -18 -7 -27 -2 -9 6 -20 4 -29 -3 -11 -10
-13 -9 -9 3 5 15 16 17 92 19 60 2 37 11 -36 15 -55 4 -65 2 -64 -11 0 -9 -9
-17 -22 -19 -17 -3 -21 0 -16 8 6 10 4 10 -7 2 -16 -13 -49 -15 -49 -3 0 4
-11 6 -25 3 -19 -3 -23 -1 -19 11 3 8 10 12 15 9 5 -3 9 0 9 5 0 6 -9 11 -20
11 -12 0 -17 -5 -14 -14 3 -8 1 -17 -5 -21 -6 -3 -11 -1 -11 6 0 8 -4 8 -13 1
-7 -6 -18 -7 -26 -2 -8 4 -20 6 -28 3 -9 -4 -11 0 -7 11 3 9 10 13 15 10 5 -3
9 -1 9 4 0 12 -80 21 -86 10 -3 -4 9 -8 26 -8 43 0 34 -23 -11 -25 -46 -3 -58
3 -52 26 3 10 1 19 -5 19 -5 0 -9 -8 -8 -17 1 -14 -6 -17 -29 -15 -16 1 -49 3
-72 4 -24 1 -43 6 -43 10 0 4 -6 5 -14 2 -11 -4 -13 0 -9 15 4 17 1 21 -18 20
-17 -1 -19 -3 -6 -6 19 -5 22 -18 7 -28 -5 -3 -10 -1 -10 6 0 8 -4 8 -16 -2
-13 -11 -14 -9 -9 14 6 24 4 27 -16 28 -13 0 -53 3 -89 6 -36 3 -62 2 -57 -3
4 -4 23 -9 42 -11 19 -2 51 -4 70 -6 19 -2 34 -7 33 -13 -3 -9 -38 -9 -108 -1
-19 3 -40 5 -47 6 -6 1 -9 10 -6 21 4 17 0 20 -25 20 -17 0 -37 3 -45 6 -9 3
-16 -2 -20 -15z m80 -15 c-2 -6 -15 -10 -28 -10 -36 2 -39 3 -39 12 0 5 16 9
35 9 21 0 34 -5 32 -11z"/>
<path d="M470 2462 c0 -4 9 -8 20 -9 11 -1 20 2 20 5 0 4 -9 8 -20 9 -11 1
-20 -2 -20 -5z"/>
<path d="M520 2456 c0 -2 9 -6 20 -9 11 -3 20 -1 20 4 0 5 -9 9 -20 9 -11 0
-20 -2 -20 -4z"/>
<path d="M570 2452 c0 -15 11 -21 27 -15 12 5 12 7 1 14 -17 11 -28 11 -28 1z"/>
<path d="M775 2430 c-8 -13 9 -20 24 -11 10 6 9 10 -3 14 -8 3 -18 2 -21 -3z"/>
<path d="M870 2421 c0 -13 12 -20 26 -14 20 8 17 19 -6 20 -11 1 -20 -2 -20
-6z"/>
<path d="M928 2413 c6 -2 18 -2 25 0 6 3 1 5 -13 5 -14 0 -19 -2 -12 -5z"/>
<path d="M1120 2402 c0 -4 9 -8 20 -9 11 -1 20 2 20 5 0 4 -9 8 -20 9 -11 1
-20 -2 -20 -5z"/>
<path d="M1174 2398 c-3 -4 4 -8 15 -8 12 0 21 4 21 8 0 5 -7 9 -15 9 -9 0
-18 -4 -21 -9z"/>
<path d="M2080 2385 c0 -7 30 -13 34 -7 3 4 -4 9 -15 9 -10 1 -19 0 -19 -2z"/>
<path d="M2130 2380 c0 -4 7 -7 15 -6 23 3 26 12 5 13 -11 1 -20 -2 -20 -7z"/>
<path d="M10 2359 c7 -13 7 -19 0 -19 -16 0 -12 -50 5 -56 14 -6 13 -8 -2 -19
-10 -8 -15 -17 -10 -21 4 -4 7 -2 7 5 0 7 5 9 11 5 6 -3 15 -1 19 6 5 7 10 8
14 2 3 -5 -8 -15 -24 -22 -24 -10 -28 -15 -19 -26 8 -10 8 -14 0 -14 -18 0
-13 -14 12 -29 17 -10 19 -11 10 0 -17 17 -16 29 0 29 7 0 12 -11 11 -27 -2
-45 -3 -47 -22 -25 -18 20 -18 17 -20 -129 -2 -143 6 -182 23 -107 4 18 9 27
12 20 3 -7 0 -27 -6 -44 -6 -17 -9 -34 -6 -37 3 -3 8 4 11 16 3 12 14 23 25
26 10 3 19 11 19 17 0 10 -3 10 -14 1 -11 -9 -15 -5 -18 26 -6 44 -3 52 14 35
7 -7 16 -12 22 -12 5 0 2 6 -9 13 -10 8 -15 19 -11 25 4 7 3 12 -2 12 -6 0
-13 7 -16 16 -5 14 -4 15 9 4 20 -17 19 -1 -2 22 -13 14 -13 17 -2 13 20 -7
42 42 29 65 -7 13 -6 20 5 24 8 3 15 10 15 15 0 6 -7 8 -16 4 -13 -5 -15 -2
-9 17 5 15 4 20 -4 16 -6 -4 -11 -2 -11 4 0 7 -8 9 -20 5 -11 -4 -20 -2 -20 4
0 6 3 11 8 12 4 0 17 2 30 3 13 2 22 -3 22 -11 0 -8 4 -12 9 -8 5 3 13 0 17
-6 5 -8 3 -9 -6 -4 -8 5 -11 3 -8 -5 8 -25 23 -20 37 12 8 18 19 36 24 39 5 4
5 15 -2 27 -6 11 -8 29 -4 38 6 16 5 17 -9 4 -10 -9 -13 -19 -7 -24 12 -13 12
-29 -1 -21 -5 3 -10 0 -10 -7 0 -10 -3 -9 -9 2 -6 8 -7 18 -4 23 7 11 -27 48
-39 41 -5 -3 -6 -15 -3 -27 5 -20 5 -20 -6 -4 -8 14 -8 22 0 30 6 6 11 18 11
26 0 8 -3 12 -6 9 -3 -4 -19 -2 -35 2 -27 8 -28 7 -19 -11z m30 -39 c0 -5 -2
-10 -4 -10 -3 0 -8 5 -11 10 -3 6 -1 10 4 10 6 0 11 -4 11 -10z m-15 -20 c3
-5 1 -10 -4 -10 -6 0 -11 5 -11 10 0 6 2 10 4 10 3 0 8 -4 11 -10z m55 -186
c0 -3 -7 -12 -15 -20 -16 -17 -18 -14 -9 10 6 15 24 23 24 10z m-46 -23 c3 -5
-1 -11 -9 -14 -9 -4 -12 -1 -8 9 6 16 10 17 17 5z m-2 -96 c-8 -16 -9 -16 -15
-1 -4 10 -3 15 3 11 6 -3 10 -1 10 6 0 7 3 10 6 6 3 -3 2 -13 -4 -22z"/>
<path d="M1470 2376 c0 -9 30 -14 35 -6 4 6 -3 10 -14 10 -12 0 -21 -2 -21 -4z"/>
<path d="M1515 2361 c-5 -12 -3 -13 5 -5 7 7 24 9 45 4 32 -7 45 -5 45 9 0 3
-20 6 -45 7 -32 0 -46 -4 -50 -15z"/>
<path d="M1624 2369 c-3 -5 -2 -9 3 -10 44 -4 76 -3 80 3 2 5 -6 8 -19 9 -13
0 -31 2 -40 4 -10 2 -20 -1 -24 -6z"/>
<path d="M1750 2369 c-37 -7 -34 -9 18 -13 18 -1 35 1 37 5 8 12 -18 15 -55 8z"/>
<path d="M1825 2372 c-11 -11 -4 -20 12 -18 22 3 29 23 8 23 -8 0 -17 -3 -20
-5z"/>
<path d="M1875 2372 c-3 -3 -5 -10 -5 -16 0 -6 5 -4 10 4 8 12 10 12 10 1 0
-10 3 -11 14 -2 11 9 15 9 18 -1 3 -8 6 -8 10 3 5 12 -1 15 -23 15 -16 0 -31
-2 -34 -4z"/>
<path d="M1950 2375 c0 -7 30 -13 34 -7 3 4 -4 9 -15 9 -10 1 -19 0 -19 -2z"/>
<path d="M80 2361 c0 -3 7 -17 16 -30 15 -21 18 -21 26 -7 5 9 7 20 4 25 -7
11 -46 21 -46 12z"/>
<path d="M2560 2360 c0 -5 5 -10 10 -10 6 0 10 5 10 10 0 6 -4 10 -10 10 -5 0
-10 -4 -10 -10z"/>
<path d="M2590 2362 c0 -4 10 -9 22 -9 18 -2 20 0 8 7 -18 12 -30 13 -30 2z"/>
<path d="M2670 2352 c0 -4 10 -9 22 -9 18 -2 20 0 8 7 -18 12 -30 13 -30 2z"/>
<path d="M162 2339 c2 -7 10 -15 17 -17 8 -3 12 1 9 9 -2 7 -10 15 -17 17 -8
3 -12 -1 -9 -9z"/>
<path d="M235 2330 c3 -5 11 -10 16 -10 6 0 7 5 4 10 -3 6 -11 10 -16 10 -6 0
-7 -4 -4 -10z"/>
<path d="M315 2320 c3 -5 11 -10 16 -10 6 0 7 5 4 10 -3 6 -11 10 -16 10 -6 0
-7 -4 -4 -10z"/>
<path d="M390 2320 c0 -6 7 -10 15 -10 8 0 15 2 15 4 0 2 -7 6 -15 10 -8 3
-15 1 -15 -4z"/>
<path d="M468 2307 c6 -7 9 -24 6 -38 -4 -17 -3 -20 4 -10 5 7 15 10 21 7 7
-5 10 0 8 11 -4 27 -16 43 -34 43 -12 0 -13 -3 -5 -13z"/>
<path d="M545 2300 c3 -5 11 -10 16 -10 6 0 7 5 4 10 -3 6 -11 10 -16 10 -6 0
-7 -4 -4 -10z"/>
<path d="M615 2290 c3 -5 10 -10 16 -10 5 0 9 5 9 10 0 6 -7 10 -16 10 -8 0
-12 -4 -9 -10z"/>
<path d="M692 2284 c14 -14 21 -15 30 -6 8 8 9 12 1 12 -6 0 -20 3 -30 6 -17
7 -17 6 -1 -12z"/>
<path d="M760 2291 c0 -6 4 -12 10 -16 6 -4 5 -15 -2 -30 -11 -24 -11 -24 -28
-5 -19 22 -35 15 -50 -24 -14 -39 -6 -44 10 -6 7 16 16 30 21 30 13 0 11 -12
-4 -35 -7 -11 -12 -31 -11 -45 1 -14 -3 -31 -9 -39 -15 -17 -18 -73 -5 -65 5
4 8 14 5 24 -3 11 2 28 10 40 8 12 12 24 9 27 -3 3 -1 12 5 20 9 10 8 13 -1
13 -8 0 -10 3 -7 6 4 4 13 1 21 -5 8 -7 20 -10 26 -6 6 4 9 1 8 -7 -2 -7 2
-12 9 -11 7 2 10 -4 7 -12 -8 -20 -24 -19 -24 1 0 8 -4 13 -9 10 -5 -4 -11 0
-14 6 -3 7 -4 2 -3 -12 1 -14 5 -31 9 -37 8 -12 -8 -27 -20 -20 -5 3 -9 -14
-10 -37 -1 -22 1 -35 4 -28 7 19 33 -5 34 -32 1 -19 2 -18 9 4 7 23 8 23 9 3
1 -12 6 -25 12 -28 7 -5 6 -12 -4 -23 -7 -10 -14 -30 -15 -46 -2 -28 -1 -29
12 -11 8 11 11 22 6 25 -4 3 -2 10 5 17 10 10 14 9 19 -3 6 -15 -22 -63 -37
-64 -4 0 -2 -9 5 -19 7 -11 16 -17 20 -15 5 3 6 -6 2 -20 -5 -21 -3 -26 12
-26 15 0 16 2 5 9 -8 5 -10 14 -6 21 5 8 1 18 -11 27 -17 13 -17 14 9 38 15
14 22 20 17 13 -12 -14 -13 -49 -2 -47 19 3 22 -3 11 -22 -8 -15 -8 -19 0 -15
7 4 11 -1 11 -13 0 -12 3 -20 8 -20 21 4 32 -3 32 -20 0 -11 -6 -22 -12 -25
-7 -4 -3 -4 10 -2 19 4 22 1 18 -12 -5 -13 -3 -12 9 2 19 26 19 40 -1 32 -10
-4 -14 -2 -11 6 2 7 10 12 16 10 6 -1 14 4 17 12 3 8 11 14 17 12 7 -1 9 -1 5
1 -5 3 -8 9 -8 14 0 6 5 7 10 4 6 -3 10 -2 10 4 0 6 8 8 18 5 14 -5 14 -4 3 4
-12 9 -12 13 -2 26 9 11 10 16 2 16 -6 0 -11 -5 -11 -11 0 -6 -7 -9 -15 -5 -8
3 -15 0 -15 -7 0 -8 -4 -6 -10 3 -5 8 -9 22 -9 30 0 10 3 8 9 -5 l9 -20 1 20
1 20 9 -20 c6 -14 9 -16 10 -5 7 49 22 81 36 76 8 -3 14 -1 14 4 0 9 -12 13
-30 12 -3 0 -6 10 -6 23 -1 14 3 23 10 22 14 -3 15 61 1 73 -7 5 -8 34 -5 75
5 54 3 63 -7 49 -11 -16 -13 -16 -19 -1 -5 13 -10 14 -25 6 -14 -7 -19 -6 -19
3 0 8 -3 9 -8 3 -15 -21 -34 -16 -27 7 5 18 4 20 -4 8 -10 -14 -15 -7 -12 13
1 5 -3 6 -8 2 -6 -3 -9 -11 -7 -18 1 -7 1 -9 -2 -4 -2 4 -12 12 -23 17 -16 9
-17 8 -12 -7 6 -16 5 -16 -10 -4 -13 10 -14 17 -7 26 8 9 6 17 -5 29 -19 18
-25 20 -25 7z m40 -97 c0 -8 -4 -14 -8 -14 -4 0 -8 9 -8 19 0 11 4 17 8 15 4
-3 8 -12 8 -20z m14 -93 c-2 -2 -15 -5 -29 -6 -16 -2 -25 2 -25 11 0 8 5 14
10 14 6 0 10 -4 10 -10 0 -21 20 -9 21 13 0 21 1 21 8 2 5 -11 7 -22 5 -24z
m5 -33 c-9 -16 -14 -19 -17 -9 -2 7 2 17 9 22 20 13 21 11 8 -13z m-49 -7 c5
-11 15 -32 20 -48 10 -27 9 -27 -5 -8 -9 11 -19 20 -24 20 -14 0 -38 30 -33
43 6 18 30 14 42 -7z m207 -13 c-3 -8 -6 -5 -6 6 -1 11 2 17 5 13 3 -3 4 -12
1 -19z m-134 -165 c-6 -16 -5 -16 11 -4 16 13 17 11 15 -32 -2 -26 -6 -47 -10
-47 -12 0 -20 33 -10 43 7 7 5 14 -6 22 -9 7 -13 17 -9 23 11 18 16 14 9 -5z
m87 -74 c0 -4 -4 -11 -10 -14 -5 -3 -10 -1 -10 4 0 6 -5 11 -11 11 -5 0 -8 -4
-4 -9 3 -5 1 -12 -4 -15 -10 -7 -20 23 -14 41 3 9 10 9 29 1 13 -6 24 -15 24
-19z"/>
<path d="M451 2264 c0 -11 3 -14 6 -6 3 7 2 16 -1 19 -3 4 -6 -2 -5 -13z"/>
<path d="M835 2270 c4 -6 11 -8 16 -5 14 9 11 15 -7 15 -8 0 -12 -5 -9 -10z"/>
<path d="M905 2270 c3 -5 10 -10 16 -10 5 0 9 5 9 10 0 6 -7 10 -16 10 -8 0
-12 -4 -9 -10z"/>
<path d="M980 2271 c0 -5 5 -13 10 -16 6 -3 10 -2 10 4 0 5 -4 13 -10 16 -5 3
-10 2 -10 -4z"/>
<path d="M2369 2269 c-9 -6 1 -8 28 -7 23 1 40 4 38 8 -6 10 -50 9 -66 -1z"/>
<path d="M2450 2270 c0 -5 5 -10 11 -10 5 0 7 5 4 10 -3 6 -8 10 -11 10 -2 0
-4 -4 -4 -10z"/>
<path d="M2485 2270 c3 -5 8 -10 11 -10 2 0 4 5 4 10 0 6 -5 10 -11 10 -5 0
-7 -4 -4 -10z"/>
<path d="M2510 2270 c0 -13 20 -13 40 0 12 8 9 10 -12 10 -16 0 -28 -4 -28
-10z"/>
<path d="M2570 2271 c0 -5 21 -8 48 -8 26 0 70 -3 97 -7 45 -7 60 3 17 11 -40
8 -162 10 -162 4z"/>
<path d="M171 2265 c0 -5 6 -21 14 -35 8 -14 14 -20 14 -15 0 6 -6 21 -14 35
-8 14 -14 21 -14 15z"/>
<path d="M515 2260 c-4 -6 -11 -8 -16 -5 -5 4 -9 1 -9 -4 0 -6 -7 -11 -15 -11
-8 0 -15 -8 -14 -17 0 -11 3 -13 6 -5 8 20 23 14 20 -9 -1 -12 5 -24 13 -26
13 -4 13 -3 0 6 -10 7 -11 11 -3 11 18 0 33 -34 22 -51 -5 -7 -9 -21 -9 -29 0
-12 2 -13 9 -1 7 11 11 10 20 -5 10 -16 10 -14 5 11 l-6 30 20 -29 c11 -16 18
-36 14 -45 -3 -9 7 -3 23 14 17 16 29 36 27 45 -2 13 -1 13 7 1 8 -12 11 -10
15 10 13 64 15 90 7 84 -5 -3 -11 5 -13 17 -3 20 -4 21 -18 7 -12 -13 -17 -14
-28 -2 -16 15 -68 18 -77 3z"/>
<path d="M1055 2260 c3 -5 10 -10 16 -10 5 0 9 5 9 10 0 6 -7 10 -16 10 -8 0
-12 -4 -9 -10z"/>
<path d="M2220 2265 c0 -8 29 -12 39 -5 9 5 4 8 -13 8 -14 0 -26 -2 -26 -3z"/>
<path d="M1125 2250 c3 -5 13 -10 21 -10 8 0 12 5 9 10 -3 6 -13 10 -21 10 -8
0 -12 -4 -9 -10z"/>
<path d="M1200 2245 c7 -9 15 -13 17 -11 7 7 -7 26 -19 26 -6 0 -6 -6 2 -15z"/>
<path d="M2786 2249 c3 -5 12 -9 21 -9 19 0 9 13 -12 16 -8 1 -13 -2 -9 -7z"/>
<path d="M1270 2235 c7 -8 16 -12 21 -9 13 8 1 24 -18 24 -13 0 -13 -3 -3 -15z"/>
<path d="M1320 2243 c1 -18 18 -35 24 -24 4 6 4 16 1 21 -7 12 -25 13 -25 3z"/>
<path d="M1370 2235 c6 -8 9 -19 5 -24 -3 -6 -1 -19 5 -28 11 -17 11 -16 5 1
-3 11 -1 22 5 26 15 9 1 40 -17 40 -12 0 -13 -3 -3 -15z"/>
<path d="M1426 2215 c5 -30 4 -34 -10 -29 -19 7 -22 -12 -3 -20 10 -5 10 -7 0
-12 -7 -3 -13 -11 -13 -17 1 -7 10 -1 22 13 17 20 20 21 14 5 -17 -43 -19 -58
-8 -51 7 4 15 0 18 -8 3 -9 12 -16 20 -16 8 0 14 -4 14 -10 0 -5 -7 -10 -16
-10 -8 0 -12 -5 -9 -10 4 -6 11 -7 17 -4 7 4 8 2 4 -4 -4 -6 2 -20 13 -31 10
-10 24 -27 30 -37 11 -17 11 -16 6 6 -5 23 -5 23 8 8 8 -10 16 -15 19 -13 3 3
5 -17 5 -45 0 -28 3 -53 6 -56 3 -3 5 11 5 31 0 20 3 39 6 42 3 4 6 -3 6 -15
0 -11 3 -28 6 -37 5 -13 9 -14 15 -4 6 10 9 10 13 -4 18 -55 16 -54 32 -27 14
24 15 24 11 3 -3 -13 -1 -26 5 -29 5 -3 7 -13 4 -23 -5 -12 -2 -11 9 3 8 11
15 25 15 30 0 6 -5 4 -10 -4 -5 -8 -10 -10 -10 -4 0 5 7 19 15 30 12 16 14 17
15 2 0 -9 3 -24 7 -34 4 -12 3 -15 -5 -10 -8 5 -12 -2 -12 -21 l0 -28 20 30
c11 17 18 35 16 40 -2 6 5 11 15 11 14 0 16 -3 6 -15 -9 -11 -9 -15 1 -19 10
-3 10 -7 0 -20 -9 -12 -6 -11 10 2 23 20 31 43 10 30 -6 -4 -9 -3 -6 2 32 59
36 80 25 117 -13 40 -23 47 -30 20 -3 -10 -5 5 -6 32 -1 28 -6 57 -12 65 -9
12 -10 12 -5 -3 3 -10 -1 -28 -9 -40 -15 -21 -15 -20 -9 18 3 22 8 43 10 47 2
4 -1 10 -7 14 -8 5 -9 3 -4 -6 5 -9 4 -11 -3 -6 -7 4 -12 19 -12 34 0 22 -2
24 -11 12 -8 -12 -9 -10 -4 7 3 12 1 24 -5 28 -6 3 -10 -3 -10 -15 0 -12 -4
-19 -10 -15 -5 3 -7 11 -4 19 3 7 -2 13 -11 13 -8 0 -18 -11 -21 -24 -7 -27
-23 -31 -26 -5 0 9 -2 22 -2 29 -2 24 -14 23 -20 -2 -5 -19 -11 -25 -22 -21
-9 3 -20 6 -25 6 -6 0 -7 5 -4 10 3 6 -1 18 -10 27 -12 12 -13 18 -4 23 8 6 5
11 -11 20 -20 11 -21 10 -15 -9 5 -15 2 -20 -14 -18 -11 0 -18 4 -16 7 2 3 -5
12 -16 18 -19 12 -20 11 -13 -23z m334 -275 c0 -5 -4 -10 -10 -10 -5 0 -10 5
-10 10 0 6 5 10 10 10 6 0 10 -4 10 -10z m18 -25 c0 -14 -4 -28 -9 -31 -5 -3
-6 2 -3 11 5 11 2 14 -12 8 -16 -6 -16 -5 2 14 10 12 20 22 20 22 1 1 2 -10 2
-24z"/>
<path d="M1550 2242 c0 -12 19 -26 26 -19 2 2 -2 10 -11 17 -9 8 -15 8 -15 2z"/>
<path d="M2270 2241 c0 -6 5 -13 11 -16 6 -4 8 -14 4 -24 -5 -12 -3 -13 5 -5
13 13 5 54 -11 54 -5 0 -9 -4 -9 -9z"/>
<path d="M2332 2241 c4 -13 18 -16 19 -4 0 4 -5 9 -11 12 -7 2 -11 -2 -8 -8z"/>
<path d="M2390 2240 c1 -11 30 -43 30 -33 0 6 2 18 5 25 4 9 -2 14 -15 14 -11
0 -20 -3 -20 -6z"/>
<path d="M2466 2242 c-2 -4 -1 -14 5 -22 7 -12 9 -10 9 8 0 23 -5 28 -14 14z"/>
<path d="M2491 2234 c0 -11 3 -14 6 -6 3 7 2 16 -1 19 -3 4 -6 -2 -5 -13z"/>
<path d="M2530 2242 c0 -5 10 -17 22 -28 20 -18 21 -18 15 -1 -4 10 -7 23 -7
28 0 5 -7 9 -15 9 -8 0 -15 -4 -15 -8z"/>
<path d="M2583 2222 c0 -15 2 -19 7 -12 5 9 9 9 14 1 4 -6 4 -16 0 -23 -5 -7
-3 -8 6 -3 7 4 16 2 21 -6 5 -9 7 -2 4 19 -2 18 0 30 5 27 5 -3 7 -12 4 -19
-3 -7 2 -21 11 -30 11 -11 12 -16 4 -16 -16 0 -3 -13 16 -16 8 -1 12 5 10 17
-2 10 0 21 6 24 5 4 9 -2 9 -12 0 -15 7 -19 29 -17 15 1 35 -2 42 -7 11 -7 9
-9 -6 -9 -16 0 -17 -2 -5 -10 9 -5 19 -5 27 1 7 6 17 8 23 4 6 -4 10 10 10 39
l0 44 -71 12 c-38 7 -92 13 -118 14 -45 2 -48 1 -48 -22z"/>
<path d="M152 2220 c-7 -12 -8 -20 -2 -20 6 0 8 -12 5 -27 -5 -26 -4 -25 10 5
18 39 7 74 -13 42z"/>
<path d="M1755 2230 c3 -5 8 -10 11 -10 2 0 4 5 4 10 0 6 -5 10 -11 10 -5 0
-7 -4 -4 -10z"/>
<path d="M1815 2230 c3 -5 11 -10 16 -10 6 0 7 5 4 10 -3 6 -11 10 -16 10 -6
0 -7 -4 -4 -10z"/>
<path d="M1875 2230 c3 -5 11 -10 16 -10 6 0 7 5 4 10 -3 6 -11 10 -16 10 -6
0 -7 -4 -4 -10z"/>
<path d="M1930 2230 c0 -5 5 -10 11 -10 5 0 7 5 4 10 -3 6 -8 10 -11 10 -2 0
-4 -4 -4 -10z"/>
<path d="M1985 2230 c3 -5 8 -10 11 -10 2 0 4 5 4 10 0 6 -5 10 -11 10 -5 0
-7 -4 -4 -10z"/>
<path d="M2050 2230 c0 -5 5 -10 10 -10 6 0 10 5 10 10 0 6 -4 10 -10 10 -5 0
-10 -4 -10 -10z"/>
<path d="M2110 2236 c0 -2 7 -9 15 -16 13 -11 14 -10 9 4 -5 14 -24 23 -24 12z"/>
<path d="M2160 2236 c0 -2 7 -6 15 -10 8 -3 15 -1 15 4 0 6 -7 10 -15 10 -8 0
-15 -2 -15 -4z"/>
<path d="M2221 2227 c8 -7 21 -21 27 -32 9 -17 11 -17 12 -3 0 19 -26 48 -43
48 -7 -1 -6 -6 4 -13z"/>
<path d="M2202 2200 c0 -14 2 -19 5 -12 2 6 2 18 0 25 -3 6 -5 1 -5 -13z"/>
<path d="M2516 2193 c7 -37 14 -42 14 -10 0 14 -4 28 -9 32 -6 3 -8 -6 -5 -22z"/>
<path d="M2223 2176 c0 -17 2 -23 7 -16 6 9 9 8 13 -6 3 -13 5 -14 6 -3 0 8
-5 24 -13 34 -13 18 -13 17 -13 -9z"/>
<path d="M2307 2186 c-4 -10 -1 -13 8 -9 8 3 12 9 9 14 -7 12 -11 11 -17 -5z"/>
<path d="M2453 2185 c-3 -9 -3 -18 -1 -21 3 -3 8 4 11 16 6 23 -1 27 -10 5z"/>
<path d="M2477 2181 c-4 -17 -3 -21 5 -13 5 5 8 16 6 23 -3 8 -7 3 -11 -10z"/>
<path d="M663 2179 c3 -9 -8 -32 -25 -53 -17 -20 -28 -39 -26 -42 3 -2 11 2
17 10 7 8 18 13 25 10 13 -5 31 24 21 34 -3 3 -5 0 -5 -6 0 -7 -5 -12 -11 -12
-7 0 -6 9 4 23 11 17 12 28 5 38 -8 11 -9 11 -5 -2z"/>
<path d="M1690 2181 c0 -5 5 -13 10 -16 6 -3 10 -2 10 4 0 5 -4 13 -10 16 -5
3 -10 2 -10 -4z"/>
<path d="M496 2158 c3 -5 10 -6 15 -3 13 9 11 12 -6 12 -8 0 -12 -4 -9 -9z"/>
<path d="M2320 2160 c0 -6 -4 -9 -8 -6 -4 2 -8 -14 -9 -37 l0 -42 9 38 c8 31
13 36 24 26 19 -15 18 -1 -1 17 -9 9 -15 11 -15 4z"/>
<path d="M2276 2137 c3 -10 9 -15 12 -12 3 3 0 11 -7 18 -10 9 -11 8 -5 -6z"/>
<path d="M125 2129 c-4 -6 -5 -12 -2 -15 2 -3 7 2 10 11 7 17 1 20 -8 4z"/>
<path d="M2260 2121 c0 -6 4 -13 10 -16 6 -3 7 1 4 9 -7 18 -14 21 -14 7z"/>
<path d="M2240 2111 c0 -6 4 -13 10 -16 6 -3 7 1 4 9 -7 18 -14 21 -14 7z"/>
<path d="M660 2075 c0 -8 2 -15 4 -15 2 0 6 7 10 15 3 8 1 15 -4 15 -6 0 -10
-7 -10 -15z"/>
<path d="M710 1960 c0 -11 5 -20 11 -20 6 0 8 7 5 16 -3 8 -2 12 4 9 6 -3 10
-1 10 4 0 6 -7 11 -15 11 -8 0 -15 -9 -15 -20z"/>
<path d="M750 1955 c-8 -9 -8 -15 -2 -15 12 0 26 19 19 26 -2 2 -10 -2 -17
-11z"/>
<path d="M60 1942 c0 -5 7 -9 15 -9 8 0 12 4 9 9 -3 4 -9 8 -15 8 -5 0 -9 -4
-9 -8z"/>
<path d="M1525 1929 c-11 -16 -1 -19 13 -3 7 8 8 14 3 14 -5 0 -13 -5 -16 -11z"/>
<path d="M976 1895 c4 -8 8 -15 10 -15 2 0 4 7 4 15 0 8 -4 15 -10 15 -5 0 -7
-7 -4 -15z"/>
<path d="M1799 1873 c-1 -5 -3 -18 -4 -29 -1 -12 -5 -34 -9 -50 -5 -23 -4 -26
5 -14 9 12 10 11 6 -8 -5 -19 -3 -21 9 -11 10 8 12 15 4 23 -5 5 -10 17 -10
26 1 12 3 12 11 -3 11 -18 29 -14 29 6 0 9 -3 8 -8 -1 -11 -17 -34 31 -26 53
4 8 3 15 0 15 -3 0 -7 -3 -7 -7z"/>
<path d="M1865 1869 c-4 -6 -5 -12 -2 -15 2 -3 7 2 10 11 7 17 1 20 -8 4z"/>
<path d="M737 1815 c-4 -8 -3 -16 1 -19 4 -3 9 4 9 15 2 23 -3 25 -10 4z"/>
<path d="M1722 1807 c-7 -8 -8 -24 -3 -43 8 -28 8 -28 12 14 5 47 5 47 -9 29z"/>
<path d="M800 1769 c0 -5 4 -8 9 -5 5 4 12 0 14 -6 3 -8 6 -6 6 5 1 9 -6 17
-14 17 -8 0 -15 -5 -15 -11z"/>
<path d="M955 1749 c-4 -6 -5 -12 -2 -15 2 -3 7 2 10 11 7 17 1 20 -8 4z"/>
<path d="M19 1729 c-15 -14 -17 -50 -18 -261 l-2 -244 33 -15 c21 -9 34 -22
36 -36 4 -24 32 -27 54 -5 8 8 46 12 103 12 87 0 92 -1 105 -25 13 -24 40 -35
40 -16 0 9 38 26 83 35 18 4 27 2 27 -6 0 -9 16 -13 50 -12 28 1 53 -2 56 -7
3 -5 13 -5 24 1 24 13 45 5 58 -23 6 -12 11 -17 11 -10 1 7 7 10 15 7 8 -3 17
-1 20 5 5 7 13 7 26 -1 15 -10 23 -9 39 6 26 24 42 17 56 -25 l12 -34 16 37
c15 35 18 37 42 28 15 -6 31 -8 36 -4 5 3 17 -8 27 -25 9 -17 23 -31 31 -31
11 0 9 4 -5 16 -16 13 -16 15 -1 10 11 -3 17 0 17 9 0 15 20 19 70 15 31 -2
70 -37 71 -64 1 -12 5 -3 8 19 5 36 9 40 31 36 14 -2 32 -4 41 -5 9 0 26 -12
38 -26 13 -16 19 -19 15 -7 -6 18 -4 19 91 21 44 1 95 -18 95 -36 0 -6 8 -1
19 10 23 28 39 28 68 0 17 -16 22 -17 18 -6 -5 12 2 17 30 20 29 3 40 0 55
-19 12 -16 20 -19 23 -11 4 9 6 9 6 -2 1 -21 50 -20 56 1 4 10 20 19 40 21 27
3 40 -1 57 -19 12 -13 28 -21 35 -19 7 3 13 0 13 -7 0 -9 3 -8 9 1 12 20 60
42 91 42 15 0 39 -9 54 -21 22 -18 28 -19 40 -6 22 21 175 15 216 -10 21 -12
33 -14 38 -7 9 15 130 10 177 -7 30 -11 38 -11 44 0 6 9 11 10 15 2 4 -6 13
-8 19 -4 7 5 30 8 52 8 34 0 40 3 43 23 3 17 10 22 34 22 19 0 28 4 26 13 -3
6 -9 12 -14 13 -23 2 -43 17 -37 28 3 6 3 8 -1 4 -5 -4 -23 2 -42 12 -21 12
-36 15 -40 9 -4 -7 -10 -6 -19 1 -8 7 -19 9 -24 5 -7 -4 -8 1 -4 11 4 12 3 15
-6 10 -6 -4 -19 -2 -28 6 -12 9 -15 9 -9 0 4 -6 2 -12 -3 -12 -6 0 -11 6 -11
14 0 27 -25 37 -51 19 -23 -16 -23 -16 -10 0 7 9 10 17 5 18 -5 0 -17 2 -26 4
-11 2 -15 -2 -11 -12 9 -23 -18 -35 -33 -15 -7 9 -10 20 -8 24 3 5 -2 8 -10 8
-9 0 -16 8 -16 18 -1 16 -1 16 -10 0 -13 -21 -35 -18 -56 8 -8 10 -13 13 -9 6
8 -16 -13 -44 -27 -36 -6 4 -5 10 3 15 11 7 10 9 -3 9 -10 0 -18 4 -18 8 0 5
-7 17 -15 28 -13 18 -14 18 -9 -6 4 -24 4 -24 -5 -2 -6 12 -8 30 -5 40 5 14 4
15 -5 2 -6 -8 -11 -25 -11 -38 0 -14 -4 -21 -11 -17 -6 4 -8 13 -6 19 3 7 2
18 -3 25 -4 8 -10 1 -14 -21 -7 -32 -8 -32 -17 -9 -5 13 -10 34 -11 47 -1 12
-5 21 -9 19 -3 -3 -4 -15 -2 -29 3 -13 0 -32 -6 -43 -8 -13 -11 -14 -10 -3 3
22 -12 51 -22 44 -5 -3 -7 -10 -4 -15 4 -5 2 -16 -3 -26 -8 -13 -10 -11 -8 13
1 16 5 35 9 41 5 9 3 11 -7 7 -11 -4 -14 1 -12 20 2 14 -1 23 -6 20 -5 -3 -8
-11 -7 -17 3 -25 -1 -50 -8 -44 -3 4 -12 2 -20 -4 -9 -9 -13 -8 -13 0 0 6 4
11 9 11 16 0 24 41 11 54 -8 8 -10 6 -5 -9 7 -20 6 -20 -9 -1 -10 12 -16 15
-16 7 0 -9 -8 -11 -22 -8 -21 5 -21 5 -5 -7 22 -17 22 -24 0 -22 -10 0 -27 11
-38 24 -19 21 -21 22 -43 7 -12 -9 -20 -20 -17 -25 3 -5 -4 -8 -14 -7 -19 1
-19 3 -5 18 15 16 14 17 -5 12 -12 -3 -21 -10 -21 -15 0 -5 -4 -7 -9 -4 -4 3
-6 18 -4 33 3 20 2 24 -5 14 -6 -8 -8 -26 -6 -40 3 -25 3 -25 -8 -4 -15 32
-38 37 -39 10 0 -21 -1 -21 -8 -2 -5 11 -6 25 -4 30 3 6 -12 -8 -32 -30 -20
-22 -34 -35 -32 -30 3 6 -1 21 -9 35 -12 22 -13 23 -14 5 -1 -18 -2 -18 -10 3
-5 12 -17 22 -27 22 -11 0 -14 -3 -7 -8 12 -8 14 -53 1 -45 -5 3 -6 10 -4 17
3 6 -2 17 -9 24 -12 10 -14 10 -14 -2 0 -9 -10 -20 -22 -26 -21 -10 -21 -10
-5 3 23 19 22 25 -5 22 -38 -4 -39 -5 -32 -17 4 -6 3 -8 -4 -4 -5 3 -13 0 -15
-6 -3 -7 -4 2 -2 19 4 34 -9 53 -18 29 -3 -8 -1 -17 6 -20 7 -2 4 -5 -6 -5
-14 -1 -16 -5 -8 -20 11 -20 5 -31 -16 -31 -7 0 -13 7 -13 16 0 8 3 13 8 11 4
-3 8 8 9 24 1 16 -2 29 -7 29 -6 0 -10 -12 -10 -26 0 -14 -4 -23 -10 -19 -5 3
-10 -2 -11 -12 0 -12 -5 -9 -14 12 -13 28 -14 28 -15 6 0 -18 -4 -22 -20 -18
-12 3 -24 -1 -30 -11 -9 -16 -9 -16 -10 0 0 20 -36 43 -45 28 -3 -5 -12 -7
-20 -4 -7 3 -18 -4 -25 -16 -9 -17 -14 -19 -26 -9 -11 9 -18 8 -32 -4 -12 -11
-22 -13 -35 -6 -9 6 -23 7 -30 3 -8 -5 -8 -2 2 9 7 9 17 15 21 12 14 -9 22 14
11 32 -8 14 -10 15 -11 3 0 -13 -1 -13 -10 0 -9 14 -11 12 -14 -20 0 -8 -8
-14 -16 -12 -8 2 -12 0 -8 -3 4 -4 -3 -16 -15 -25 -20 -17 -24 -17 -39 -3 -12
10 -16 25 -13 42 4 21 4 22 -3 6 -9 -19 -9 -19 -21 0 -11 18 -11 18 -5 -5 6
-21 5 -23 -8 -13 -8 7 -18 10 -21 6 -4 -3 -9 2 -13 11 -3 9 -12 16 -20 16 -8
0 -14 9 -14 21 0 11 -4 18 -8 15 -5 -3 -7 -20 -5 -38 l3 -33 -11 33 c-7 25
-14 32 -27 28 -9 -3 -5 3 11 15 15 11 27 25 27 31 0 6 -9 3 -20 -7 -11 -10
-20 -15 -20 -10 0 4 -9 -3 -19 -16 -13 -17 -16 -26 -8 -31 15 -9 3 -20 -25
-22 -15 -1 -22 -7 -20 -16 3 -12 1 -13 -9 -3 -10 10 -9 17 9 33 12 12 22 26
22 32 0 7 -7 3 -15 -8 -14 -18 -14 -18 -15 11 0 21 -3 26 -9 16 -5 -7 -6 -23
-3 -35 5 -19 4 -19 -11 -7 -13 11 -17 11 -17 1 0 -8 -3 -10 -7 -7 -3 4 -12 2
-19 -4 -20 -16 -44 -3 -45 23 0 22 -1 22 -9 3 -5 -11 -9 -15 -9 -9 -1 13 -32
14 -48 1 -13 -9 -17 1 -14 29 1 6 -6 17 -14 24 -13 11 -14 8 -11 -19 2 -17 -1
-28 -5 -25 -5 3 -9 16 -9 29 0 13 -4 26 -9 29 -5 4 -7 -3 -4 -13 3 -13 -2 -23
-16 -30 -17 -10 -21 -9 -21 3 0 19 17 30 23 14 2 -7 4 1 3 18 l-1 32 -28 -31
c-18 -20 -27 -25 -27 -15 0 9 -7 21 -15 28 -9 8 -15 8 -15 2 0 -6 5 -12 11
-14 6 -2 10 -12 8 -23 -4 -17 -5 -18 -21 -2 -9 9 -22 17 -28 17 -7 0 -10 7 -6
18 4 12 0 10 -14 -7 -15 -17 -20 -19 -20 -8 0 9 5 19 10 22 6 3 10 11 10 17 0
6 -9 1 -20 -12 l-20 -23 -1 24 0 24 -9 -22 c-5 -13 -12 -23 -15 -23 -4 0 -3 5
0 10 11 18 -5 31 -25 20 -15 -8 -17 -6 -13 9 3 10 -1 22 -8 26 -7 5 -10 4 -5
-3 11 -19 -28 -18 -49 1 -19 17 -20 17 -27 0 -6 -17 -7 -17 -7 0 -1 13 -6 17
-20 12 -12 -3 -21 0 -25 10 -3 8 -10 15 -16 15 -6 0 -9 -4 -6 -8 3 -5 -1 -9
-9 -9 -18 0 -19 9 -2 26 10 11 8 11 -10 2 -13 -6 -23 -17 -23 -23 0 -6 -3 -9
-6 -5 -3 3 -2 12 2 19 13 21 11 78 -2 67 -8 -7 -15 0 -22 21 -14 40 -37 40
-29 0 4 -16 3 -31 -1 -34 -14 -8 -11 57 4 86 18 35 15 41 -7 17z m1891 -374
c0 -8 -5 -17 -12 -21 -8 -5 -9 -2 -5 10 5 14 3 17 -8 12 -8 -3 -15 -1 -15 3 0
11 22 20 33 14 4 -2 7 -10 7 -18z m-985 5 c3 -5 1 -10 -4 -10 -6 0 -11 5 -11
10 0 6 2 10 4 10 3 0 8 -4 11 -10z m839 1 c3 -4 -3 -16 -13 -25 -14 -13 -21
-14 -27 -5 -5 8 -3 10 5 5 8 -5 14 0 18 13 6 23 9 25 17 12z m223 -13 c-3 -8
-6 -5 -6 6 -1 11 2 17 5 13 3 -3 4 -12 1 -19z m-1167 2 c0 -5 -5 -10 -11 -10
-5 0 -7 5 -4 10 3 6 8 10 11 10 2 0 4 -4 4 -10z m1020 -50 c0 -5 -5 -10 -11
-10 -5 0 -7 5 -4 10 3 6 8 10 11 10 2 0 4 -4 4 -10z m363 -53 c3 -8 -1 -14 -8
-14 -7 0 -11 6 -8 14 3 7 6 13 8 13 2 0 5 -6 8 -13z"/>
<path d="M1761 1734 c0 -11 3 -14 6 -6 3 7 2 16 -1 19 -3 4 -6 -2 -5 -13z"/>
<path d="M40 1701 c0 -5 5 -13 10 -16 6 -3 10 -2 10 4 0 5 -4 13 -10 16 -5 3
-10 2 -10 -4z"/>
<path d="M782 1690 c0 -14 2 -19 5 -12 2 6 2 18 0 25 -3 6 -5 1 -5 -13z"/>
<path d="M80 1681 c0 -6 4 -13 10 -16 6 -3 7 1 4 9 -7 18 -14 21 -14 7z"/>
<path d="M110 1639 c0 -5 5 -7 10 -4 6 3 10 8 10 11 0 2 -4 4 -10 4 -5 0 -10
-5 -10 -11z"/>
<path d="M136 1623 c-6 -14 -5 -15 5 -6 7 7 10 15 7 18 -3 3 -9 -2 -12 -12z"/>
<path d="M140 1595 c-7 -9 -8 -15 -2 -15 5 0 12 7 16 15 3 8 4 15 2 15 -2 0
-9 -7 -16 -15z"/>
<path d="M1855 1509 c-4 -6 -5 -12 -2 -15 2 -3 7 2 10 11 7 17 1 20 -8 4z"/>
<path d="M1400 1480 c0 -5 5 -10 11 -10 5 0 7 5 4 10 -3 6 -8 10 -11 10 -2 0
-4 -4 -4 -10z"/>
<path d="M760 1465 c-7 -9 -11 -17 -9 -20 3 -2 10 5 17 15 14 24 10 26 -8 5z"/>
<path d="M617 1446 c-17 -13 -16 -14 7 -12 13 0 22 4 20 8 -2 3 2 9 8 11 9 4
8 6 -2 6 -8 0 -23 -6 -33 -13z"/>
<path d="M689 1460 c0 -3 -2 -21 -5 -40 l-4 -35 15 29 c11 20 12 33 5 40 -5 5
-10 8 -11 6z"/>
<path d="M1397 1446 c-4 -9 -11 -14 -17 -11 -5 3 -10 1 -10 -4 0 -13 10 -14
29 -2 7 5 11 15 9 22 -3 9 -6 8 -11 -5z"/>
<path d="M1495 1431 c-3 -5 -1 -12 5 -16 5 -3 10 1 10 9 0 18 -6 21 -15 7z"/>
<path d="M710 1415 c-7 -9 -10 -18 -7 -21 3 -3 10 4 17 15 13 25 8 27 -10 6z"/>
<path d="M1645 1419 c-4 -6 -5 -12 -2 -15 2 -3 7 2 10 11 7 17 1 20 -8 4z"/>
<path d="M1881 1414 c0 -11 3 -14 6 -6 3 7 2 16 -1 19 -3 4 -6 -2 -5 -13z"/>
<path d="M1412 1400 c0 -14 2 -19 5 -12 2 6 2 18 0 25 -3 6 -5 1 -5 -13z"/>
<path d="M1080 1394 c0 -8 5 -12 10 -9 6 3 10 10 10 16 0 5 -4 9 -10 9 -5 0
-10 -7 -10 -16z"/>
<path d="M1160 1397 c0 -10 8 -17 18 -17 9 0 13 4 7 8 -5 4 -13 11 -17 16 -5
5 -8 2 -8 -7z"/>
<path d="M955 1389 c-4 -6 -5 -12 -2 -15 2 -3 7 2 10 11 7 17 1 20 -8 4z"/>
<path d="M1044 1370 c0 -13 4 -16 10 -10 7 7 7 13 0 20 -6 6 -10 3 -10 -10z"/>
<path d="M1330 1376 c0 -15 24 -16 37 -1 4 4 2 5 -4 1 -7 -4 -13 -2 -13 3 0 6
-4 11 -10 11 -5 0 -10 -6 -10 -14z"/>
<path d="M1675 1370 c-3 -5 -1 -10 4 -10 6 0 11 5 11 10 0 6 -2 10 -4 10 -3 0
-8 -4 -11 -10z"/>
<path d="M2210 1345 c0 -5 5 -17 10 -25 5 -8 10 -10 10 -5 0 6 -5 17 -10 25
-5 8 -10 11 -10 5z"/>
<path d="M2251 1284 c0 -11 3 -14 6 -6 3 7 2 16 -1 19 -3 4 -6 -2 -5 -13z"/>
<path d="M2371 1274 c0 -11 3 -14 6 -6 3 7 2 16 -1 19 -3 4 -6 -2 -5 -13z"/>
</g>
</svg>
